<?xml version="1.0" standalone="no"?>
<!DOCTYPE svg PUBLIC "-//W3C//DTD SVG 1.1//EN" "http://www.w3.org/Graphics/SVG/1.1/DTD/svg11.dtd" >
<svg xmlns="http://www.w3.org/2000/svg">
<metadata></metadata>
<defs>
<font id="magistral_blackregular" horiz-adv-x="997" >
<font-face units-per-em="2048" ascent="1638" descent="-410" />
<missing-glyph horiz-adv-x="477" />
<glyph horiz-adv-x="0" />
<glyph unicode="&#xd;" horiz-adv-x="477" />
<glyph unicode=" "  horiz-adv-x="477" />
<glyph unicode="&#x09;" horiz-adv-x="477" />
<glyph unicode="&#xa0;" horiz-adv-x="477" />
<glyph unicode="!" horiz-adv-x="671" d="M102 1434h467l-41 -940h-385zM135 0v373h402v-373h-402z" />
<glyph unicode="&#x22;" horiz-adv-x="1071" d="M102 1434h381l-24 -666h-332zM588 1434h381l-25 -666h-332z" />
<glyph unicode="#" horiz-adv-x="1849" d="M61 381l72 184h301l131 322h-301l76 184h299l147 363h226l-146 -363h396l145 363h225l-143 -363h299l-74 -184h-301l-129 -322h299l-74 -184h-299l-153 -381h-228l154 381h-395l-156 -381h-225l153 381h-299zM659 565h398l131 322h-397z" />
<glyph unicode="$" horiz-adv-x="1581" d="M102 1047q0 176 76 270q61 78 158 102q51 14 156 15h204v147h197v-147h508v-357h-688q-70 0 -97 -4q-47 -8 -47 -51q0 -55 111 -80l479 -108q172 -39 242 -123q78 -93 78 -326q0 -205 -84 -293q-63 -66 -168 -84q-43 -8 -166 -8h-168v-147h-197v147h-555v356h746 q74 0 94 11q31 16 31 43q0 59 -90 79l-523 123q-150 35 -231 164q-66 104 -66 271z" />
<glyph unicode="%" horiz-adv-x="1675" d="M102 1098q0 186 84 270q78 78 246 78q166 0 244 -78q84 -84 84 -270q0 -184 -81 -265t-247 -81q-168 0 -246 77q-84 84 -84 269zM283 1098q0 -98 26 -135q33 -45 123 -45q88 0 121 45q27 37 27 135q0 102 -27 137q-35 45 -121 45q-88 0 -123 -45q-27 -35 -26 -137zM317 0 l832 1434h213l-832 -1434h-213zM915 336q0 184 84 270q74 76 244 76q172 0 246 -76q84 -86 84 -270q0 -186 -81 -267t-249 -81q-166 0 -244 78q-84 84 -84 270zM1096 336q0 -100 26 -137q33 -45 121 -45q90 0 123 45q27 37 27 137q0 98 -27 135q-33 45 -123 45 q-88 0 -121 -45q-27 -37 -26 -135z" />
<glyph unicode="&#x26;" horiz-adv-x="1708" d="M102 391q0 160 56 238q63 88 172 92v4q-90 16 -150 82q-74 84 -74 237q0 209 90.5 299.5t342.5 90.5h915v-357h-709q-111 0 -137 -14q-47 -25 -47 -84q0 -68 55 -88q29 -10 125 -10h947v-312h-187v-155q0 -238 -100 -330q-92 -84 -344 -84h-539q-231 0 -336 121 q-80 92 -80 270zM557 463q0 -61 39 -88q29 -18 106 -19h232q72 0 88 17.5t16 66.5v129h-358q-66 0 -94.5 -30.5t-28.5 -75.5z" />
<glyph unicode="'" horiz-adv-x="589" d="M102 1434h385l-26 -666h-332z" />
<glyph unicode="(" horiz-adv-x="841" d="M102 352v412q0 174 21 262q33 137 116 225t207 142q156 66 334 57v-266q-113 8 -211 -41q-88 -41 -131 -109q-49 -78 -49 -243v-467q0 -164 49 -242q41 -68 131 -111q98 -47 211 -41v-266q-332 -20 -540 201q-90 96 -119 235q-18 90 -19 252z" />
<glyph unicode=")" horiz-adv-x="841" d="M61 -70q113 -6 211 41q90 43 131 111q49 80 50 242v467q0 166 -50 243q-43 68 -131 109q-98 49 -211 41v266q178 8 334 -57q125 -53 208 -141.5t116 -225.5q20 -88 20 -262v-412q0 -162 -18 -252q-29 -139 -119 -235q-209 -221 -541 -201v266z" />
<glyph unicode="*" horiz-adv-x="1003" d="M61 1151l97 166l245 -143v286h197v-286l246 143l96 -166l-248 -141l246 -144l-98 -170l-242 140v-281h-197v281l-241 -140l-99 170l246 144z" />
<glyph unicode="+" horiz-adv-x="1447" d="M102 506v266h484v481h278v-481h482v-266h-482v-481h-278v481h-484z" />
<glyph unicode="," horiz-adv-x="731" d="M0 -145l313 524l316 -189l-346 -503z" />
<glyph unicode="-" d="M61 387v324h875v-324h-875z" />
<glyph unicode="." horiz-adv-x="610" d="M102 0v369h406v-369h-406z" />
<glyph unicode="/" horiz-adv-x="1060" d="M-20 -348l897 1864h204l-897 -1864h-204z" />
<glyph unicode="0" horiz-adv-x="1400" d="M61 565v293q0 360 152 490q78 68 227 90q86 12 260 12t261 -12q150 -23 227 -90q152 -129 151 -490v-293q0 -408 -161 -516q-98 -66 -478 -65q-379 0 -477 65q-162 109 -162 516zM524 596q0 -158 37 -201t139 -43t139.5 43t37.5 201v274q0 121 -41 166t-136 45 q-94 0 -135 -45t-41 -166v-274z" />
<glyph unicode="1" horiz-adv-x="825" d="M0 1077v357h494q229 0 229 -234v-1200h-463v958q0 72 -19.5 95.5t-66.5 23.5h-174z" />
<glyph unicode="2" horiz-adv-x="1386" d="M61 264q0 213 125 279l605 319q72 39 71 123q0 49 -26.5 75.5t-118.5 26.5h-572v347h863q152 0 237 -95q80 -88 80 -295q0 -199 -57 -301q-47 -82 -160 -137l-434 -215q-20 -10 -21 -20q0 -8 15 -9h630v-362h-1034q-104 0 -158 84q-45 70 -45 180z" />
<glyph unicode="3" horiz-adv-x="1411" d="M61 0v356h568q162 0 194 17q51 25 51 92q0 74 -51 96q-25 10 -106 10h-621v316h596q92 0 121 28.5t29 77.5q0 51 -29 76t-117 25h-618v340h878q199 0 285 -115q68 -90 68 -254q0 -162 -62.5 -234.5t-169.5 -85.5v-6q111 0 185 -61q88 -73 88 -266q0 -115 -17 -176 q-25 -84 -92 -146q-98 -90 -270 -90h-910z" />
<glyph unicode="4" horiz-adv-x="1574" d="M20 483q0 186 111 287l653 588q102 92 277 92q143 0 209 -66q51 -51 51 -165v-648h213v-376h-213v-195h-463v195h-643q-96 0 -143 67q-12 12 -27 57q-25 72 -25 164zM463 590q0 -18 26 -19h369v359q0 8 -8 8q-4 0 -27 -20l-346 -308q-14 -12 -14 -20z" />
<glyph unicode="5" horiz-adv-x="1396" d="M61 860v344q0 109 59.5 169.5t184.5 60.5h993v-349h-686q-55 0 -71.5 -17t-16.5 -56v-23q0 -49 29 -74q23 -20 76 -20h381q164 0 252 -111q49 -61 63 -145q10 -49 10 -158q0 -289 -102 -389q-94 -92 -332 -92h-819v356h627q102 0 131 37q20 27 20 80q0 45 -22 70 q-31 33 -111 32h-371q-150 0 -204 37q-90 61 -91 248z" />
<glyph unicode="6" horiz-adv-x="1396" d="M61 401v654q0 201 123 295q109 84 289 84h789v-357h-600q-88 0 -113 -20.5t-25 -73.5v-96h443q178 0 260 -70q108 -92 108 -336q0 -225 -59 -331q-84 -150 -320 -150h-538q-143 0 -242 82q-115 96 -115 319zM524 459q0 -70 35 -90q20 -12 72 -13h127q102 1 102 99 q0 63 -26.5 89.5t-106.5 26.5h-203v-112z" />
<glyph unicode="7" horiz-adv-x="1234" d="M-20 1085v349h1087q188 0 188 -199q0 -119 -59 -213l-647 -1022h-512l686 1026q20 31 20 39q0 20 -51 20h-712z" />
<glyph unicode="8" horiz-adv-x="1409" d="M61 389q0 203 89 279q57 49 157 63v4q-70 8 -125 58q-88 80 -88 241q0 217 95.5 308.5t410.5 91.5h209q315 0 414 -95q92 -88 92 -305q0 -162 -88 -241q-55 -49 -125 -58v-4q100 -14 158 -63q88 -76 88 -279q0 -172 -62 -254q-66 -90 -188 -117q-76 -18 -242 -18h-303 q-166 0 -242 18q-123 27 -188 117q-61 82 -62 254zM537 471q0 -55 24 -82q29 -33 98 -33h91q70 0 98 33q24 27 24 82q0 53 -36 80q-25 18 -95 18h-73q-68 0 -95 -18q-37 -27 -36 -80zM569 971q0 -47 19.5 -68.5t75.5 -21.5h81q55 0 75 21.5t20 68.5q0 63 -28 84.5t-87 21.5 h-41q-59 0 -87 -21.5t-28 -84.5z" />
<glyph unicode="9" horiz-adv-x="1388" d="M61 979q0 129 13 186q20 102 88 170q98 98 289 99h450q264 0 363 -150q63 -96 63 -242v-567q0 -193 -47 -289q-92 -186 -367 -186h-807v356h652q57 0 81.5 20.5t24.5 67.5v93h-491q-147 0 -229.5 96t-82.5 346zM537 963q0 -59 36 -89q25 -18 99 -18h192v143q0 31 -18 54 q-25 25 -64 24h-116q-55 0 -88 -22q-41 -29 -41 -92z" />
<glyph unicode=":" horiz-adv-x="610" d="M102 0v369h406v-369h-406zM102 717v368h406v-368h-406z" />
<glyph unicode=";" horiz-adv-x="735" d="M0 -145l313 524l316 -189l-346 -503zM231 729v356h402v-356h-402z" />
<glyph unicode="&#x3c;" horiz-adv-x="1452" d="M102 993l1248 635v-250l-785 -385l785 -385v-250z" />
<glyph unicode="=" horiz-adv-x="1449" d="M102 309v266h1246v-266h-1246zM102 727v266h1246v-266h-1246z" />
<glyph unicode="&#x3e;" horiz-adv-x="1452" d="M102 358v250l785 385l-785 385v250l1248 -635z" />
<glyph unicode="?" horiz-adv-x="1044" d="M20 1077v357h642q188 0 264 -103q57 -77 57 -237q0 -135 -47 -224q-39 -76 -131 -137l-103 -69q-47 -31 -69 -76q-18 -35 -19 -60v-34h-401v71q0 84 41 144q27 39 113 96l63 43q53 37 72 59q23 33 22 86q0 55 -35 72q-25 12 -102 12h-367zM213 0v373h401v-373h-401z" />
<glyph unicode="@" horiz-adv-x="2017" d="M102 582q0 209 13 309q25 174 98 287q172 260 639 260h360q463 0 619 -301q84 -164 84 -516q0 -309 -60 -439q-84 -180 -294 -180q-102 0 -177 41q-88 49 -110 139q-100 -180 -334 -180q-260 0 -360 176q-66 117 -66 338q0 225 57 342q102 211 365 211h283 q129 0 167.5 -41t38.5 -147v-486q0 -172 134 -172q76 0 113.5 68.5t37.5 316.5q0 313 -72 443q-66 119 -186 163q-86 31 -225 31h-377q-178 0 -279 -37q-162 -59 -221 -227q-43 -121 -43 -449q0 -303 47 -452q53 -168 203 -232q100 -43 270 -43h570v-192h-621 q-379 0 -540 237q-78 115 -109 300q-25 156 -25 432zM780 526q0 -145 25 -200q37 -82 137 -82q94 0 158 67q74 80 74 213v238q0 43 -31 57q-18 8 -53 8h-80q-113 0 -171.5 -65.5t-58.5 -235.5z" />
<glyph unicode="A" horiz-adv-x="1593" d="M-61 0l530 1276q37 90 98 127q76 47 230 47q125 0 190 -27q92 -39 137 -147l531 -1276h-488l-112 295h-516l-113 -295h-487zM649 623h295l-129 362q-10 31 -18 31t-19 -31z" />
<glyph unicode="B" horiz-adv-x="1587" d="M102 227v975q0 102 50 160q61 72 161 72h779q221 0 311 -94.5t90 -307.5q0 -145 -72 -223q-59 -66 -143 -72v-8q102 -8 170 -74q78 -76 78 -254q0 -209 -86 -301q-61 -68 -150 -88q-53 -12 -172 -12h-749q-154 0 -213 68q-53 61 -54 159zM565 463q0 -68 17.5 -87.5 t85.5 -19.5h245q98 0 124 30t26 83q0 37 -19 61q-31 41 -118 41h-361v-108zM565 883h344q90 0 113 43q12 24 12 61t-24.5 63.5t-102.5 26.5h-264q-41 0 -59.5 -16.5t-18.5 -61.5v-116z" />
<glyph unicode="C" horiz-adv-x="1320" d="M61 698q0 389 125 549q147 186 502 187h606v-357h-383q-143 0 -196 -14q-88 -20 -131 -98q-47 -84 -47 -258q0 -172 34 -238q41 -76 140 -98q59 -14 209 -15h397v-356h-635q-180 0 -285 33q-123 41 -204 143q-131 164 -132 522z" />
<glyph unicode="D" horiz-adv-x="1593" d="M102 213v963q0 131 48 186q61 72 172 72h653q279 0 428 -174q129 -150 129 -535q0 -393 -111 -545q-131 -180 -411 -180h-672q-111 0 -170 53q-66 59 -66 160zM565 465q0 -63 22.5 -86t74.5 -23h63q199 0 268 82q64 76 64 291t-96 299q-70 61 -261 62h-34q-49 0 -72 -17 q-29 -20 -29 -80v-528z" />
<glyph unicode="E" horiz-adv-x="1415" d="M102 229v983q0 106 61.5 164t174.5 58h1030v-349h-709q-47 0 -70.5 -19t-23.5 -71v-108h783v-312h-783v-155q0 -35 20.5 -53.5t88.5 -18.5h700v-348h-1032q-115 0 -174 49q-66 55 -66 180z" />
<glyph unicode="F" horiz-adv-x="1425" d="M102 0v1192q0 117 64.5 179.5t187.5 62.5h1067v-349h-768q-45 0 -66.5 -21.5t-21.5 -74.5v-100h625v-324h-625v-565h-463z" />
<glyph unicode="G" horiz-adv-x="1556" d="M61 709q0 217 33 348q47 188 172 278q135 98 361 99h835v-340h-626q-174 0 -248 -119q-51 -82 -51 -258t53 -262q61 -98 201 -99h139q53 0 77.5 22.5t24.5 84.5v295h463v-543q0 -109 -70 -166q-59 -49 -153 -49h-678q-223 0 -361 121q-172 152 -172 588z" />
<glyph unicode="H" horiz-adv-x="1650" d="M102 0v1434h463v-508h520v508h463v-1434h-463v569h-520v-569h-463z" />
<glyph unicode="I" horiz-adv-x="667" d="M102 0v1434h463v-1434h-463z" />
<glyph unicode="J" horiz-adv-x="1048" d="M-41 0v356h207q156 0 227 58q90 72 90 270v750h463v-906q0 -246 -131 -378q-147 -150 -387 -150h-469z" />
<glyph unicode="K" horiz-adv-x="1624" d="M102 0v1434h463v-1434h-463zM631 735q0 94 45 158l385 541h549l-498 -592q-43 -51 -43 -103q0 -68 59 -133l558 -606h-558l-434 555q-63 82 -63 180z" />
<glyph unicode="L" horiz-adv-x="1363" d="M102 184v1250h463v-990q0 -49 21.5 -68.5t75.5 -19.5h743v-356h-1083q-100 0 -156 45q-63 53 -64 139z" />
<glyph unicode="M" horiz-adv-x="2193" d="M102 0v1198q0 252 353 252q125 0 200 -35q117 -55 166 -203l232 -696q23 -65 42 -65h1q20 0 43 65l231 696q49 147 166 203q76 35 203 35q352 0 352 -252v-1198h-467l16 872q0 47 -18 48q-12 0 -29 -52l-221 -692q-31 -96 -74 -135q-66 -57 -202 -57q-137 0 -203 57 q-43 39 -74 135l-221 692q-16 51 -29 52q-16 0 -16 -48l14 -872h-465z" />
<glyph unicode="N" horiz-adv-x="1769" d="M102 0v1196q0 131 99 197q84 57 223 57q209 0 303 -133l522 -737q25 -35 39 -35q23 0 23 35v854h356v-1194q0 -86 -43 -148q-75 -108 -265 -108h-3q-211 0 -312 141l-518 731q-25 35 -39 35q-29 0 -28 -41v-850h-357z" />
<glyph unicode="O" horiz-adv-x="1699" d="M61 717q0 199 23 311q37 180 139.5 274.5t288.5 127.5q121 20 338 20t338 -20q186 -33 288.5 -127.5t139.5 -274.5q22 -112 22 -311q0 -197 -22 -309q-37 -180 -138.5 -275.5t-291.5 -128.5q-119 -20 -336 -20t-336 20q-190 33 -291.5 128t-138.5 276q-23 113 -23 309z M537 717q0 -190 53 -273q43 -66 108 -88q51 -16 152 -16q102 0 151 16q63 23 109 88q53 78 53 273q0 113 -6 153q-10 63 -47 119q-45 66 -109 88q-49 16 -151 17q-100 0 -152 -17q-66 -23 -108 -88q-53 -80 -53 -272z" />
<glyph unicode="P" horiz-adv-x="1611" d="M102 0v1163q0 131 58 197q66 74 190 74h793q207 0 301 -101q106 -115 106 -391q0 -340 -129 -450q-90 -78 -252 -78h-604v-414h-463zM565 770h332q119 0 154.5 38t35.5 124q0 78 -39.5 111.5t-146.5 33.5h-256q-80 0 -80 -84v-223z" />
<glyph unicode="Q" horiz-adv-x="1730" d="M61 717q0 199 23 311q37 180 139.5 274.5t288.5 127.5q121 20 338 20t338 -20q186 -33 289 -127q161 -149 161 -542q0 -275 -71 -413v-8l159 16v-356h-876q-477 0 -627 131q-162 141 -162 586zM537 725q0 -190 53 -272q43 -66 108 -88q51 -16 152 -17q102 0 151 17 q63 23 109 88q53 77 53 272q0 113 -6 154q-10 63 -47 118q-45 66 -109 88q-49 16 -151 17q-100 0 -152 -17q-66 -23 -108 -88q-53 -80 -53 -272z" />
<glyph unicode="R" horiz-adv-x="1615" d="M102 0v1159q0 143 56 205q61 70 192 70h780q248 0 343 -140q73 -110 73 -321v-6q0 -225 -53 -353q-76 -178 -266 -178h-62v-8l410 -428h-557l-277 373q-98 133 -98 194v31q0 72 58.5 117t148.5 45h74q94 0 129 43q30 36 30 114v5q0 84 -33.5 119.5t-129.5 35.5h-256 q-49 0 -74 -23.5t-25 -88.5v-965h-463z" />
<glyph unicode="S" horiz-adv-x="1437" d="M41 1057q0 197 90 287t246 90h946v-357h-729q-59 0 -76 -8q-23 -10 -22 -39q0 -45 120 -78l484 -129q133 -35 198 -100q99 -97 99 -328q0 -193 -70 -284q-55 -72 -139 -97q-51 -14 -150 -14h-983v356h795q80 0 80 45t-92 72l-555 156q-104 29 -164 108q-78 104 -78 320z " />
<glyph unicode="T" horiz-adv-x="1445" d="M-20 1077v357h1486v-357h-512v-1077h-462v1077h-512z" />
<glyph unicode="U" horiz-adv-x="1626" d="M102 573v861h463v-824q0 -145 72 -202q63 -51 176 -52q113 0 176 52q72 59 72 202v824h463v-861q0 -281 -150 -428q-100 -98 -260 -135q-109 -26 -288 -26h-13q-188 0 -301 26q-160 37 -260 135q-150 147 -150 428z" />
<glyph unicode="V" horiz-adv-x="1593" d="M-61 1434h495l336 -973q10 -31 27 -31q16 0 26 31l336 973h496l-498 -1219q-45 -111 -115 -162q-89 -69 -241 -69h-4q-156 0 -246 69q-70 51 -115 162z" />
<glyph unicode="W" horiz-adv-x="2351" d="M-61 1434h471l237 -865q12 -43 27 -43q16 0 22 35l215 733q45 156 265 156q219 0 264 -156l215 -733q6 -35 22 -35q14 0 27 43l238 865h471l-351 -1153q-53 -176 -135 -240q-72 -57 -217 -57q-154 0 -231 65q-63 55 -101 182l-182 623q-14 37 -20 37t-21 -37l-182 -623 q-37 -127 -101 -182q-77 -65 -226 -65h-5q-145 0 -217 57q-82 63 -135 240z" />
<glyph unicode="X" horiz-adv-x="1503" d="M-61 0l542 727l-526 707h553l244 -383l243 383h553l-526 -707l543 -727h-553l-260 403l-260 -403h-553z" />
<glyph unicode="Y" horiz-adv-x="1581" d="M-61 1434h495l357 -619l356 619h495l-620 -1037v-397h-463v397z" />
<glyph unicode="Z" horiz-adv-x="1382" d="M4 188q0 160 139 293l570 543q23 20 22 31q0 23 -37 22h-630v357h1112q198 -1 198 -191q0 -94 -37 -158q-23 -43 -84 -100l-608 -579q-20 -20 -20 -27q0 -23 24 -23h711v-356h-1102q-258 0 -258 188z" />
<glyph unicode="[" horiz-adv-x="841" d="M102 -336v1786h678v-266h-391v-1254h391v-266h-678z" />
<glyph unicode="\" horiz-adv-x="1060" d="M-20 1516h204l897 -1864h-204z" />
<glyph unicode="]" horiz-adv-x="841" d="M61 -70h392v1254h-392v266h678v-1786h-678v266z" />
<glyph unicode="^" horiz-adv-x="1253" d="M102 1202l396 301q57 43 129 43t129 -43l395 -301l-139 -168l-307 240q-39 31 -74 31t-74 -31l-309 -240z" />
<glyph unicode="_" horiz-adv-x="1130" d="M61 0v324h1008v-324h-1008z" />
<glyph unicode="`" horiz-adv-x="694" d="M61 1491l179 223l393 -325l-178 -222z" />
<glyph unicode="a" horiz-adv-x="1261" d="M37 362q0 203 94 275q61 47 193 47h475v16q0 45 -21 72q-33 43 -123 43h-544v270h718q172 0 269 -94q102 -100 102 -305v-455q0 -119 -54 -175t-183 -56h-639q-135 0 -199 57q-88 80 -88 305zM438 356q0 -33 18.5 -49t53.5 -16h209q41 0 60.5 15t19.5 52v68h-285 q-39 0 -57.5 -16.5t-18.5 -53.5z" />
<glyph unicode="b" horiz-adv-x="1251" d="M61 197v1237h402v-349h291q279 0 387 -176q73 -120 73 -364t-71 -365q-106 -180 -383 -180h-477q-115 0 -174 63q-47 51 -48 134zM463 389q0 -59 19.5 -78.5t72.5 -19.5h82q104 0 139 74q29 59 29 184q0 111 -27 170q-37 84 -133 84h-182v-414z" />
<glyph unicode="c" horiz-adv-x="1128" d="M37 528q0 319 121 445q108 112 323 112h4h584v-274h-397q-170 0 -211 -145q-14 -51 -15 -129q0 -135 33 -189q45 -74 215 -74h398v-274h-627q-223 0 -332 129q-96 113 -96 399z" />
<glyph unicode="d" horiz-adv-x="1249" d="M37 569q0 250 80 363q108 153 357 153h3h309v349h402v-1205q0 -104 -35 -155q-51 -74 -186 -74h-539q-256 0 -342 209q-49 119 -49 360zM438 547q0 -133 29 -189q40 -79 140 -79h3h97q41 0 60 17.5t19 72.5v438h-176q-84 0 -128 -63.5t-44 -196.5z" />
<glyph unicode="e" horiz-adv-x="1239" d="M37 530q0 211 6 269q16 127 83 194.5t216 89.5q96 14 295 15q193 0 274 -11q115 -16 174 -63q117 -95 117 -365q0 -145 -65 -198q-39 -31 -107 -31h-592q-1 -8 -1 -16q-1 -43 19 -73q22 -36 76 -46q27 -4 105 -4h526v-291h-686q-156 0 -221 18q-106 29 -162.5 121 t-56.5 391zM438 684h297q66 0 66 57q0 72 -123 80q-31 2 -57 2q-125 -1 -157 -31q-27 -26 -27 -85q0 -11 1 -23z" />
<glyph unicode="f" horiz-adv-x="882" d="M8 799v286h162q8 186 146 277q133 88 523 88h35v-250q-217 -2 -258 -26q-46 -28 -46 -77q0 -6 1 -12h303v-286h-303v-799h-401v799h-162z" />
<glyph unicode="g" horiz-adv-x="1253" d="M37 547q0 279 111.5 408.5t343.5 129.5h446q133 0 193.5 -51t60.5 -162v-751q0 -238 -86 -346q-115 -143 -385 -144h-608v263h483q111 0 147.5 28.5t47.5 77.5h-347q-111 0 -174 20q-94 31 -149 117q-84 129 -84 410zM446 532q0 -135 46.5 -188t183.5 -53h115v418 q0 49 -28 67.5t-67 18.5h-45q-115 0 -160 -57.5t-45 -205.5z" />
<glyph unicode="h" horiz-adv-x="1280" d="M61 0v1434h402v-349h239q131 0 187 -8q104 -16 180 -71q150 -111 150 -297v-709h-402v553q0 121 -60.5 185.5t-166.5 64.5h-127v-803h-402z" />
<glyph unicode="i" horiz-adv-x="524" d="M61 0v1085h402v-1085h-402zM61 1194v240h402v-240h-402z" />
<glyph unicode="j" horiz-adv-x="688" d="M-82 -90h11q149 0 214 51q82 66 82 207v917h402v-1001q0 -252 -158 -354q-124 -79 -482 -79q-34 0 -69 1v258zM225 1194v240h402v-240h-402z" />
<glyph unicode="k" horiz-adv-x="1300" d="M61 0v1434h402v-1434h-402zM520 563q0 78 66 170l248 352h434l-330 -432q-29 -37 -29 -78q0 -47 41 -98l379 -477h-450l-295 389q-63 84 -64 174z" />
<glyph unicode="l" horiz-adv-x="524" d="M61 0v1434h402v-1434h-402z" />
<glyph unicode="m" horiz-adv-x="1761" d="M61 0v891q0 72 39 121q58 73 211 73h4h932q221 0 337 -107.5t116 -293.5v-684h-402v602q0 109 -44 155t-128 46h-45v-803h-401v803h-154q-37 0 -50 -14.5t-13 -57.5v-731h-402z" />
<glyph unicode="n" horiz-adv-x="1282" d="M61 0v891q0 88 45 133q63 61 238 61h377q244 0 364 -96q135 -109 136 -321v-668h-402v551q0 129 -45 186q-51 66 -166 66h-71q-37 0 -55.5 -16.5t-18.5 -61.5v-725h-402z" />
<glyph unicode="o" horiz-adv-x="1327" d="M37 543q0 317 143 444q125 111 484 111q358 0 483 -111q143 -127 143 -444t-143 -445q-124 -110 -477 -110h-6q-358 0 -484 110q-143 127 -143 445zM446 543q0 -135 39 -191q50 -73 176 -73h3q166 0 202 131q15 51 15 133q0 141 -39 194q-51 70 -178 70t-179 -70 q-39 -53 -39 -194z" />
<glyph unicode="p" horiz-adv-x="1259" d="M61 -348v1227q0 115 74 168q54 38 149 38h5h504q205 0 313 -112q117 -122 117 -398q0 -301 -88 -425q-104 -150 -375 -150h-297v-348h-402zM463 291h176q104 0 149 84q25 47 25 170q0 111 -18 157q-37 92 -144 93h-141q-18 0 -32.5 -14.5t-14.5 -37.5v-452z" />
<glyph unicode="q" horiz-adv-x="1259" d="M37 512q0 311 100.5 442t284.5 131h557q129 0 184 -77q35 -49 35 -152v-1204h-401v348h-373q-188 0 -297 139q-90 117 -90 373zM446 532q0 -111 23 -157q41 -84 156 -84h172v428q0 45 -23.5 64.5t-73.5 19.5h-47q-137 0 -180 -82q-27 -49 -27 -189z" />
<glyph unicode="r" horiz-adv-x="858" d="M61 0v629q0 248 127 352t404 104h266v-282h-139q-143 0 -199.5 -75t-56.5 -210v-518h-402z" />
<glyph unicode="s" horiz-adv-x="1130" d="M37 788q0 119 51 195q70 102 252 102h725v-278h-590q-39 0 -47 -2q-18 -4 -18 -19q0 -16 22 -24q16 -8 82 -31l274 -92q193 -66 249.5 -146.5t56.5 -209.5q0 -160 -90 -232q-63 -51 -179 -51h-776v291h592q12 0 23.5 7t11.5 21t-16.5 23.5t-124.5 44.5l-234 76 q-170 55 -223 143q-41 68 -41 182z" />
<glyph unicode="t" horiz-adv-x="856" d="M-4 807v278h154v349h401v-349h309v-278h-309v-248q0 -156 70 -217q57 -51 176 -51h59v-291h-233q-227 0 -336 74q-137 92 -137 266v467h-154z" />
<glyph unicode="u" horiz-adv-x="1298" d="M61 494v591h402v-540q0 -131 39 -187q46 -67 166 -67h4h73q47 0 69 21.5t22 66.5v706h401v-864q0 -117 -68 -172q-59 -49 -176 -49h-491q-193 0 -303 92q-137 115 -138 402z" />
<glyph unicode="v" horiz-adv-x="1286" d="M-49 1085h418l247 -626q14 -37 27 -37q12 0 27 37l248 626h417l-458 -999q-45 -98 -234 -98q-188 0 -233 98z" />
<glyph unicode="w" horiz-adv-x="1847" d="M-49 1085h381l164 -624q8 -33 20 -33q8 0 19 31l159 524q35 115 230 115t229 -115l160 -524q10 -31 18 -31q12 0 21 33l164 624h380l-247 -880q-31 -106 -80 -154q-70 -63 -207 -63q-231 0 -279 157l-143 473q-10 33 -16 33t-17 -33l-143 -473q-47 -157 -276 -157h-3 q-137 0 -206 63q-49 47 -80 154z" />
<glyph unicode="x" horiz-adv-x="1236" d="M-49 0l432 557l-397 528h456l176 -278l177 278h456l-397 -528l432 -557h-467l-201 307l-200 -307h-467z" />
<glyph unicode="y" horiz-adv-x="1298" d="M-49 1085h409l285 -688l301 688h402l-650 -1435h-401l170 350z" />
<glyph unicode="z" horiz-adv-x="1105" d="M4 209q0 135 100 211l469 358q16 12 17 19q0 10 -21 10h-526v278h858h2q199 0 199 -198q0 -141 -98 -217l-455 -348q-16 -12 -17 -23q0 -8 19 -8h532v-291h-901q-88 0 -135 63q-43 55 -43 146z" />
<glyph unicode="{" horiz-adv-x="673" d="M20 494v176q106 10 107 135v182q0 59 6 137q16 205 184 275q125 51 295 43v-266q-98 0 -148 -40t-50 -128v-226q0 -156 -105 -192v-17q104 -37 105 -192v-225q0 -88 50 -128t148 -40v-267q-170 -8 -295 43q-168 70 -184 275q-6 78 -6 137v182q0 125 -107 136z" />
<glyph unicode="|" horiz-adv-x="409" d="M102 -348v1864h205v-1864h-205z" />
<glyph unicode="}" horiz-adv-x="673" d="M61 -12q98 0 148.5 40t50.5 128v225q0 156 105 192v17q-104 37 -105 192v226q0 88 -50 128t-149 40v266q170 8 295 -43q168 -70 185 -275q6 -78 6 -137v-182q0 -125 106 -135v-176q-106 -10 -106 -136v-182q0 -59 -6 -137q-16 -205 -185 -275q-125 -51 -295 -43v267z" />
<glyph unicode="~" horiz-adv-x="1318" d="M102 817q80 111 181 166q82 45 163 45q74 0 152 -33l113 -47q68 -29 129 -28q88 0 145 51q41 37 68 84l164 -135q-80 -115 -174.5 -174.5t-202.5 -59.5q-78 0 -160 37l-96 43q-51 23 -125 22q-66 0 -119 -38q-39 -27 -74 -74z" />
<glyph unicode="&#xa4;" horiz-adv-x="1445" d="M102 186l152 154q-82 129 -82 283q0 164 86 297l-156 155l177 178l155 -155q131 84 291 84q162 0 289 -82l153 153l176 -178l-151 -153q86 -127 86 -293q0 -162 -86 -289l151 -154l-176 -176l-151 152q-127 -86 -291 -86q-162 0 -291 88l-155 -154zM522 629 q0 -82 59.5 -142.5t143.5 -60.5q82 0 142.5 60.5t60.5 142.5q0 84 -60.5 143t-142.5 59q-84 0 -143.5 -59t-59.5 -143z" />
<glyph unicode="&#xa6;" horiz-adv-x="368" d="M82 -129v614h205v-614h-205zM82 901v615h205v-615h-205z" />
<glyph unicode="&#xa7;" horiz-adv-x="1077" d="M102 582q0 156 117 237q55 39 133 49l-137 119q-94 82 -94 205q0 102 71.5 172t227.5 70h432v-267h-360h-54q-27 -4 -26 -26q0 -14 61 -66l369 -313q133 -112 133 -268q0 -160 -125 -230q-61 -35 -139 -35l120 -106q123 -109 123 -238q0 -123 -102 -190q-76 -49 -209 -49 h-420v266h322q63 0 80 2q37 8 37 35q0 14 -72 76l-365 311q-123 104 -123 246zM393 561q0 -63 43 -96l56 -43q47 -4 102 12q90 26 90 96q0 61 -37 88l-78 58q-59 4 -98 -10q-78 -29 -78 -105z" />
<glyph unicode="&#xa8;" horiz-adv-x="1435" d="M102 229v983q0 106 61.5 164t174.5 58h1030v-349h-709q-47 0 -70.5 -19t-23.5 -71v-108h783v-312h-783v-155q0 -35 20.5 -53.5t88.5 -18.5h700v-348h-1032q-115 0 -174 49q-66 55 -66 180zM270 1528v244h373v-244h-373zM817 1528v244h373v-244h-373z" />
<glyph unicode="&#xa9;" horiz-adv-x="1654" d="M102 719q0 217 39 342q57 178 215 282q106 70 228 93q80 14 243 14q164 0 244 -14q121 -23 227 -93q158 -104 215 -282q39 -125 39 -342q0 -215 -41 -342q-57 -184 -213 -287q-162 -106 -471 -106t-467.5 104.5t-216.5 288.5q-41 127 -41 342zM338 719q0 -336 160 -443 q123 -82 329 -81q207 0 330 81q160 107 160 443q0 338 -160 444q-115 76 -330 76t-329 -76q-160 -106 -160 -444zM469 725q0 197 76 283t225 86h311v-179h-213q-98 0 -131 -59q-18 -33 -18 -131q0 -90 18 -125q29 -55 115 -55h256v-183h-344q-160 0 -227.5 90.5t-67.5 272.5 z" />
<glyph unicode="&#xab;" horiz-adv-x="1302" d="M102 575q0 90 54 160l297 387l254 -196l-199 -285q-23 -33 -23 -66t23 -65l199 -285l-254 -196l-297 387q-53 70 -54 159zM668 575q0 51 61 132l209 272l262 -197l-110 -157q-23 -33 -23 -50q0 -16 23 -49l110 -157l-262 -197l-209 272q-61 80 -61 131z" />
<glyph unicode="&#xac;" horiz-adv-x="1449" d="M102 530v267h1246v-590h-287v323h-959z" />
<glyph unicode="&#xad;" d="M61 387v324h875v-324h-875z" />
<glyph unicode="&#xae;" horiz-adv-x="1093" d="M102 1008q0 223 88 321q104 117 357 117q231 0 337.5 -100t106.5 -338q0 -229 -101.5 -337t-342.5 -108q-123 0 -193 21q-106 29 -174 114q-78 100 -78 310zM240 1012q0 -168 45 -230q68 -92 262 -92q154 0 223 58q84 69 84 251t-60.5 251t-246.5 69q-182 0 -244.5 -66.5 t-62.5 -240.5zM317 797v383q0 33 12.5 46t104.5 13h180q82 0 109 -16q47 -29 47 -140q0 -152 -96 -151h-23l127 -135h-176l-78 106q-29 39 -28 70q0 66 53 65h24q29 0 39.5 9.5t10.5 25.5v23q0 16 -9.5 26.5t-48.5 10.5h-57q-33 0 -40 -5.5t-7 -44.5v-286h-144z" />
<glyph unicode="&#xb0;" horiz-adv-x="610" d="M61 1329q0 102 72 173t172 71q102 0 173 -71t71 -173q0 -100 -70.5 -172t-173.5 -72q-100 0 -172 72t-72 172zM184 1329q0 -51 35 -86t86 -35t86 35t35 86t-35 86t-86 35t-86 -35t-35 -86z" />
<glyph unicode="&#xb1;" horiz-adv-x="1449" d="M102 47v266h1246v-266h-1246zM102 922v266h484v481h278v-481h484v-266h-484v-482h-278v482h-484z" />
<glyph unicode="&#xb5;" horiz-adv-x="1372" d="M102 -362v1447h404v-614q0 -94 45 -145.5t133 -51.5q76 0 125 48q57 55 57 143v620h404v-1085h-383v150q-51 -162 -205 -162q-152 0 -197 147v-497h-383z" />
<glyph unicode="&#xb6;" horiz-adv-x="1560" d="M102 999q0 254 136 361q94 74 290 74h971v-267h-133v-1515h-279v1515h-126v-1515h-279v940h-193q-213 0 -309 125q-78 100 -78 282zM389 1012q0 -53 21 -90q35 -63 125 -64h147v309h-141q-82 0 -117 -43t-35 -112z" />
<glyph unicode="&#xb7;" horiz-adv-x="610" d="M102 512v369h406v-369h-406z" />
<glyph unicode="&#xb8;" horiz-adv-x="1239" d="M37 530q0 211 6 269q16 127 83 194.5t216 89.5q96 14 295 15q193 0 274 -11q115 -16 174 -63q117 -95 117 -365q0 -145 -65 -198q-39 -31 -107 -31h-592q-4 -53 18.5 -89t75.5 -46q27 -4 105 -4h526v-291h-686q-156 0 -221 18q-106 29 -162.5 121t-56.5 391zM180 1225 v241h355v-241h-355zM438 684h297q66 0 66 57q0 72 -123 80q-31 2 -57 2q-125 0 -157 -30.5t-26 -108.5zM715 1225v241h354v-241h-354z" />
<glyph unicode="&#xb9;" horiz-adv-x="2469" d="M102 0v1196q0 129 93 197q82 57 213 57q203 0 288 -133l478 -737q23 -35 36 -35q23 0 23 35v854h356v-1194q0 -129 -86 -197q-78 -59 -209 -59q-205 0 -297 141l-473 731q-23 35 -37 35q-29 0 -28 -41v-850h-357zM1757 1028v170q0 141 57.5 196.5t247.5 55.5t247.5 -55.5 t57.5 -196.5v-170q0 -143 -56 -197.5t-249 -54.5q-190 0 -247.5 53.5t-57.5 198.5zM1759 471v164h602v-164h-602zM1942 1096q0 -100 25.5 -130t94.5 -30q84 0 103 43q18 37 18 117v39q0 96 -23.5 127.5t-97.5 31.5t-97 -31.5t-23 -127.5v-39z" />
<glyph unicode="&#xbb;" horiz-adv-x="1302" d="M102 369l111 157q23 33 23 49t-23 50l-111 157l263 197l208 -272q62 -81 62 -132t-62 -131l-208 -272zM596 225l199 285q23 33 22 65q0 33 -22 66l-199 285l254 196l297 -387q53 -70 53 -160t-53 -159l-297 -387z" />
<glyph unicode="&#xc0;" horiz-adv-x="1634" d="M-41 0l530 1276q37 90 99 127q76 47 229 47q125 0 191 -27q92 -39 137 -147l530 -1276h-487l-113 295h-516l-113 -295h-487zM670 623h295l-129 362q-10 31 -19 31q-8 0 -18 -31z" />
<glyph unicode="&#xc1;" horiz-adv-x="1605" d="M102 201v1003q0 229 224 230h1134v-357h-807q-59 0 -73.5 -19.5t-14.5 -66.5v-102h662q154 0 235.5 -94t81.5 -338q0 -242 -80 -346q-84 -111 -233 -111h-928q-88 0 -144.5 56.5t-56.5 144.5zM565 451q0 -68 25 -84q14 -10 74 -11h272q78 0 105.5 26t27.5 89 q0 59 -31.5 83t-101.5 24h-371v-127z" />
<glyph unicode="&#xc2;" horiz-adv-x="1587" d="M102 227v975q0 102 50 160q61 72 161 72h779q221 0 311 -94.5t90 -307.5q0 -145 -72 -223q-59 -66 -143 -72v-8q102 -8 170 -74q78 -76 78 -254q0 -209 -86 -301q-61 -68 -150 -88q-53 -12 -172 -12h-749q-154 0 -213 68q-53 61 -54 159zM565 463q0 -68 17.5 -87.5 t85.5 -19.5h245q98 0 124 30t26 83q0 37 -19 61q-31 41 -118 41h-361v-108zM565 883h344q90 0 113 43q12 24 12 61t-24.5 63.5t-102.5 26.5h-264q-41 0 -59.5 -16.5t-18.5 -61.5v-116z" />
<glyph unicode="&#xc3;" horiz-adv-x="1376" d="M102 0v1171q0 131 58 193q66 70 170 70h1067v-357h-735q-68 0 -82.5 -18.5t-14.5 -73.5v-985h-463z" />
<glyph unicode="&#xc4;" horiz-adv-x="1675" d="M-20 0v356h141l387 932q68 162 330 162t329 -162l385 -932h144v-356h-1716zM586 356h504l-230 623q-14 37 -22 37t-23 -37z" />
<glyph unicode="&#xc5;" horiz-adv-x="1415" d="M102 229v983q0 106 61.5 164t174.5 58h1030v-349h-709q-47 0 -70.5 -19t-23.5 -71v-108h783v-312h-783v-155q0 -35 20.5 -53.5t88.5 -18.5h700v-348h-1032q-115 0 -174 49q-66 55 -66 180z" />
<glyph unicode="&#xc6;" horiz-adv-x="2457" d="M-41 0l469 606q70 90 70 131q0 27 -56 107l-409 590h532l322 -533q65 -109 65 -160q0 -66 -84 -196l-348 -545h-561zM997 0v1434h463v-1434h-463zM1505 741q0 53 66 160l330 533h532l-418 -590q-55 -78 -55 -107q0 -41 70 -131l469 -606h-562l-348 545q-84 131 -84 196z " />
<glyph unicode="&#xc7;" horiz-adv-x="1449" d="M82 0v356h643q117 0 145 17q43 25 43 92q0 59 -39 86q-27 18 -147 18h-618v312h608q119 0 146.5 25.5t27.5 82.5q0 61 -39 78q-23 10 -129 10h-633v357h795q141 0 205 -13q113 -20 178 -88q82 -86 82 -295q0 -168 -80 -243q-53 -49 -129 -64v-8q141 6 205 -105 q43 -73 43 -231q0 -236 -123 -324q-68 -49 -197 -59q-37 -4 -195 -4h-792z" />
<glyph unicode="&#xc8;" horiz-adv-x="1765" d="M102 328v1106h471l-20 -822v-22q0 -49 25 -49q12 0 40 51l396 690q96 168 309 168q340 0 340 -354v-1096h-471l20 842q2 53 -20 53q-12 0 -53 -70l-408 -696q-86 -145 -309 -145q-190 0 -266 108q-53 78 -54 236z" />
<glyph unicode="&#xc9;" horiz-adv-x="1765" d="M102 328v1106h471l-20 -822q-2 -72 25 -71q12 0 40 51l396 690q96 168 309 168q340 0 340 -354v-1096h-471l20 842q2 53 -20 53q-12 0 -53 -70l-408 -696q-86 -145 -309 -145q-190 0 -266 108q-53 78 -54 236zM344 1819h289q29 -66 74 -101q66 -51 170 -51q109 0 172 51 q39 31 71 101h289q-61 -180 -182 -271q-131 -98 -350 -98t-351 98q-121 90 -182 271z" />
<glyph unicode="&#xca;" horiz-adv-x="1665" d="M143 0v1434h463v-1434h-463zM651 733q0 68 66 160l385 541h549l-498 -592q-59 -70 -59 -107q0 -47 75 -129l557 -606h-557l-434 555q-84 106 -84 178z" />
<glyph unicode="&#xcb;" horiz-adv-x="1597" d="M-61 0l550 1303q61 147 310 147q248 0 309 -147l551 -1303h-492l-346 948q-16 35 -22 35q-4 0 -23 -35l-346 -948h-491z" />
<glyph unicode="&#xcc;" horiz-adv-x="2193" d="M102 0v1198q0 252 353 252q125 0 200 -35q117 -55 166 -203l232 -696q23 -66 43 -65q20 0 43 65l231 696q49 147 166 203q76 35 203 35q352 0 352 -252v-1198h-467l16 872q0 47 -18 48q-12 0 -29 -52l-221 -692q-31 -96 -74 -135q-66 -57 -202 -57q-137 0 -203 57 q-43 39 -74 135l-221 692q-16 51 -29 52q-16 0 -16 -48l14 -872h-465z" />
<glyph unicode="&#xcd;" horiz-adv-x="1650" d="M102 0v1434h463v-508h520v508h463v-1434h-463v569h-520v-569h-463z" />
<glyph unicode="&#xce;" horiz-adv-x="1699" d="M61 717q0 199 23 311q37 180 139.5 274.5t288.5 127.5q121 20 338 20t338 -20q186 -33 288.5 -127.5t139.5 -274.5q22 -112 22 -311q0 -197 -22 -309q-37 -180 -138.5 -275.5t-291.5 -128.5q-119 -20 -336 -20t-336 20q-190 33 -291.5 128t-138.5 276q-23 113 -23 309z M537 717q0 -190 53 -273q43 -66 108 -88q51 -16 152 -16q102 0 151 16q63 23 109 88q53 78 53 273q0 113 -6 153q-10 63 -47 119q-45 66 -109 88q-49 16 -151 17q-100 0 -152 -17q-66 -23 -108 -88q-53 -80 -53 -272z" />
<glyph unicode="&#xcf;" horiz-adv-x="1638" d="M102 0v1227q0 90 58.5 148.5t212.5 58.5h897q150 0 211 -62q55 -55 55 -145v-1227h-463v995q0 53 -20.5 74t-71.5 21h-324q-51 0 -71.5 -20.5t-20.5 -74.5v-995h-463z" />
<glyph unicode="&#xd0;" horiz-adv-x="1611" d="M102 0v1163q0 131 58 197q66 74 190 74h793q207 0 301 -101q106 -115 106 -391q0 -340 -129 -450q-90 -78 -252 -78h-604v-414h-463zM565 770h332q119 0 154.5 38t35.5 124q0 78 -39.5 111.5t-146.5 33.5h-256q-80 0 -80 -84v-223z" />
<glyph unicode="&#xd1;" horiz-adv-x="1357" d="M61 698q0 389 125 549q147 186 502 187h606v-357h-383q-143 0 -196 -14q-88 -20 -131 -98q-47 -84 -47 -258q0 -172 34 -238q41 -76 140 -98q59 -14 209 -15h397v-356h-635q-180 0 -285 33q-123 41 -204 143q-131 164 -132 522z" />
<glyph unicode="&#xd2;" horiz-adv-x="1445" d="M-20 1077v357h1486v-357h-512v-1077h-462v1077h-512z" />
<glyph unicode="&#xd3;" horiz-adv-x="1538" d="M-41 1434h516l299 -611l301 611h504l-772 -1434h-504l229 408z" />
<glyph unicode="&#xd4;" horiz-adv-x="2039" d="M61 735q0 291 78 420q57 96 172 127q80 23 258 23h219v129h463v-129h219q178 0 259 -23q115 -31 172 -127q77 -129 77 -420t-63 -418q-53 -106 -166 -143q-78 -25 -221 -24h-277v-150h-463v150h-276q-143 0 -221 24q-113 37 -166 143q-63 127 -64 418zM537 725 q0 -74 16 -119q39 -100 195 -100h40v442h-57q-139 0 -176 -84q-18 -41 -18 -139zM1251 506h41q160 0 199 108q12 41 12 111q0 137 -47 180t-147 43h-58v-442z" />
<glyph unicode="&#xd5;" horiz-adv-x="1544" d="M-41 0l543 727l-527 707h553l244 -383l244 383h553l-527 -707l543 -727h-553l-260 403l-260 -403h-553z" />
<glyph unicode="&#xd6;" horiz-adv-x="1724" d="M102 262v1172h463v-945q0 -88 20.5 -110.5t92.5 -22.5h412v1078h462v-1078h193v-356h-1364q-78 0 -107 4q-57 10 -98 49q-74 68 -74 209z" />
<glyph unicode="&#xd7;" horiz-adv-x="1626" d="M82 963v471h463v-357q0 -102 28.5 -127.5t137.5 -25.5h350v510h463v-1434h-463v567h-649q-190 0 -275 150q-55 98 -55 246z" />
<glyph unicode="&#xd8;" horiz-adv-x="2318" d="M102 215v1219h463v-977q0 -57 17.5 -79t66.5 -22h279v1078h463v-1078h278q59 0 74 35q10 20 10 66v977h463v-1219q0 -102 -58.5 -158.5t-166.5 -56.5h-1663q-104 0 -165 56.5t-61 158.5z" />
<glyph unicode="&#xd9;" horiz-adv-x="2387" d="M102 215v1219h463v-977q0 -57 17.5 -79t66.5 -22h279v1078h463v-1078h362v1078h463v-1078h192v-356h-2080q-104 0 -165 56.5t-61 158.5z" />
<glyph unicode="&#xda;" horiz-adv-x="1777" d="M-20 1077v357h516q115 0 178 -70q57 -61 57 -158v-291h643q209 0 287 -163q55 -115 55 -301q0 -211 -67 -312q-94 -139 -287 -139h-889q-84 0 -144.5 68.5t-60.5 201.5v711q0 53 -17.5 74.5t-51.5 21.5h-219zM731 442q0 -47 12 -63q16 -23 76 -23h240q115 0 135 13 q47 26 47 114q0 80 -55 101q-20 8 -119 8h-336v-150z" />
<glyph unicode="&#xdb;" horiz-adv-x="2246" d="M102 270v1164h463v-519h643q209 0 287 -163q55 -115 55 -301q0 -211 -67 -312q-94 -139 -287 -139h-889q-84 0 -144.5 68.5t-60.5 201.5zM565 442q0 -47 13 -63q16 -23 75 -23h240q115 0 135 13q47 26 47 114q0 80 -55 101q-20 8 -119 8h-336v-150zM1681 0v1434h463 v-1434h-463z" />
<glyph unicode="&#xdc;" horiz-adv-x="1611" d="M102 270v1164h463v-519h643q209 0 287 -163q55 -115 55 -301q0 -211 -67 -312q-94 -139 -287 -139h-889q-84 0 -144.5 68.5t-60.5 201.5zM565 442q0 -47 13 -63q16 -23 75 -23h240q115 0 135 13q47 26 47 114q0 80 -55 101q-20 8 -119 8h-336v-150z" />
<glyph unicode="&#xdd;" horiz-adv-x="1396" d="M61 0v356h428q166 0 248 33q127 51 123 180h-751v324h751q-18 94 -104 139t-240 45h-436v357h686q283 0 426 -145.5t143 -559.5q0 -236 -32 -367q-37 -154 -136 -239q-139 -123 -401 -123h-705z" />
<glyph unicode="&#xde;" horiz-adv-x="2394" d="M102 0v1434h463v-541h195q4 268 158 410q102 94 290 127q119 20 336 20t338 -20q186 -33 288.5 -127.5t139.5 -274.5q23 -112 23 -311q0 -197 -23 -309q-37 -180 -138 -275.5t-292 -128.5q-119 -20 -336 -20t-336 20q-190 33 -290 127q-78 72 -121 201q-41 117 -41 243 h-191v-575h-463zM1231 717q0 -190 53 -273q43 -66 109 -88q51 -16 151 -16q102 0 152 16q63 23 108 88q54 78 54 273q0 113 -7 153q-10 63 -47 119q-45 66 -108 88q-49 16 -152 17q-100 0 -151 -17q-66 -23 -109 -88q-53 -80 -53 -272z" />
<glyph unicode="&#xdf;" horiz-adv-x="1619" d="M41 0l399 428h-61q-166 0 -244 137q-63 113 -63 389q0 229 69 340q55 86 152 117q68 23 192 23h824q96 0 157 -66q51 -55 52 -168v-1200h-463v983q0 47 -25.5 70.5t-73.5 23.5h-290q-70 0 -100.5 -40t-30.5 -115q0 -80 16 -105q33 -61 123 -61h94q209 0 209 -142v-32 q0 -82 -88 -199l-291 -383h-557z" />
<glyph unicode="&#xe0;" horiz-adv-x="1261" d="M37 362q0 203 94 275q61 47 193 47h475v16q0 45 -21 72q-33 43 -123 43h-544v270h718q172 0 269 -94q102 -100 102 -305v-455q0 -119 -54 -175t-183 -56h-639q-135 0 -199 57q-88 80 -88 305zM438 356q0 -33 18.5 -49t53.5 -16h209q41 0 60.5 15t19.5 52v68h-285 q-39 0 -57.5 -16.5t-18.5 -53.5z" />
<glyph unicode="&#xe1;" horiz-adv-x="1284" d="M61 449v557q0 160 66 260q57 86 164 131q90 37 184 37h715v-275h-477q-141 0 -195 -43q-59 -49 -55 -133h344q268 0 369 -143q71 -103 71 -332q0 -254 -78 -369q-70 -102 -204 -131q-90 -20 -320 -20q-217 0 -313 22q-152 33 -215 140q-55 92 -56 299zM463 426 q0 -106 94 -135q37 -12 84 -12q88 0 129 24q68 41 68 184q0 115 -23 160q-39 78 -133 78h-219v-299z" />
<glyph unicode="&#xe2;" horiz-adv-x="1261" d="M61 199v667q0 117 68 172q57 47 209 47h514q113 0 160 -8q92 -14 141 -65q66 -68 66 -207q0 -127 -59.5 -183.5t-158.5 -62.5v-4q102 -8 163 -66.5t61 -185.5q0 -162 -76 -233q-51 -47 -133 -62q-47 -8 -158 -8h-530q-154 0 -207 45q-59 49 -60 154zM463 356 q0 -33 13 -49t50 -16h191q63 0 84.5 19t21.5 48q0 39 -22.5 55.5t-85.5 16.5h-252v-74zM463 680h244q68 0 91 16.5t23 57.5q0 29 -22.5 43t-79.5 14h-174q-82 0 -82 -70v-61z" />
<glyph unicode="&#xe3;" horiz-adv-x="1087" d="M61 0v879q0 98 31 141q47 66 137 65h899v-274h-589q-33 0 -54.5 -23.5t-21.5 -72.5v-715h-402z" />
<glyph unicode="&#xe4;" horiz-adv-x="1318" d="M-20 0v291h108l326 686q57 121 245 121t246 -121l326 -686h108v-291h-1359zM469 291h381l-172 446q-10 23 -19 23q-6 0 -18 -23z" />
<glyph unicode="&#xe5;" horiz-adv-x="1239" d="M37 530q0 211 6 269q16 127 83 194.5t216 89.5q96 14 295 15q193 0 274 -11q115 -16 174 -63q117 -95 117 -365q0 -145 -65 -198q-39 -31 -107 -31h-592q-4 -53 18.5 -89t75.5 -46q27 -4 105 -4h526v-291h-686q-156 0 -221 18q-106 29 -162.5 121t-56.5 391zM438 684h297 q66 0 66 57q0 72 -123 80q-31 2 -57 2q-125 0 -157 -30.5t-26 -108.5z" />
<glyph unicode="&#xe6;" horiz-adv-x="1921" d="M-41 0l309 457q51 76 51 104q0 16 -51 101l-260 423h441l215 -387q61 -110 61 -147t-51 -119l-271 -432h-444zM770 0v1085h381v-1085h-381zM1196 551q0 37 61 147l216 387h440l-260 -423q-51 -84 -51 -101q0 -29 51 -104l309 -457h-444l-271 432q-51 82 -51 119z" />
<glyph unicode="&#xe7;" horiz-adv-x="1189" d="M61 0v291h572q115 0 115 67q0 72 -119 72h-537v250h539q113 0 112 65q0 66 -110 66h-551v274h719q193 0 266.5 -65.5t73.5 -206.5q0 -121 -59.5 -186.5t-157.5 -61.5v-8q96 4 160.5 -67.5t64.5 -194.5q0 -160 -88 -234q-74 -61 -258 -61h-742z" />
<glyph unicode="&#xe8;" horiz-adv-x="1374" d="M61 193v892h402l-21 -563q-2 -31 19 -30q12 0 37 30l393 494q66 82 188 82q233 0 234 -217v-881h-402l21 563q2 33 -17 33q-10 0 -36 -33l-385 -481q-47 -59 -95 -78q-37 -16 -108 -16q-229 0 -230 205z" />
<glyph unicode="&#xe9;" horiz-adv-x="1374" d="M61 193v892h402l-21 -563q-2 -31 19 -30q12 0 37 30l393 494q66 82 188 82q233 0 234 -217v-881h-402l21 563q2 33 -17 33q-10 0 -36 -33l-385 -481q-47 -59 -95 -78q-37 -16 -108 -16q-229 0 -230 205zM223 1475h264q14 -51 50 -89q53 -57 149 -57t150 57q35 37 49 89 h264q-35 -166 -137 -258q-109 -98 -326 -99q-217 0 -326 99q-102 92 -137 258z" />
<glyph unicode="&#xea;" horiz-adv-x="1263" d="M61 0v1085h402v-1085h-402zM504 557q0 49 65 143l267 385h442l-322 -413q-59 -76 -59 -113t47 -94l381 -465h-451l-317 436q-53 74 -53 121z" />
<glyph unicode="&#xeb;" horiz-adv-x="1372" d="M-20 0l481 1001q47 96 225 97q178 0 225 -97l482 -1001h-402l-284 700q-12 29 -21 29q-8 0 -20 -29l-285 -700h-401z" />
<glyph unicode="&#xec;" horiz-adv-x="1679" d="M61 0v891q0 100 91 158q80 49 198 49q219 0 281 -168l170 -471q16 -47 39 -47t39 47l170 471q61 168 280 168q119 0 199 -49q90 -57 90 -158v-891h-401l20 586q0 25 -14 24q-12 0 -23 -28l-172 -488q-37 -106 -188 -106q-152 0 -189 106l-172 486q-10 29 -22 28 q-14 0 -15 -24l21 -584h-402z" />
<glyph unicode="&#xed;" horiz-adv-x="1282" d="M61 0v1085h402v-380h356v380h402v-1085h-402v414h-356v-414h-402z" />
<glyph unicode="&#xee;" horiz-adv-x="1327" d="M37 543q0 317 143 444q125 111 484 111q358 0 483 -111q143 -127 143 -444t-143 -445q-125 -111 -483 -110q-358 0 -484 110q-143 127 -143 445zM446 543q0 -135 39 -191q51 -74 179 -73q166 0 202 131q15 51 15 133q0 141 -39 194q-51 70 -178 70t-179 -70 q-39 -53 -39 -194z" />
<glyph unicode="&#xef;" horiz-adv-x="1290" d="M61 0v877q0 98 52 149q57 59 194 59h676q137 0 195 -59q51 -51 51 -149v-877h-402v743q0 37 -18 52.5t-53 15.5h-221q-33 0 -52.5 -15.5t-19.5 -52.5v-743h-402z" />
<glyph unicode="&#xf0;" horiz-adv-x="1259" d="M61 -348v1227q0 115 74 168q55 39 154 38h504q205 0 313 -112q117 -122 117 -398q0 -301 -88 -425q-104 -150 -375 -150h-297v-348h-402zM463 291h176q104 0 149 84q25 47 25 170q0 111 -18 157q-37 92 -144 93h-141q-18 0 -32.5 -14.5t-14.5 -37.5v-452z" />
<glyph unicode="&#xf1;" horiz-adv-x="1128" d="M37 528q0 319 121 445q109 113 327 112h584v-274h-397q-170 0 -211 -145q-14 -51 -15 -129q0 -135 33 -189q45 -74 215 -74h398v-274h-627q-223 0 -332 129q-96 113 -96 399z" />
<glyph unicode="&#xf2;" horiz-adv-x="1212" d="M0 799v286h1212v-286h-405v-799h-401v799h-406z" />
<glyph unicode="&#xf3;" horiz-adv-x="1355" d="M-20 1085h428l276 -665l291 665h401l-649 -1435h-401l170 350z" />
<glyph unicode="&#xf4;" horiz-adv-x="1859" d="M37 532q0 264 76 388q102 166 358 165h260v349h397v-349h261q256 0 358 -165q76 -124 76 -388t-90 -389q-102 -143 -353 -143h-252v-348h-397v348h-252q-250 0 -352 143q-90 125 -90 389zM438 537q0 -115 32 -171.5t101 -74.5q35 -8 121 -8h39v520h-43q-170 0 -219 -80 q-31 -49 -31 -186zM1128 283h39q96 0 142 14q70 25 94 98q18 52 18 142q0 137 -30 186q-49 80 -220 80h-43v-520z" />
<glyph unicode="&#xf5;" horiz-adv-x="1294" d="M-20 0l432 557l-398 528h457l176 -278l176 278h457l-397 -528l432 -557h-467l-201 307l-201 -307h-466z" />
<glyph unicode="&#xf6;" horiz-adv-x="1372" d="M61 168v917h402v-710q0 -47 18.5 -65.5t67.5 -18.5h272v794h402v-794h170v-291h-1160q-76 0 -120 41q-51 47 -52 127z" />
<glyph unicode="&#xf7;" horiz-adv-x="1282" d="M53 715v370h402v-225q0 -92 16 -119q29 -45 131 -45h217v389h402v-1085h-402v389h-493q-135 0 -215 111q-57 80 -58 215z" />
<glyph unicode="&#xf8;" horiz-adv-x="1769" d="M61 193v892h398v-720q0 -37 12 -53.5t43 -16.5h172v790h397v-790h172q31 0 43.5 16.5t12.5 53.5v720h397v-892q0 -100 -43 -144q-51 -49 -164 -49h-1233q-117 0 -162 47t-45 146z" />
<glyph unicode="&#xf9;" horiz-adv-x="1880" d="M61 193v892h398v-718q0 -39 11 -55.5t44 -16.5h170v790h397v-790h228v790h397v-790h174v-295h-1612q-121 0 -164 49t-43 144z" />
<glyph unicode="&#xfa;" horiz-adv-x="1421" d="M0 809v276h438q66 0 115 -41q66 -53 65 -153v-168h490q137 0 206.5 -89t69.5 -300q0 -188 -84 -271q-66 -63 -194 -63h-674q-106 0 -160.5 56.5t-54.5 158.5v514q0 37 -17.5 58.5t-56.5 21.5h-143zM618 381q0 -90 87 -90h163q59 0 83 16.5t24 69.5q0 47 -22.5 63.5 t-84.5 16.5h-250v-76z" />
<glyph unicode="&#xfb;" horiz-adv-x="1830" d="M61 215v870h402v-362h489q137 0 207 -89t70 -300q0 -188 -84 -271q-66 -63 -195 -63h-674q-106 0 -160.5 56.5t-54.5 158.5zM463 381q0 -90 86 -90h164q59 0 82.5 16.5t23.5 69.5q0 47 -20 63q-33 16 -86 17h-250v-76zM1368 0v1085h401v-1085h-401z" />
<glyph unicode="&#xfc;" horiz-adv-x="1265" d="M61 215v870h402v-362h489q137 0 207 -89t70 -300q0 -188 -84 -271q-66 -63 -195 -63h-674q-106 0 -160.5 56.5t-54.5 158.5zM463 381q0 -90 86 -90h164q59 0 82.5 16.5t23.5 69.5q0 47 -20 63q-33 16 -86 17h-250v-76z" />
<glyph unicode="&#xfd;" horiz-adv-x="1136" d="M37 0v291h377q205 0 252 59q25 31 24 84h-624v254h624q-8 53 -47 86q-51 41 -221 41h-371v270h651q193 0 295.5 -118.5t102.5 -405.5q0 -303 -96 -428q-102 -133 -363 -133h-604z" />
<glyph unicode="&#xfe;" horiz-adv-x="1902" d="M61 0v1085h390v-399h155q6 205 121 305q78 70 225 92q90 14 267 15q375 0 491 -107q131 -118 131 -442q0 -328 -131 -451q-117 -111 -491 -110q-365 0 -492 110.5t-121 333.5h-155v-432h-390zM999 539q0 -131 35 -183q53 -78 185 -77q131 0 184 77q37 54 37 183 q0 143 -35 194q-49 74 -186 74q-135 0 -187 -74q-33 -47 -33 -194z" />
<glyph unicode="&#xff;" horiz-adv-x="1271" d="M20 0l293 371q10 10 11 22q0 12 -27 13h-27q-92 0 -155 79q-72 92 -72 273q0 178 92 262q72 66 174 65h686q92 0 148 -47q68 -57 67 -190v-848h-401v719q0 57 -19.5 74.5t-74.5 17.5h-180q-43 0 -67 -19.5t-24 -62.5t18.5 -59.5t63.5 -16.5h99q131 0 131 -112 q0 -78 -56 -162l-249 -379h-431z" />
<glyph unicode="&#x401;" horiz-adv-x="1435" d="M102 229v983q0 106 61.5 164t174.5 58h1030v-349h-709q-47 0 -70.5 -19t-23.5 -71v-108h783v-312h-783v-155q0 -35 20.5 -53.5t88.5 -18.5h700v-348h-1032q-115 0 -174 49q-66 55 -66 180zM270 1528v244h373v-244h-373zM817 1528v244h373v-244h-373z" />
<glyph unicode="&#x402;" horiz-adv-x="1832" d="M-41 1077v357h1389v-357h-596v-180h645q186 0 272 -129q62 -92 62 -293q0 -266 -80 -366q-86 -109 -275 -109h-377v356h123q94 0 119 33q14 18 14 82q0 68 -25.5 93.5t-82.5 25.5h-395v-590h-463v1077h-330z" />
<glyph unicode="&#x403;" horiz-adv-x="1294" d="M0 0v1171q0 131 57 193q66 70 170 70h1067v-357h-735q-68 0 -82 -18.5t-14 -73.5v-985h-463zM326 1737l393 325l178 -223l-393 -323z" />
<glyph unicode="&#x404;" horiz-adv-x="1273" d="M0 729q0 414 143.5 559.5t425.5 145.5h686v-357h-436q-154 0 -239.5 -45t-104.5 -139h752v-324h-752q-4 -129 123 -180q82 -33 248 -33h428v-356h-705q-262 0 -401 123q-98 86 -135 239q-33 131 -33 367z" />
<glyph unicode="&#x405;" horiz-adv-x="1437" d="M41 1057q0 197 90 287t246 90h946v-357h-729q-59 0 -76 -8q-23 -10 -22 -39q0 -45 120 -78l484 -129q133 -35 198 -100q99 -97 99 -328q0 -193 -70 -284q-55 -72 -139 -97q-51 -14 -150 -14h-983v356h795q80 0 80 45t-92 72l-555 156q-104 29 -164 108q-78 104 -78 320z " />
<glyph unicode="&#x406;" horiz-adv-x="667" d="M102 0v1434h463v-1434h-463z" />
<glyph unicode="&#x407;" horiz-adv-x="806" d="M-41 1528v264h365v-264h-365zM172 0v1434h463v-1434h-463zM483 1528v264h365v-264h-365z" />
<glyph unicode="&#x408;" horiz-adv-x="1048" d="M-41 0v356h207q156 0 227 58q90 72 90 270v750h463v-906q0 -246 -131 -378q-147 -150 -387 -150h-469z" />
<glyph unicode="&#x409;" horiz-adv-x="2650" d="M-41 0l823 1329q43 70 118 95.5t245 25.5q244 0 331 -49t87 -189v-317h643q211 0 286 -143q56 -103 56 -306q0 -207 -68 -307q-94 -139 -287 -139h-888q-84 0 -144.5 68.5t-60.5 201.5v777q0 37 -23 36q-14 0 -26 -22l-566 -1061h-526zM1563 442q0 -45 14 -65.5t74 -20.5 h239q113 0 135 13q48 26 48 100t-54 94q-23 8 -121 8h-335v-129z" />
<glyph unicode="&#x40a;" horiz-adv-x="2676" d="M143 0v1434h463v-508h520v508h463v-508h643q207 0 287 -174q55 -120 55 -306q0 -209 -67 -307q-96 -139 -287 -139h-889q-84 0 -144.5 68.5t-60.5 201.5v303h-520v-573h-463zM1589 442q0 -43 13.5 -64.5t74.5 -21.5h240q113 0 135 13q47 26 47 100q0 76 -53 96 q-23 8 -121 8h-336v-131z" />
<glyph unicode="&#x40b;" horiz-adv-x="1820" d="M-41 1077v357h1389v-357h-596v-180h665q139 0 213 -61q88 -74 88 -244v-592h-463v485q0 59 -26.5 82t-95.5 23h-381v-590h-463v1077h-330z" />
<glyph unicode="&#x40c;" horiz-adv-x="1583" d="M0 0v1434h463v-1434h-463zM436 1737l393 325l179 -223l-394 -323zM508 733q0 68 65 160l385 541h549l-497 -592q-59 -70 -60 -107q0 -47 76 -129l557 -606h-557l-434 555q-84 106 -84 178z" />
<glyph unicode="&#x40e;" horiz-adv-x="1619" d="M0 1434h516l299 -611l301 611h504l-772 -1434h-504l229 408zM276 1864h289q29 -66 74 -101q66 -51 170 -51q109 0 172 51q39 31 72 101h288q-61 -180 -182 -271q-131 -98 -350 -98t-350 98q-121 90 -183 271z" />
<glyph unicode="&#x40f;" horiz-adv-x="1650" d="M102 246v1188h463v-992q0 -39 13 -59q16 -27 63 -27h369q43 0 63 27q12 16 12 59v992h463v-1188q0 -133 -66.5 -189.5t-172.5 -56.5h-252v-348h-463v348h-252q-106 0 -170 53q-70 59 -70 193z" />
<glyph unicode="&#x410;" horiz-adv-x="1634" d="M-41 0l530 1276q37 90 99 127q76 47 229 47q125 0 191 -27q92 -39 137 -147l530 -1276h-487l-113 295h-516l-113 -295h-487zM670 623h295l-129 362q-10 31 -19 31q-8 0 -18 -31z" />
<glyph unicode="&#x411;" horiz-adv-x="1605" d="M102 201v1003q0 229 224 230h1134v-357h-807q-59 0 -73.5 -19.5t-14.5 -66.5v-102h662q154 0 235.5 -94t81.5 -338q0 -242 -80 -346q-84 -111 -233 -111h-928q-88 0 -144.5 56.5t-56.5 144.5zM565 451q0 -68 25 -84q14 -10 74 -11h272q78 0 105.5 26t27.5 89 q0 59 -31.5 83t-101.5 24h-371v-127z" />
<glyph unicode="&#x412;" horiz-adv-x="1587" d="M102 227v975q0 102 50 160q61 72 161 72h779q221 0 311 -94.5t90 -307.5q0 -145 -72 -223q-59 -66 -143 -72v-8q102 -8 170 -74q78 -76 78 -254q0 -209 -86 -301q-61 -68 -150 -88q-53 -12 -172 -12h-749q-154 0 -213 68q-53 61 -54 159zM565 463q0 -68 17.5 -87.5 t85.5 -19.5h245q98 0 124 30t26 83q0 37 -19 61q-31 41 -118 41h-361v-108zM565 883h344q90 0 113 43q12 24 12 61t-24.5 63.5t-102.5 26.5h-264q-41 0 -59.5 -16.5t-18.5 -61.5v-116z" />
<glyph unicode="&#x413;" horiz-adv-x="1376" d="M102 0v1171q0 131 58 193q66 70 170 70h1067v-357h-735q-68 0 -82.5 -18.5t-14.5 -73.5v-985h-463z" />
<glyph unicode="&#x414;" horiz-adv-x="1675" d="M-20 0v356h141l387 932q68 162 330 162t329 -162l385 -932h144v-356h-1716zM586 356h504l-230 623q-14 37 -22 37t-23 -37z" />
<glyph unicode="&#x415;" horiz-adv-x="1415" d="M102 229v983q0 106 61.5 164t174.5 58h1030v-349h-709q-47 0 -70.5 -19t-23.5 -71v-108h783v-312h-783v-155q0 -35 20.5 -53.5t88.5 -18.5h700v-348h-1032q-115 0 -174 49q-66 55 -66 180z" />
<glyph unicode="&#x416;" horiz-adv-x="2457" d="M-41 0l469 606q70 90 70 131q0 27 -56 107l-409 590h532l322 -533q65 -109 65 -160q0 -66 -84 -196l-348 -545h-561zM997 0v1434h463v-1434h-463zM1505 741q0 53 66 160l330 533h532l-418 -590q-55 -78 -55 -107q0 -41 70 -131l469 -606h-562l-348 545q-84 131 -84 196z " />
<glyph unicode="&#x417;" horiz-adv-x="1449" d="M82 0v356h643q117 0 145 17q43 25 43 92q0 59 -39 86q-27 18 -147 18h-618v312h608q119 0 146.5 25.5t27.5 82.5q0 61 -39 78q-23 10 -129 10h-633v357h795q141 0 205 -13q113 -20 178 -88q82 -86 82 -295q0 -168 -80 -243q-53 -49 -129 -64v-8q141 6 205 -105 q43 -73 43 -231q0 -236 -123 -324q-68 -49 -197 -59q-37 -4 -195 -4h-792z" />
<glyph unicode="&#x418;" horiz-adv-x="1765" d="M102 328v1106h471l-20 -822v-22q0 -49 25 -49q12 0 40 51l396 690q96 168 309 168q340 0 340 -354v-1096h-471l20 842q2 53 -20 53q-12 0 -53 -70l-408 -696q-86 -145 -309 -145q-190 0 -266 108q-53 78 -54 236z" />
<glyph unicode="&#x419;" horiz-adv-x="1765" d="M102 328v1106h471l-20 -822q-2 -72 25 -71q12 0 40 51l396 690q96 168 309 168q340 0 340 -354v-1096h-471l20 842q2 53 -20 53q-12 0 -53 -70l-408 -696q-86 -145 -309 -145q-190 0 -266 108q-53 78 -54 236zM344 1819h289q29 -66 74 -101q66 -51 170 -51q109 0 172 51 q39 31 71 101h289q-61 -180 -182 -271q-131 -98 -350 -98t-351 98q-121 90 -182 271z" />
<glyph unicode="&#x41a;" horiz-adv-x="1665" d="M143 0v1434h463v-1434h-463zM651 733q0 68 66 160l385 541h549l-498 -592q-59 -70 -59 -107q0 -47 75 -129l557 -606h-557l-434 555q-84 106 -84 178z" />
<glyph unicode="&#x41b;" horiz-adv-x="1597" d="M-61 0l550 1303q61 147 310 147q248 0 309 -147l551 -1303h-492l-346 948q-16 35 -22 35q-4 0 -23 -35l-346 -948h-491z" />
<glyph unicode="&#x41c;" horiz-adv-x="2193" d="M102 0v1198q0 252 353 252q125 0 200 -35q117 -55 166 -203l232 -696q23 -66 43 -65q20 0 43 65l231 696q49 147 166 203q76 35 203 35q352 0 352 -252v-1198h-467l16 872q0 47 -18 48q-12 0 -29 -52l-221 -692q-31 -96 -74 -135q-66 -57 -202 -57q-137 0 -203 57 q-43 39 -74 135l-221 692q-16 51 -29 52q-16 0 -16 -48l14 -872h-465z" />
<glyph unicode="&#x41d;" horiz-adv-x="1650" d="M102 0v1434h463v-508h520v508h463v-1434h-463v569h-520v-569h-463z" />
<glyph unicode="&#x41e;" horiz-adv-x="1699" d="M61 717q0 199 23 311q37 180 139.5 274.5t288.5 127.5q121 20 338 20t338 -20q186 -33 288.5 -127.5t139.5 -274.5q22 -112 22 -311q0 -197 -22 -309q-37 -180 -138.5 -275.5t-291.5 -128.5q-119 -20 -336 -20t-336 20q-190 33 -291.5 128t-138.5 276q-23 113 -23 309z M537 717q0 -190 53 -273q43 -66 108 -88q51 -16 152 -16q102 0 151 16q63 23 109 88q53 78 53 273q0 113 -6 153q-10 63 -47 119q-45 66 -109 88q-49 16 -151 17q-100 0 -152 -17q-66 -23 -108 -88q-53 -80 -53 -272z" />
<glyph unicode="&#x41f;" horiz-adv-x="1638" d="M102 0v1227q0 90 58.5 148.5t212.5 58.5h897q150 0 211 -62q55 -55 55 -145v-1227h-463v995q0 53 -20.5 74t-71.5 21h-324q-51 0 -71.5 -20.5t-20.5 -74.5v-995h-463z" />
<glyph unicode="&#x420;" horiz-adv-x="1611" d="M102 0v1163q0 131 58 197q66 74 190 74h793q207 0 301 -101q106 -115 106 -391q0 -340 -129 -450q-90 -78 -252 -78h-604v-414h-463zM565 770h332q119 0 154.5 38t35.5 124q0 78 -39.5 111.5t-146.5 33.5h-256q-80 0 -80 -84v-223z" />
<glyph unicode="&#x421;" horiz-adv-x="1357" d="M61 698q0 389 125 549q147 186 502 187h606v-357h-383q-143 0 -196 -14q-88 -20 -131 -98q-47 -84 -47 -258q0 -172 34 -238q41 -76 140 -98q59 -14 209 -15h397v-356h-635q-180 0 -285 33q-123 41 -204 143q-131 164 -132 522z" />
<glyph unicode="&#x422;" horiz-adv-x="1445" d="M-20 1077v357h1486v-357h-512v-1077h-462v1077h-512z" />
<glyph unicode="&#x423;" horiz-adv-x="1538" d="M-41 1434h516l299 -611l301 611h504l-772 -1434h-504l229 408z" />
<glyph unicode="&#x424;" horiz-adv-x="2039" d="M61 735q0 291 78 420q57 96 172 127q80 23 258 23h219v129h463v-129h219q178 0 259 -23q115 -31 172 -127q77 -129 77 -420t-63 -418q-53 -106 -166 -143q-78 -25 -221 -24h-277v-150h-463v150h-276q-143 0 -221 24q-113 37 -166 143q-63 127 -64 418zM537 725 q0 -74 16 -119q39 -100 195 -100h40v442h-57q-139 0 -176 -84q-18 -41 -18 -139zM1251 506h41q160 0 199 108q12 41 12 111q0 137 -47 180t-147 43h-58v-442z" />
<glyph unicode="&#x425;" horiz-adv-x="1544" d="M-41 0l543 727l-527 707h553l244 -383l244 383h553l-527 -707l543 -727h-553l-260 403l-260 -403h-553z" />
<glyph unicode="&#x426;" horiz-adv-x="1724" d="M102 262v1172h463v-945q0 -88 20.5 -110.5t92.5 -22.5h412v1078h462v-1078h193v-356h-1364q-78 0 -107 4q-57 10 -98 49q-74 68 -74 209z" />
<glyph unicode="&#x427;" horiz-adv-x="1626" d="M82 963v471h463v-357q0 -102 28.5 -127.5t137.5 -25.5h350v510h463v-1434h-463v567h-649q-190 0 -275 150q-55 98 -55 246z" />
<glyph unicode="&#x428;" horiz-adv-x="2318" d="M102 215v1219h463v-977q0 -57 17.5 -79t66.5 -22h279v1078h463v-1078h278q59 0 74 35q10 20 10 66v977h463v-1219q0 -102 -58.5 -158.5t-166.5 -56.5h-1663q-104 0 -165 56.5t-61 158.5z" />
<glyph unicode="&#x429;" horiz-adv-x="2387" d="M102 215v1219h463v-977q0 -57 17.5 -79t66.5 -22h279v1078h463v-1078h362v1078h463v-1078h192v-356h-2080q-104 0 -165 56.5t-61 158.5z" />
<glyph unicode="&#x42a;" horiz-adv-x="1777" d="M-20 1077v357h516q115 0 178 -70q57 -61 57 -158v-291h643q209 0 287 -163q55 -115 55 -301q0 -211 -67 -312q-94 -139 -287 -139h-889q-84 0 -144.5 68.5t-60.5 201.5v711q0 53 -17.5 74.5t-51.5 21.5h-219zM731 442q0 -47 12 -63q16 -23 76 -23h240q115 0 135 13 q47 26 47 114q0 80 -55 101q-20 8 -119 8h-336v-150z" />
<glyph unicode="&#x42b;" horiz-adv-x="2246" d="M102 270v1164h463v-519h643q209 0 287 -163q55 -115 55 -301q0 -211 -67 -312q-94 -139 -287 -139h-889q-84 0 -144.5 68.5t-60.5 201.5zM565 442q0 -47 13 -63q16 -23 75 -23h240q115 0 135 13q47 26 47 114q0 80 -55 101q-20 8 -119 8h-336v-150zM1681 0v1434h463 v-1434h-463z" />
<glyph unicode="&#x42c;" horiz-adv-x="1611" d="M102 270v1164h463v-519h643q209 0 287 -163q55 -115 55 -301q0 -211 -67 -312q-94 -139 -287 -139h-889q-84 0 -144.5 68.5t-60.5 201.5zM565 442q0 -47 13 -63q16 -23 75 -23h240q115 0 135 13q47 26 47 114q0 80 -55 101q-20 8 -119 8h-336v-150z" />
<glyph unicode="&#x42d;" horiz-adv-x="1396" d="M61 0v356h428q166 0 248 33q127 51 123 180h-751v324h751q-18 94 -104 139t-240 45h-436v357h686q283 0 426 -145.5t143 -559.5q0 -236 -32 -367q-37 -154 -136 -239q-139 -123 -401 -123h-705z" />
<glyph unicode="&#x42e;" horiz-adv-x="2394" d="M102 0v1434h463v-541h195q4 268 158 410q102 94 290 127q119 20 336 20t338 -20q186 -33 288.5 -127.5t139.5 -274.5q23 -112 23 -311q0 -197 -23 -309q-37 -180 -138 -275.5t-292 -128.5q-119 -20 -336 -20t-336 20q-190 33 -290 127q-78 72 -121 201q-41 117 -41 243 h-191v-575h-463zM1231 717q0 -190 53 -273q43 -66 109 -88q51 -16 151 -16q102 0 152 16q63 23 108 88q54 78 54 273q0 113 -7 153q-10 63 -47 119q-45 66 -108 88q-49 16 -152 17q-100 0 -151 -17q-66 -23 -109 -88q-53 -80 -53 -272z" />
<glyph unicode="&#x42f;" horiz-adv-x="1619" d="M41 0l399 428h-61q-166 0 -244 137q-63 113 -63 389q0 229 69 340q55 86 152 117q68 23 192 23h824q96 0 157 -66q51 -55 52 -168v-1200h-463v983q0 47 -25.5 70.5t-73.5 23.5h-290q-70 0 -100.5 -40t-30.5 -115q0 -80 16 -105q33 -61 123 -61h94q209 0 209 -142v-32 q0 -82 -88 -199l-291 -383h-557z" />
<glyph unicode="&#x430;" horiz-adv-x="1261" d="M37 362q0 203 94 275q61 47 193 47h475v16q0 45 -21 72q-33 43 -123 43h-544v270h718q172 0 269 -94q102 -100 102 -305v-455q0 -119 -54 -175t-183 -56h-639q-135 0 -199 57q-88 80 -88 305zM438 356q0 -33 18.5 -49t53.5 -16h209q41 0 60.5 15t19.5 52v68h-285 q-39 0 -57.5 -16.5t-18.5 -53.5z" />
<glyph unicode="&#x431;" horiz-adv-x="1284" d="M61 449v557q0 160 66 260q57 86 164 131q90 37 184 37h715v-275h-477q-141 0 -195 -43q-59 -49 -55 -133h344q268 0 369 -143q71 -103 71 -332q0 -254 -78 -369q-70 -102 -204 -131q-90 -20 -320 -20q-217 0 -313 22q-152 33 -215 140q-55 92 -56 299zM463 426 q0 -106 94 -135q37 -12 84 -12q88 0 129 24q68 41 68 184q0 115 -23 160q-39 78 -133 78h-219v-299z" />
<glyph unicode="&#x432;" horiz-adv-x="1261" d="M61 199v667q0 117 68 172q57 47 209 47h514q113 0 160 -8q92 -14 141 -65q66 -68 66 -207q0 -127 -59.5 -183.5t-158.5 -62.5v-4q102 -8 163 -66.5t61 -185.5q0 -162 -76 -233q-51 -47 -133 -62q-47 -8 -158 -8h-530q-154 0 -207 45q-59 49 -60 154zM463 356 q0 -33 13 -49t50 -16h191q63 0 84.5 19t21.5 48q0 39 -22.5 55.5t-85.5 16.5h-252v-74zM463 680h244q68 0 91 16.5t23 57.5q0 29 -22.5 43t-79.5 14h-174q-82 0 -82 -70v-61z" />
<glyph unicode="&#x433;" horiz-adv-x="1087" d="M61 0v879q0 98 31 141q47 66 137 65h899v-274h-589q-33 0 -54.5 -23.5t-21.5 -72.5v-715h-402z" />
<glyph unicode="&#x434;" horiz-adv-x="1318" d="M-20 0v291h108l326 686q57 121 245 121t246 -121l326 -686h108v-291h-1359zM469 291h381l-172 446q-10 23 -19 23q-6 0 -18 -23z" />
<glyph unicode="&#x435;" horiz-adv-x="1239" d="M37 530q0 211 6 269q16 127 83 194.5t216 89.5q96 14 295 15q193 0 274 -11q115 -16 174 -63q117 -95 117 -365q0 -145 -65 -198q-39 -31 -107 -31h-592q-4 -53 18.5 -89t75.5 -46q27 -4 105 -4h526v-291h-686q-156 0 -221 18q-106 29 -162.5 121t-56.5 391zM438 684h297 q66 0 66 57q0 72 -123 80q-31 2 -57 2q-125 0 -157 -30.5t-26 -108.5z" />
<glyph unicode="&#x436;" horiz-adv-x="1921" d="M-41 0l309 457q51 76 51 104q0 16 -51 101l-260 423h441l215 -387q61 -110 61 -147t-51 -119l-271 -432h-444zM770 0v1085h381v-1085h-381zM1196 551q0 37 61 147l216 387h440l-260 -423q-51 -84 -51 -101q0 -29 51 -104l309 -457h-444l-271 432q-51 82 -51 119z" />
<glyph unicode="&#x437;" horiz-adv-x="1189" d="M61 0v291h572q115 0 115 67q0 72 -119 72h-537v250h539q113 0 112 65q0 66 -110 66h-551v274h719q193 0 266.5 -65.5t73.5 -206.5q0 -121 -59.5 -186.5t-157.5 -61.5v-8q96 4 160.5 -67.5t64.5 -194.5q0 -160 -88 -234q-74 -61 -258 -61h-742z" />
<glyph unicode="&#x438;" horiz-adv-x="1374" d="M61 193v892h402l-21 -563q-2 -31 19 -30q12 0 37 30l393 494q66 82 188 82q233 0 234 -217v-881h-402l21 563q2 33 -17 33q-10 0 -36 -33l-385 -481q-47 -59 -95 -78q-37 -16 -108 -16q-229 0 -230 205z" />
<glyph unicode="&#x439;" horiz-adv-x="1374" d="M61 193v892h402l-21 -563q-2 -31 19 -30q12 0 37 30l393 494q66 82 188 82q233 0 234 -217v-881h-402l21 563q2 33 -17 33q-10 0 -36 -33l-385 -481q-47 -59 -95 -78q-37 -16 -108 -16q-229 0 -230 205zM223 1475h264q14 -51 50 -89q53 -57 149 -57t150 57q35 37 49 89 h264q-35 -166 -137 -258q-109 -98 -326 -99q-217 0 -326 99q-102 92 -137 258z" />
<glyph unicode="&#x43a;" horiz-adv-x="1263" d="M61 0v1085h402v-1085h-402zM504 557q0 49 65 143l267 385h442l-322 -413q-59 -76 -59 -113t47 -94l381 -465h-451l-317 436q-53 74 -53 121z" />
<glyph unicode="&#x43b;" horiz-adv-x="1372" d="M-20 0l481 1001q47 96 225 97q178 0 225 -97l482 -1001h-402l-284 700q-12 29 -21 29q-8 0 -20 -29l-285 -700h-401z" />
<glyph unicode="&#x43c;" horiz-adv-x="1679" d="M61 0v891q0 100 91 158q80 49 198 49q219 0 281 -168l170 -471q16 -47 39 -47t39 47l170 471q61 168 280 168q119 0 199 -49q90 -57 90 -158v-891h-401l20 586q0 25 -14 24q-12 0 -23 -28l-172 -488q-37 -106 -188 -106q-152 0 -189 106l-172 486q-10 29 -22 28 q-14 0 -15 -24l21 -584h-402z" />
<glyph unicode="&#x43d;" horiz-adv-x="1282" d="M61 0v1085h402v-380h356v380h402v-1085h-402v414h-356v-414h-402z" />
<glyph unicode="&#x43e;" horiz-adv-x="1327" d="M37 543q0 317 143 444q125 111 484 111q358 0 483 -111q143 -127 143 -444t-143 -445q-125 -111 -483 -110q-358 0 -484 110q-143 127 -143 445zM446 543q0 -135 39 -191q51 -74 179 -73q166 0 202 131q15 51 15 133q0 141 -39 194q-51 70 -178 70t-179 -70 q-39 -53 -39 -194z" />
<glyph unicode="&#x43f;" horiz-adv-x="1290" d="M61 0v877q0 98 52 149q57 59 194 59h676q137 0 195 -59q51 -51 51 -149v-877h-402v743q0 37 -18 52.5t-53 15.5h-221q-33 0 -52.5 -15.5t-19.5 -52.5v-743h-402z" />
<glyph unicode="&#x440;" horiz-adv-x="1259" d="M61 -348v1227q0 115 74 168q55 39 154 38h504q205 0 313 -112q117 -122 117 -398q0 -301 -88 -425q-104 -150 -375 -150h-297v-348h-402zM463 291h176q104 0 149 84q25 47 25 170q0 111 -18 157q-37 92 -144 93h-141q-18 0 -32.5 -14.5t-14.5 -37.5v-452z" />
<glyph unicode="&#x441;" horiz-adv-x="1128" d="M37 528q0 319 121 445q109 113 327 112h584v-274h-397q-170 0 -211 -145q-14 -51 -15 -129q0 -135 33 -189q45 -74 215 -74h398v-274h-627q-223 0 -332 129q-96 113 -96 399z" />
<glyph unicode="&#x442;" horiz-adv-x="1212" d="M0 799v286h1212v-286h-405v-799h-401v799h-406z" />
<glyph unicode="&#x443;" horiz-adv-x="1355" d="M-20 1085h428l276 -665l291 665h401l-649 -1435h-401l170 350z" />
<glyph unicode="&#x444;" horiz-adv-x="1859" d="M37 532q0 264 76 388q102 166 358 165h260v349h397v-349h261q256 0 358 -165q76 -124 76 -388t-90 -389q-102 -143 -353 -143h-252v-348h-397v348h-252q-250 0 -352 143q-90 125 -90 389zM438 537q0 -115 32 -171.5t101 -74.5q35 -8 121 -8h39v520h-43q-170 0 -219 -80 q-31 -49 -31 -186zM1128 283h39q96 0 142 14q70 25 94 98q18 52 18 142q0 137 -30 186q-49 80 -220 80h-43v-520z" />
<glyph unicode="&#x445;" horiz-adv-x="1294" d="M-20 0l432 557l-398 528h457l176 -278l176 278h457l-397 -528l432 -557h-467l-201 307l-201 -307h-466z" />
<glyph unicode="&#x446;" horiz-adv-x="1372" d="M61 168v917h402v-710q0 -47 18.5 -65.5t67.5 -18.5h272v794h402v-794h170v-291h-1160q-76 0 -120 41q-51 47 -52 127z" />
<glyph unicode="&#x447;" horiz-adv-x="1282" d="M53 715v370h402v-225q0 -92 16 -119q29 -45 131 -45h217v389h402v-1085h-402v389h-493q-135 0 -215 111q-57 80 -58 215z" />
<glyph unicode="&#x448;" horiz-adv-x="1769" d="M61 193v892h398v-720q0 -37 12 -53.5t43 -16.5h172v790h397v-790h172q31 0 43.5 16.5t12.5 53.5v720h397v-892q0 -100 -43 -144q-51 -49 -164 -49h-1233q-117 0 -162 47t-45 146z" />
<glyph unicode="&#x449;" horiz-adv-x="1880" d="M61 193v892h398v-718q0 -39 11 -55.5t44 -16.5h170v790h397v-790h228v790h397v-790h174v-295h-1612q-121 0 -164 49t-43 144z" />
<glyph unicode="&#x44a;" horiz-adv-x="1421" d="M0 809v276h438q66 0 115 -41q66 -53 65 -153v-168h490q137 0 206.5 -89t69.5 -300q0 -188 -84 -271q-66 -63 -194 -63h-674q-106 0 -160.5 56.5t-54.5 158.5v514q0 37 -17.5 58.5t-56.5 21.5h-143zM618 381q0 -90 87 -90h163q59 0 83 16.5t24 69.5q0 47 -22.5 63.5 t-84.5 16.5h-250v-76z" />
<glyph unicode="&#x44b;" horiz-adv-x="1830" d="M61 215v870h402v-362h489q137 0 207 -89t70 -300q0 -188 -84 -271q-66 -63 -195 -63h-674q-106 0 -160.5 56.5t-54.5 158.5zM463 381q0 -90 86 -90h164q59 0 82.5 16.5t23.5 69.5q0 47 -20 63q-33 16 -86 17h-250v-76zM1368 0v1085h401v-1085h-401z" />
<glyph unicode="&#x44c;" horiz-adv-x="1265" d="M61 215v870h402v-362h489q137 0 207 -89t70 -300q0 -188 -84 -271q-66 -63 -195 -63h-674q-106 0 -160.5 56.5t-54.5 158.5zM463 381q0 -90 86 -90h164q59 0 82.5 16.5t23.5 69.5q0 47 -20 63q-33 16 -86 17h-250v-76z" />
<glyph unicode="&#x44d;" horiz-adv-x="1136" d="M37 0v291h377q205 0 252 59q25 31 24 84h-624v254h624q-8 53 -47 86q-51 41 -221 41h-371v270h651q193 0 295.5 -118.5t102.5 -405.5q0 -303 -96 -428q-102 -133 -363 -133h-604z" />
<glyph unicode="&#x44e;" horiz-adv-x="1902" d="M61 0v1085h390v-399h155q6 205 121 305q78 70 225 92q90 14 267 15q375 0 491 -107q131 -118 131 -442q0 -328 -131 -451q-117 -111 -491 -110q-365 0 -492 110.5t-121 333.5h-155v-432h-390zM999 539q0 -131 35 -183q53 -78 185 -77q131 0 184 77q37 54 37 183 q0 143 -35 194q-49 74 -186 74q-135 0 -187 -74q-33 -47 -33 -194z" />
<glyph unicode="&#x44f;" horiz-adv-x="1271" d="M20 0l293 371q10 10 11 22q0 12 -27 13h-27q-92 0 -155 79q-72 92 -72 273q0 178 92 262q72 66 174 65h686q92 0 148 -47q68 -57 67 -190v-848h-401v719q0 57 -19.5 74.5t-74.5 17.5h-180q-43 0 -67 -19.5t-24 -62.5t18.5 -59.5t63.5 -16.5h99q131 0 131 -112 q0 -78 -56 -162l-249 -379h-431z" />
<glyph unicode="&#x451;" horiz-adv-x="1239" d="M37 530q0 211 6 269q16 127 83 194.5t216 89.5q96 14 295 15q193 0 274 -11q115 -16 174 -63q117 -95 117 -365q0 -145 -65 -198q-39 -31 -107 -31h-592q-4 -53 18.5 -89t75.5 -46q27 -4 105 -4h526v-291h-686q-156 0 -221 18q-106 29 -162.5 121t-56.5 391zM180 1225 v241h355v-241h-355zM438 684h297q66 0 66 57q0 72 -123 80q-31 2 -57 2q-125 0 -157 -30.5t-26 -108.5zM715 1225v241h354v-241h-354z" />
<glyph unicode="&#x452;" horiz-adv-x="1349" d="M-20 1182v180h151v72h401v-72h322v-180h-322v-97h304q186 0 292.5 -71.5t141.5 -190.5q18 -66 18 -190v-322q0 -96 -18 -205q-20 -117 -68.5 -239.5t-111.5 -214.5h-418q88 123 141 260q45 115 59.5 198t14.5 203v246q0 113 -59.5 178.5t-168.5 65.5h-127v-803h-401v1182 h-151z" />
<glyph unicode="&#x453;" horiz-adv-x="1067" d="M0 0v879q0 98 31 141q47 66 137 65h899v-274h-590q-33 0 -54.5 -23.5t-21.5 -72.5v-715h-401zM236 1389l393 325l178 -223l-393 -324z" />
<glyph unicode="&#x454;" horiz-adv-x="1185" d="M61 565q0 270 104.5 395t313.5 125h631v-274h-463q-96 0 -145 -49q-31 -31 -31 -74h625v-266h-625q0 -63 38 -97t146 -34h469v-291h-585q-127 0 -199 18q-115 33 -182 123q-96 131 -97 424z" />
<glyph unicode="&#x455;" horiz-adv-x="1130" d="M37 788q0 119 51 195q70 102 252 102h725v-278h-590q-39 0 -47 -2q-18 -4 -18 -19q0 -16 22 -24q16 -8 82 -31l274 -92q193 -66 249.5 -146.5t56.5 -209.5q0 -160 -90 -232q-63 -51 -179 -51h-776v291h592q12 0 23.5 7t11.5 21t-16.5 23.5t-124.5 44.5l-234 76 q-170 55 -223 143q-41 68 -41 182z" />
<glyph unicode="&#x456;" horiz-adv-x="524" d="M61 0v1085h402v-1085h-402zM61 1194v240h402v-240h-402z" />
<glyph unicode="&#x457;" horiz-adv-x="745" d="M-41 1208v262h340v-262h-340zM172 0v1085h401v-1085h-401zM446 1208v262h340v-262h-340z" />
<glyph unicode="&#x458;" horiz-adv-x="688" d="M-82 -90q158 -2 225 51q82 66 82 207v917h402v-1001q0 -252 -158 -354q-135 -86 -551 -78v258zM225 1194v240h402v-240h-402z" />
<glyph unicode="&#x459;" horiz-adv-x="2078" d="M-20 0l577 989q63 109 322 109q209 0 280 -33q92 -41 92 -174v-201h498q121 0 186 -63q82 -78 82 -285q0 -201 -84 -281q-63 -61 -194 -61h-674q-106 0 -160.5 56.5t-54.5 158.5v530q0 63 -21 64q-14 0 -26 -25l-375 -784h-448zM1251 381q0 -90 86 -90h164q59 0 83 16 t24 49q0 68 -107 68h-250v-43z" />
<glyph unicode="&#x45a;" horiz-adv-x="2088" d="M102 0v1085h402v-380h356v380h402v-395h497q121 0 187 -61q82 -78 82 -291q0 -193 -84 -275q-66 -63 -195 -63h-674q-106 0 -160.5 56.5t-54.5 158.5v199h-356v-414h-402zM1262 381q0 -90 86 -90h163q59 0 83 16t24 49q0 47 -35 60q-27 8 -72 8h-249v-43z" />
<glyph unicode="&#x45b;" horiz-adv-x="1390" d="M-20 1182v180h151v72h401v-72h322v-180h-322v-97h240q131 0 186 -8q104 -16 181 -71q150 -111 149 -297v-709h-401v553q0 121 -60.5 185.5t-167.5 64.5h-127v-803h-401v1182h-151z" />
<glyph unicode="&#x45c;" horiz-adv-x="1263" d="M61 0v1085h402v-1085h-402zM379 1389l393 325l178 -223l-393 -324zM504 557q0 49 65 143l267 385h442l-322 -413q-59 -76 -59 -113t47 -94l381 -465h-451l-317 436q-53 74 -53 121z" />
<glyph unicode="&#x45e;" horiz-adv-x="1396" d="M0 1085h428l277 -665l290 665h402l-649 -1435h-402l170 350zM233 1503h265q14 -51 49 -88q53 -57 149 -57t150 57q35 37 49 88h264q-35 -166 -137 -258q-109 -98 -326 -98t-325 98q-102 92 -138 258z" />
<glyph unicode="&#x45f;" horiz-adv-x="1363" d="M102 143v942h402v-735q0 -45 12 -58t49 -13h234q37 0 49 13t12 58v735h402v-942q0 -66 -39 -104.5t-123 -38.5h-217v-360h-402v360h-217q-84 0 -123 39t-39 104z" />
<glyph unicode="&#x490;" horiz-adv-x="1404" d="M143 0v1184q0 119 70 188q61 61 182 62h494q70 0 82 26.5t12 73.5v156h463v-422q0 -72 -29 -115q-49 -76 -164 -76h-589q-35 0 -46.5 -15t-11.5 -73v-989h-463z" />
<glyph unicode="&#x491;" horiz-adv-x="1118" d="M102 0v913q0 88 42 130t118 42h434q39 0 60 19q14 12 14 49v199h389v-365q0 -90 -41 -131t-143 -41h-402q-53 0 -61 -8t-8 -59v-748h-402z" />
<glyph unicode="&#x2000;" horiz-adv-x="1031" />
<glyph unicode="&#x2001;" horiz-adv-x="2062" />
<glyph unicode="&#x2002;" horiz-adv-x="1031" />
<glyph unicode="&#x2003;" horiz-adv-x="2062" />
<glyph unicode="&#x2004;" horiz-adv-x="687" />
<glyph unicode="&#x2005;" horiz-adv-x="515" />
<glyph unicode="&#x2006;" horiz-adv-x="343" />
<glyph unicode="&#x2007;" horiz-adv-x="343" />
<glyph unicode="&#x2008;" horiz-adv-x="257" />
<glyph unicode="&#x2009;" horiz-adv-x="412" />
<glyph unicode="&#x200a;" horiz-adv-x="114" />
<glyph unicode="&#x2010;" d="M61 387v324h875v-324h-875z" />
<glyph unicode="&#x2011;" d="M61 387v324h875v-324h-875z" />
<glyph unicode="&#x2012;" d="M61 387v324h875v-324h-875z" />
<glyph unicode="&#x2013;" horiz-adv-x="1130" d="M61 387v324h1008v-324h-1008z" />
<glyph unicode="&#x2014;" horiz-adv-x="2103" d="M102 387v324h1899v-324h-1899z" />
<glyph unicode="&#x2018;" horiz-adv-x="714" d="M102 1442l267 157l346 -503l-299 -178z" />
<glyph unicode="&#x2019;" horiz-adv-x="714" d="M0 1075l313 524l299 -178l-346 -503z" />
<glyph unicode="&#x201a;" horiz-adv-x="714" d="M0 -145l313 524l299 -178l-346 -504z" />
<glyph unicode="&#x201c;" horiz-adv-x="1265" d="M102 1438l267 157l346 -503l-299 -179zM653 1438l267 157l346 -503l-299 -179z" />
<glyph unicode="&#x201d;" horiz-adv-x="1265" d="M0 1071l313 524l299 -178l-346 -504zM551 1071l313 524l299 -178l-346 -504z" />
<glyph unicode="&#x201e;" horiz-adv-x="1265" d="M0 -145l313 524l299 -178l-346 -504zM551 -145l313 524l299 -178l-346 -504z" />
<glyph unicode="&#x2020;" horiz-adv-x="1038" d="M61 786v267h320v381h278v-381h318v-267h-318v-1134h-278v1134h-320z" />
<glyph unicode="&#x2021;" horiz-adv-x="1038" d="M61 41v266h320v484h-320v266h320v377h278v-377h318v-266h-318v-484h318v-266h-318v-389h-278v389h-320z" />
<glyph unicode="&#x2022;" horiz-adv-x="901" d="M102 717q0 143 102.5 245.5t246.5 102.5q143 0 245.5 -102.5t102.5 -245.5t-102.5 -245.5t-245.5 -102.5t-246 102t-103 246z" />
<glyph unicode="&#x2026;" horiz-adv-x="1830" d="M102 0v369h406v-369h-406zM713 0v369h405v-369h-405zM1323 0v369h406v-369h-406z" />
<glyph unicode="&#x202f;" horiz-adv-x="412" />
<glyph unicode="&#x2030;" horiz-adv-x="2422" d="M102 1098q0 186 84 270q78 78 246 78q166 0 244 -78q84 -84 84 -270q0 -184 -81 -265t-247 -81q-168 0 -246 77q-84 84 -84 269zM283 1098q0 -98 26 -135q33 -45 123 -45q88 0 121 45q27 37 27 135q0 102 -27 137q-35 45 -121 45q-88 0 -123 -45q-27 -35 -26 -137zM317 0 l832 1434h213l-832 -1434h-213zM915 336q0 184 84 270q74 76 244 76q172 0 246 -76q84 -86 84 -270q0 -186 -81 -267t-249 -81q-166 0 -244 78q-84 84 -84 270zM1096 336q0 -100 26 -137q33 -45 121 -45q90 0 123 45q27 37 27 137q0 98 -27 135q-33 45 -123 45 q-88 0 -121 -45q-27 -37 -26 -135zM1663 336q0 184 84 270q74 76 244 76q172 0 245 -76q84 -86 84 -270q0 -186 -80.5 -267t-248.5 -81q-166 0 -244 78q-84 84 -84 270zM1843 336q0 -100 27 -137q33 -45 121 -45q90 0 123 45q26 37 26 137q0 98 -26 135q-33 45 -123 45 q-88 0 -121 -45q-27 -37 -27 -135z" />
<glyph unicode="&#x2039;" horiz-adv-x="808" d="M102 575q0 90 54 160l297 387l254 -196l-199 -285q-23 -33 -23 -66t23 -65l199 -285l-254 -196l-297 387q-53 70 -54 159z" />
<glyph unicode="&#x203a;" horiz-adv-x="808" d="M102 225l199 285q23 33 23 65q0 33 -23 66l-199 285l254 196l297 -387q54 -70 54 -160t-54 -159l-297 -387z" />
<glyph unicode="&#x203e;" d="M61 387v324h875v-324h-875z" />
<glyph unicode="&#x2044;" horiz-adv-x="1060" d="M-20 -348l897 1864h204l-897 -1864h-204z" />
<glyph unicode="&#x205f;" horiz-adv-x="515" />
<glyph unicode="&#x2122;" horiz-adv-x="2187" d="M0 1237v199h860v-199h-328v-631h-202v631h-330zM922 606v715q0 125 178 125q127 0 168 -90l213 -477q12 -27 20 -27t21 27l213 477q41 90 170 90q180 0 180 -125v-715h-203v531q0 23 -16 22q-8 0 -13.5 -9t-9.5 -15l-198 -441q-25 -53 -39 -67q-33 -29 -105 -29 q-55 0 -78 12q-33 16 -63 84l-197 441q-4 6 -9 15t-13 9q-16 0 -17 -22v-531h-202z" />
<glyph unicode="&#x25fc;" horiz-adv-x="1085" d="M0 0v1085h1085v-1085h-1085z" />
</font>
</defs>
</svg>
