<?xml version="1.0" standalone="no"?>
<!DOCTYPE svg PUBLIC "-//W3C//DTD SVG 1.1//EN" "http://www.w3.org/Graphics/SVG/1.1/DTD/svg11.dtd" >
<svg xmlns="http://www.w3.org/2000/svg">
<metadata></metadata>
<defs>
<font id="magistral_boldregular" horiz-adv-x="1349" >
<font-face units-per-em="2048" ascent="1638" descent="-410" />
<missing-glyph horiz-adv-x="477" />
<glyph horiz-adv-x="0" />
<glyph unicode="&#xd;" horiz-adv-x="477" />
<glyph unicode=" "  horiz-adv-x="477" />
<glyph unicode="&#x09;" horiz-adv-x="477" />
<glyph unicode="&#xa0;" horiz-adv-x="477" />
<glyph unicode="!" horiz-adv-x="528" d="M123 1434h283l-19 -1035h-246zM139 0v254h250v-254h-250z" />
<glyph unicode="&#x22;" horiz-adv-x="796" d="M123 1434h223l-10 -510h-201zM451 1434h223l-10 -510h-201z" />
<glyph unicode="#" horiz-adv-x="1789" d="M82 369l70 176h272l145 360h-272l72 176h272l141 353h205l-141 -353h385l141 353h205l-141 -353h272l-72 -176h-272l-145 -360h272l-72 -176h-272l-148 -369h-204l147 369h-385l-147 -369h-203l145 369h-270zM629 545h385l145 360h-385z" />
<glyph unicode="$" horiz-adv-x="1372" d="M82 1094q0 168 68 243q84 96 286 97h166v139h160v-139h438v-215h-438v-410l242 -78q82 -27 114 -43q63 -33 109 -92q63 -84 63 -246q0 -207 -98 -284q-82 -66 -295 -66h-135v-139h-160v139h-467v215h467v432l-274 88q-143 45 -197 137q-49 84 -49 222zM360 1047 q0 -109 107 -144l135 -43v359h-55q-106 0 -146.5 -40t-40.5 -132zM762 215h49q115 0 158 37t43 119q0 145 -148 192l-102 33v-381z" />
<glyph unicode="%" horiz-adv-x="1673" d="M123 1102q0 197 80 274q72 70 237 70q164 0 236 -70q82 -79 82 -274t-82 -275q-72 -70 -236 -69q-166 0 -237 69q-80 78 -80 275zM291 1102q0 -121 34.5 -164t114.5 -43q76 0 113 43t37 164t-37 164t-113 43q-80 0 -114.5 -43t-34.5 -164zM385 0l731 1434h180l-731 -1434 h-180zM915 332q0 197 80 274q72 70 238 70q164 0 235 -70q82 -79 82 -274t-82 -275q-72 -70 -235 -69q-166 0 -238 69q-80 78 -80 275zM1083 332q0 -121 35 -164t115 -43q76 0 112.5 43t36.5 164t-36.5 164t-112.5 43q-80 0 -115 -43t-35 -164z" />
<glyph unicode="&#x26;" horiz-adv-x="1525" d="M123 401q0 150 53 222q59 80 164 94v4q-88 10 -145 84q-70 90 -70 250q0 201 92 293q86 86 287 86h749v-213h-645q-143 0 -180 -58q-29 -45 -29 -137q0 -119 51.5 -166t176.5 -47h858v-192h-215v-349q0 -158 -59.5 -215t-227.5 -57h-477q-100 0 -150 12q-92 23 -151 94 q-82 98 -82 295zM397 412q0 -104 33 -146q41 -53 158 -53h321q66 0 81.5 15.5t15.5 60.5v329h-447q-100 0 -139 -63q-23 -39 -23 -143z" />
<glyph unicode="'" horiz-adv-x="471" d="M123 1434h225l-12 -510h-201z" />
<glyph unicode="(" horiz-adv-x="759" d="M123 326v471q0 184 20 270q33 139 131 229q160 147 404 150v-172q-217 -2 -318 -164q-53 -86 -53 -272v-555q0 -184 53 -271q98 -160 318 -166v-172q-236 -4 -404 154q-102 96 -133 240q-18 88 -18 258z" />
<glyph unicode=")" horiz-adv-x="761" d="M82 -154q106 2 197 54q82 45 122 112q53 90 54 271v555q0 182 -54 272q-41 68 -122 113q-90 49 -197 51v172q248 -4 407 -150q96 -88 129 -229q20 -88 21 -270v-471q0 -168 -18 -258q-31 -145 -132 -240q-170 -158 -407 -154v172z" />
<glyph unicode="*" horiz-adv-x="1040" d="M82 922l291 168l-291 167l74 127l290 -167v335h148v-335l291 167l73 -127l-290 -167l290 -168l-77 -136l-287 166v-334h-148v334l-286 -166z" />
<glyph unicode="+" horiz-adv-x="1185" d="M123 549v174h377v377h186v-377h377v-174h-377v-377h-186v377h-377z" />
<glyph unicode="," horiz-adv-x="569" d="M0 -129l250 416l196 -117l-264 -408z" />
<glyph unicode="-" horiz-adv-x="894" d="M82 446v211h731v-211h-731z" />
<glyph unicode="." horiz-adv-x="495" d="M123 0v264h250v-264h-250z" />
<glyph unicode="/" horiz-adv-x="1038" d="M0 -340l897 1856h141l-897 -1856h-141z" />
<glyph unicode="0" horiz-adv-x="1318" d="M82 518v412q0 281 149 411q78 68 199 91q82 16 229 16t230 -16q121 -23 198 -91q150 -131 150 -411v-412q0 -342 -172 -459q-76 -51 -207 -65q-47 -4 -199 -4q-154 0 -198 4q-131 14 -207 65q-172 119 -172 459zM352 549q0 -201 61.5 -272.5t245.5 -71.5q182 0 245 72.5 t63 271.5v369q0 180 -93 256q-74 59 -215 59t-215 -59q-92 -76 -92 -256v-369z" />
<glyph unicode="1" horiz-adv-x="618" d="M0 1219v215h309q86 0 136.5 -41t50.5 -140v-1253h-271v1120q0 53 -14 76t-53 23h-158z" />
<glyph unicode="2" horiz-adv-x="1284" d="M82 172q0 129 88 188l664 455q90 61 90 207q0 111 -29 147q-39 49 -145 50h-572v215h696q160 0 244 -86t84 -295q0 -190 -65 -285q-37 -53 -125 -115l-578 -401q-23 -16 -22 -25q0 -12 16 -12h713v-215h-908q-152 0 -151 172z" />
<glyph unicode="3" horiz-adv-x="1267" d="M82 0v215h575q147 0 187 25q63 41 63 170q0 127 -59 172q-47 35 -135 34h-594v215h577q109 0 150 45.5t41 151.5q0 104 -39 147.5t-129 43.5h-613v215h719q190 0 273 -107q68 -86 67 -270q0 -174 -67 -252q-57 -66 -148 -74v-6q92 -2 156 -63q80 -79 80 -267 q0 -217 -94 -311q-84 -84 -244 -84h-766z" />
<glyph unicode="4" horiz-adv-x="1419" d="M41 440q0 100 80 187l692 741q76 82 199 82q86 0 129 -45q35 -37 35 -111v-837h182v-215h-182v-242h-271v242h-688q-111 0 -151 75q-25 49 -25 123zM299 481q0 -25 37 -24h569v680q0 8 -8 8q-6 0 -25 -21l-548 -608q-25 -27 -25 -35z" />
<glyph unicode="5" horiz-adv-x="1265" d="M82 887v362q0 86 47 135.5t143 49.5h865v-215h-717q-43 0 -55.5 -16.5t-12.5 -57.5v-178q0 -70 23.5 -95.5t95.5 -25.5h395q158 0 244 -109q74 -92 74 -293q0 -266 -99 -362q-84 -82 -272 -82h-723v215h639q106 0 145 61q31 49 31 158q0 100 -31 144q-39 53 -124 53h-381 q-147 0 -205 41q-82 59 -82 215z" />
<glyph unicode="6" horiz-adv-x="1308" d="M123 395v666q0 201 125 301q90 72 250 72h657v-215h-561q-106 0 -153.5 -47.5t-47.5 -139.5v-153h461q172 0 260 -78q113 -100 113 -336q0 -211 -62 -318q-86 -147 -321 -147h-359q-139 0 -235 70q-127 92 -127 325zM393 408q0 -104 40 -148.5t147 -44.5h174 q98 0 146 54.5t48 179.5q0 111 -50 163t-167 52h-338v-256z" />
<glyph unicode="7" horiz-adv-x="1101" d="M-20 1219v215h985q157 0 157 -150q0 -88 -49 -166l-706 -1118h-301l739 1139q23 35 22 53q0 27 -43 27h-804z" />
<glyph unicode="8" horiz-adv-x="1296" d="M82 379q0 209 86 287q55 49 143 61v4q-68 8 -118 64q-78 82 -78 243q0 227 94 311.5t332 84.5h213q238 0 329 -82q98 -88 99 -314q0 -162 -78 -243q-51 -55 -119 -64v-4q88 -14 143 -61q86 -76 86 -287q0 -172 -63.5 -254t-163.5 -109q-61 -16 -184 -16h-309 q-121 0 -185 16q-102 27 -164.5 111t-62.5 252zM360 422q0 -111 37 -154q45 -53 144 -53h215q98 0 143 53q37 43 37 154q0 115 -59 162q-43 35 -129 34h-199q-86 0 -129 -34q-59 -47 -60 -162zM393 1024q0 -98 27 -137q37 -53 141 -53h174q100 0 137 49q31 41 31 141 q0 115 -51 160q-39 35 -139 35h-131q-96 0 -138 -35q-51 -43 -51 -160z" />
<glyph unicode="9" horiz-adv-x="1263" d="M82 995q0 252 108 353q92 86 289 86h289q254 0 350 -140q63 -92 64 -245v-578q0 -197 -49 -295q-88 -176 -340 -176h-646v215h555q113 0 161 48t48 173v121h-495q-160 0 -250 107q-84 98 -84 331zM360 989q0 -125 54 -174q47 -43 166 -43h331v256q0 106 -57 152 q-49 39 -127 39h-166q-92 0 -143 -50q-57 -55 -58 -180z" />
<glyph unicode=":" horiz-adv-x="495" d="M123 0v258h250v-258h-250zM123 827v258h250v-258h-250z" />
<glyph unicode=";" horiz-adv-x="579" d="M0 -129l250 416l196 -117l-264 -408zM207 827v258h250v-258h-250z" />
<glyph unicode="&#x3c;" horiz-adv-x="1189" d="M123 827l944 476v-189l-608 -287l608 -286v-189z" />
<glyph unicode="=" horiz-adv-x="1187" d="M123 403v175h942v-175h-942zM123 713v174h942v-174h-942z" />
<glyph unicode="&#x3e;" horiz-adv-x="1189" d="M123 352v189l608 286l-608 287v189l944 -476z" />
<glyph unicode="?" horiz-adv-x="991" d="M41 1219v215h539q180 0 258 -91q71 -82 71 -262q0 -113 -26 -178q-39 -92 -150 -160l-158 -96q-47 -29 -68.5 -57.5t-21.5 -77.5v-113h-249v119q0 88 40 146q37 51 115 98l133 80q61 37 84 67q31 45 31 129q0 100 -41 140.5t-141 40.5h-416zM236 0v254h249v-254h-249z " />
<glyph unicode="@" horiz-adv-x="2080" d="M123 573q0 242 20 359q29 166 119 280q109 139 287 191q121 35 317 35h398q430 0 594 -271q66 -109 86 -260q14 -96 14 -282q0 -330 -64 -461q-82 -170 -276 -170q-98 0 -172 45q-84 51 -107 145q-102 -190 -370 -190q-258 0 -361 176q-66 113 -65 352q0 227 59 342 q104 203 371 203h297q102 0 143 -42t41 -140v-510q0 -209 160 -209q86 0 125 98q33 82 33 381q0 319 -76 445q-106 176 -424 176h-412q-399 0 -504 -248q-49 -117 -49 -486q0 -324 49 -473q94 -285 469 -284h621v-172h-653q-362 0 -531 231q-90 125 -121 354 q-18 137 -18 385zM748 526q0 -170 36 -239q53 -102 189 -103q131 0 211 92q71 82 71 236v293q0 33 -20.5 53.5t-65.5 20.5h-153q-123 0 -191 -72q-78 -82 -77 -281z" />
<glyph unicode="A" horiz-adv-x="1429" d="M-61 0l540 1288q39 92 89 127t147 35q92 0 144 -36t91 -126l541 -1288h-285l-147 362h-690l-146 -362h-284zM438 555h551l-233 584q-25 59 -41 59t-41 -59z" />
<glyph unicode="B" horiz-adv-x="1478" d="M123 203v1024q0 94 47 150.5t149 56.5h705q176 0 260 -86q90 -92 90 -308q0 -154 -67 -233q-57 -68 -136 -74v-8q96 -8 158 -76q68 -74 68 -256q0 -209 -82 -301q-55 -61 -129 -80q-43 -12 -133 -12h-686q-82 0 -103 4q-55 10 -92 53q-49 55 -49 146zM393 322 q0 -66 18.5 -86.5t86.5 -20.5h426q115 0 157 51q37 46 37 146q0 102 -31 145q-41 59 -145 59h-549v-294zM393 831h525q109 0 147 52q31 41 31 145q0 109 -47 154q-39 37 -134 37h-442q-47 0 -63.5 -18.5t-16.5 -61.5v-308z" />
<glyph unicode="C" d="M82 696q0 393 139 557q154 180 469 181h576v-215h-449q-143 0 -217 -21q-104 -29 -160 -113q-80 -119 -80 -385q0 -244 68 -348q90 -137 375 -137h485v-215h-604q-307 0 -454.5 166t-147.5 530z" />
<glyph unicode="D" horiz-adv-x="1533" d="M123 182v1022q0 113 52 171.5t151 58.5h561q266 0 420 -170q92 -102 125 -258q20 -101 20 -273q0 -389 -127 -557q-133 -176 -401 -176h-582q-111 0 -160 39q-59 47 -59 143zM393 313q0 -57 18.5 -77.5t69.5 -20.5h312q227 0 309 133q72 117 72 406q0 256 -100.5 360.5 t-307.5 104.5h-281q-45 0 -63 -15q-29 -23 -29 -71v-820z" />
<glyph unicode="E" horiz-adv-x="1333" d="M123 213v1016q0 94 49 149.5t172 55.5h920v-215h-775q-51 0 -73.5 -20.5t-22.5 -70.5v-288h850v-215h-850v-336q0 -39 19.5 -56.5t93.5 -17.5h766v-215h-932q-117 0 -164 45q-53 51 -53 168z" />
<glyph unicode="F" horiz-adv-x="1271" d="M123 0v1245q0 86 53 137.5t154 51.5h934v-215h-803q-35 0 -51.5 -17.5t-16.5 -56.5v-311h635v-216h-635v-618h-270z" />
<glyph unicode="G" horiz-adv-x="1488" d="M82 709q0 223 37 354q55 190 196 283q135 88 347 88h712v-215h-637q-231 0 -317 -156q-59 -109 -60 -346q0 -238 58 -352q74 -150 274 -150h350q49 0 72 22.5t23 73.5v391h270v-518q0 -96 -52 -140t-141 -44h-610q-199 0 -334 113q-117 98 -159 276q-29 121 -29 320z" />
<glyph unicode="H" horiz-adv-x="1531" d="M123 0v1434h270v-588h746v588h270v-1434h-270v631h-746v-631h-270z" />
<glyph unicode="I" horiz-adv-x="516" d="M123 0v1434h270v-1434h-270z" />
<glyph unicode="J" horiz-adv-x="911" d="M-41 0v215h236q150 0 231 72q92 80 92 286v861h270v-932q0 -244 -120 -367q-133 -135 -342 -135h-367z" />
<glyph unicode="K" horiz-adv-x="1433" d="M123 0v1434h270v-1434h-270zM473 737q0 90 70 160l542 537h334l-618 -588q-68 -63 -68 -107q0 -59 84 -135l678 -604h-342l-590 551q-90 84 -90 186z" />
<glyph unicode="L" horiz-adv-x="1224" d="M123 156v1278h270v-1141q0 -45 20.5 -61.5t65.5 -16.5h787v-215h-959q-88 0 -133 37q-51 41 -51 119z" />
<glyph unicode="M" horiz-adv-x="2031" d="M123 0v1262q0 188 231 188q113 0 174 -55q43 -37 78 -129l371 -957q20 -53 39 -53q18 0 39 53l370 957q43 111 111 153q51 31 141 31q231 0 232 -188v-1262h-271l9 1116q0 43 -25 43q-16 0 -35 -47l-366 -956q-35 -92 -70 -127q-47 -45 -135 -45q-92 0 -142 51 q-31 33 -63 121l-367 956q-18 47 -34 47q-23 0 -23 -43l6 -1116h-270z" />
<glyph unicode="N" horiz-adv-x="1617" d="M123 0v1255q0 92 58.5 143.5t160.5 51.5q156 0 227 -113l609 -960q23 -35 32 -35q23 0 23 35v1057h262v-1248q0 -202 -211 -202h-2q-156 0 -231 120l-605 955q-23 35 -32 35q-29 0 -29 -41v-1053h-262z" />
<glyph unicode="O" horiz-adv-x="1636" d="M82 717q0 195 24 309q37 174 141.5 273.5t280.5 132.5q100 18 291 18q188 0 291 -18q176 -33 281 -134q163 -157 163 -581q0 -422 -163 -582q-102 -100 -283 -133q-102 -18 -289 -18q-188 0 -291 18q-176 33 -282.5 135.5t-143.5 288.5q-20 104 -20 291zM360 717 q0 -287 89 -400q57 -74 159 -100q74 -18 209 -18t209 18q102 27 162 100q88 111 88 400q0 293 -88 401q-94 117 -371 117q-274 0 -365.5 -113.5t-91.5 -404.5z" />
<glyph unicode="P" horiz-adv-x="1490" d="M123 0v1219q0 111 52 163t159 52h682q197 0 284 -86q109 -105 109 -377q0 -291 -125 -393q-86 -70 -219 -70h-672v-508h-270zM393 723h514q129 0 176 53.5t47 196.5t-49 194.5t-170 51.5h-436q-45 0 -63.5 -18.5t-18.5 -67.5v-410z" />
<glyph unicode="Q" horiz-adv-x="1650" d="M82 713q0 201 24 313q37 170 142 272q88 84 227 119q127 33 344 33q219 0 344 -31q137 -35 225.5 -118.5t124.5 -208.5q41 -135 41 -361q0 -254 -59 -377q-35 -74 -98 -131v-8l205 8v-223h-783q-207 0 -301 14q-172 29 -266 121q-113 111 -150 293q-20 102 -20 285z M360 719q0 -285 89 -393q57 -72 159 -95q70 -16 209 -16q141 0 211 16q102 25 160 95q88 108 88 393q0 287 -88 397q-59 74 -160 101q-74 18 -211 18q-135 0 -209 -18q-102 -27 -159 -101q-88 -113 -89 -397z" />
<glyph unicode="R" horiz-adv-x="1503" d="M123 0v1190q0 129 59.5 186.5t171.5 57.5h680q219 0 307 -131q72 -106 72 -316q0 -209 -61 -323q-80 -147 -271 -148h-184v-10l545 -506h-340l-471 465q-68 68 -68 121v32q0 98 121 99h270q106 0 148 63q33 51 33 197q0 147 -52 199q-43 43 -151 43h-438q-45 0 -73 -24 t-28 -79v-1116h-270z" />
<glyph unicode="S" d="M61 1087q0 180 93 267q86 80 235 80h825v-215h-733q-78 0 -113.5 -34t-35.5 -110q0 -119 133 -162l524 -165q145 -47 205 -103q94 -90 94 -276q0 -174 -71 -267q-80 -102 -256 -102h-881v215h794q135 0 136 156q0 119 -140 161l-565 179q-111 35 -170 106q-74 88 -74 270 z" />
<glyph unicode="T" d="M-20 1219v215h1390v-215h-561v-1219h-270v1219h-559z" />
<glyph unicode="U" horiz-adv-x="1490" d="M123 504v930h270v-893q0 -174 70 -250q84 -92 282 -92q201 0 285 92q68 74 68 250v893h270v-930q0 -240 -125 -367q-149 -153 -494 -153h-4q-348 0 -497 153q-125 127 -125 367z" />
<glyph unicode="V" horiz-adv-x="1380" d="M-61 1434h292l428 -1158q12 -31 31 -30q18 0 31 30l428 1158h293l-520 -1295q-63 -155 -230 -155h-2q-168 0 -231 155z" />
<glyph unicode="W" horiz-adv-x="2050" d="M-61 1434h274l285 -1104q10 -43 30 -43t31 35l266 981q41 147 199 147t199 -147l266 -981q10 -35 31 -35q23 0 32 43l285 1104h274l-346 -1250q-27 -94 -63 -135q-54 -65 -165 -65h-3q-180 0 -229 184l-252 928q-10 39 -29 39q-16 0 -27 -39l-254 -928 q-51 -184 -227 -184q-92 0 -143 41q-59 47 -90 159z" />
<glyph unicode="X" horiz-adv-x="1286" d="M-61 0l550 727l-534 707h321l367 -516l367 516h321l-534 -707l551 -727h-322l-383 537l-383 -537h-321z" />
<glyph unicode="Y" horiz-adv-x="1359" d="M-61 1434h290l451 -752l450 752h291l-606 -996v-438h-270v438z" />
<glyph unicode="Z" horiz-adv-x="1255" d="M4 147q0 102 88 193l782 809q25 25 25 43q0 27 -39 27h-801v215h1031q161 -1 161 -148q0 -90 -82 -176l-792 -836q-20 -23 -21 -36q0 -23 25 -23h848v-215h-1028q-197 0 -197 147z" />
<glyph unicode="[" horiz-adv-x="757" d="M123 -326v1772h553v-172h-369v-1428h369v-172h-553z" />
<glyph unicode="\" horiz-adv-x="1038" d="M0 1516h141l897 -1856h-141z" />
<glyph unicode="]" horiz-adv-x="761" d="M82 -154h373v1428h-373v172h557v-1772h-557v172z" />
<glyph unicode="^" horiz-adv-x="1208" d="M123 1206l371 346q51 47 110 47t111 -47l370 -346l-118 -139l-303 297q-29 29 -58 29t-57 -29l-305 -297z" />
<glyph unicode="_" horiz-adv-x="1171" d="M82 0v211h1008v-211h-1008z" />
<glyph unicode="`" horiz-adv-x="616" d="M82 1417l123 154l330 -273l-121 -151z" />
<glyph unicode="a" horiz-adv-x="1136" d="M53 348q0 184 92 264q72 63 199 64h471v76q0 63 -31 102q-39 47 -116 47h-535v184h617q305 0 305 -340v-563q0 -96 -43 -139t-150 -43h-518q-135 0 -197 53q-94 82 -94 295zM301 338q0 -86 32 -120t79 -34h333q39 0 54.5 12.5t15.5 45.5v250h-399q-59 0 -87 -36t-28 -118 z" />
<glyph unicode="b" horiz-adv-x="1142" d="M82 182v1252h240v-349h317q274 0 379 -178q72 -122 72 -370q0 -240 -70 -359q-104 -178 -375 -178h-342q-121 0 -171 46t-50 136zM322 274q0 -55 16 -72.5t65 -17.5h175q170 0 227 111q37 71 37 231q0 178 -37 256q-55 119 -219 119h-264v-627z" />
<glyph unicode="c" horiz-adv-x="1050" d="M53 528q0 315 123 441q114 116 328 116h4h465v-184h-387q-217 0 -267 -172q-18 -63 -18 -205q0 -156 35 -225q57 -115 272 -115h389v-184h-522q-211 0 -323 133q-98 117 -99 395z" />
<glyph unicode="d" horiz-adv-x="1144" d="M53 559q0 244 84 365q112 161 362 161h3h321v349h240v-1244q0 -90 -33 -135q-41 -55 -149 -55h-428q-256 0 -347 215q-53 127 -53 344zM301 551q0 -176 29 -244q53 -123 219 -123h192q45 0 63.5 16.5t18.5 75.5v625h-274q-141 0 -201 -96q-47 -76 -47 -254z" />
<glyph unicode="e" horiz-adv-x="1153" d="M53 532q0 178 21 265q27 121 108 190q119 102 406 103q248 0 358 -70q154 -96 154 -352q0 -113 -51 -164q-41 -41 -117 -41h-631q0 -94 14 -150q33 -129 220 -129h530v-184h-602q-236 0 -332 137q-78 111 -78 395zM301 647h498q53 1 53 64q0 92 -67.5 143t-206.5 51 q-164 0 -228 -71q-45 -51 -49 -187z" />
<glyph unicode="f" horiz-adv-x="720" d="M16 901v182h152q6 186 113 275q112 91 371 91q26 0 53 -1v-176q-186 0 -236 -33q-61 -42 -61 -147v-7h297v-184h-297v-901h-240v901h-152z" />
<glyph unicode="g" horiz-adv-x="1173" d="M53 559q0 281 115 408q108 118 330 118h4h350q123 0 176 -43q63 -51 64 -157v-762q0 -246 -88 -350q-111 -131 -363 -131h-512v184h457q141 0 200 49q53 45 64 125h-385q-238 0 -328 139q-84 131 -84 420zM301 541q0 -221 61 -293q55 -63 205 -64h285v631 q0 49 -27.5 67.5t-66.5 18.5h-205q-125 0 -186 -67q-66 -74 -66 -293z" />
<glyph unicode="h" horiz-adv-x="1150" d="M82 0v1434h240v-349h325q211 0 305 -77q117 -96 117 -293v-715h-240v651q0 127 -55 188.5t-172 61.5h-280v-901h-240z" />
<glyph unicode="i" horiz-adv-x="403" d="M82 0v1085h240v-1085h-240zM82 1243v191h240v-191h-240z" />
<glyph unicode="j" horiz-adv-x="563" d="M-82 -180h13q160 0 227 47q84 61 84 209v1009h239v-1058q0 -209 -139 -312q-111 -81 -357 -81q-32 0 -67 1v185zM242 1243v191h239v-191h-239z" />
<glyph unicode="k" horiz-adv-x="1099" d="M82 0v1434h240v-1434h-240zM393 561q0 80 76 164l328 360h278l-407 -438q-35 -37 -35 -78q0 -47 51 -100l444 -469h-286l-375 397q-74 78 -74 164z" />
<glyph unicode="l" horiz-adv-x="403" d="M82 0v1434h240v-1434h-240z" />
<glyph unicode="m" horiz-adv-x="1710" d="M82 0v897q0 80 31 123q44 65 159 65h4h977q184 0 277 -86q98 -92 98 -266v-733h-239v696q0 102 -45.5 153.5t-145.5 51.5h-223v-901h-240v901h-350q-37 0 -50 -13.5t-13 -60.5v-827h-240z" />
<glyph unicode="n" horiz-adv-x="1157" d="M82 0v920q0 78 35 116q45 49 166 49h383q205 0 303 -88q106 -96 106 -282v-715h-239v643q0 133 -45 193q-50 65 -169 65h-4h-243q-29 0 -41 -12t-12 -45v-844h-240z" />
<glyph unicode="o" horiz-adv-x="1261" d="M53 539q0 315 140 444q123 115 438 115t438 -115q139 -129 139 -436q0 -311 -139 -443q-124 -116 -433 -116h-5q-311 0 -438 116q-139 127 -140 435zM301 541q0 -199 70 -279q78 -90 260 -90q178 0 258 90q72 80 72 279q0 209 -70 286q-78 86 -260 86q-188 0 -262 -86 q-68 -78 -68 -286z" />
<glyph unicode="p" horiz-adv-x="1144" d="M82 -348v1266q0 86 61 133q44 34 131 34h5h378q205 0 320 -118.5t115 -401.5q0 -287 -86 -409q-109 -156 -381 -156h-303v-348h-240zM322 184h272q139 0 205 101q45 70 45 260q0 168 -29 233q-53 123 -209 123h-235q-14 0 -31.5 -15.5t-17.5 -35.5v-666z" />
<glyph unicode="q" horiz-adv-x="1144" d="M53 522q0 303 105 439q95 124 283 124h3h439q102 0 149 -63q31 -41 31 -139v-1231h-240v348h-387q-195 0 -297 141q-86 119 -86 381zM301 537q0 -154 21 -215q47 -137 208 -138h293v643q0 37 -20.5 55.5t-67.5 18.5h-176q-180 0 -231 -125q-27 -66 -27 -239z" />
<glyph unicode="r" horiz-adv-x="681" d="M82 0v676q0 217 110.5 313t327.5 96h162v-184h-100q-141 0 -205 -76q-55 -66 -55 -213v-612h-240z" />
<glyph unicode="s" horiz-adv-x="1079" d="M53 807q0 113 51 184q68 94 261 94h612v-184h-576q-57 0 -85.5 -22.5t-28.5 -75.5q0 -55 33.5 -83t136.5 -56l233 -66q211 -59 271 -123q65 -70 65 -199q0 -162 -90 -231q-59 -45 -174 -45h-694v184h610q53 0 80 31q20 23 20 68q0 53 -30 82q-25 23 -197 69l-209 58 q-178 49 -238 131q-51 72 -51 184z" />
<glyph unicode="t" horiz-adv-x="698" d="M0 901v184h150v349h239v-349h303v-184h-303v-436q0 -90 6 -123q12 -74 58 -111q57 -47 186 -47h59v-184h-149q-193 0 -291 80q-109 90 -108 274v547h-150z" />
<glyph unicode="u" horiz-adv-x="1167" d="M82 401v684h240v-641q0 -135 40 -190q51 -70 195 -70h199q47 0 68.5 21.5t21.5 66.5v813h239v-890q0 -106 -57 -154q-49 -41 -170 -41h-383q-188 0 -282 82q-111 96 -111 319z" />
<glyph unicode="v" horiz-adv-x="1062" d="M-49 1085h248l305 -804q16 -43 28 -43t29 43l303 804h248l-414 -1001q-39 -96 -166 -96q-129 0 -167 96z" />
<glyph unicode="w" horiz-adv-x="1572" d="M-49 1085h229l209 -802q8 -33 21 -33q12 0 20 31l199 716q29 100 157 101q129 0 158 -101l201 -716q8 -31 18 -31q14 0 23 33l207 802h229l-258 -950q-41 -147 -186 -147q-154 0 -187 121l-188 679q-10 35 -17 35q-6 0 -16 -35l-188 -679q-33 -121 -187 -121 q-145 0 -186 147z" />
<glyph unicode="x" horiz-adv-x="1009" d="M-49 0l416 557l-390 528h273l254 -372l254 372h272l-387 -528l416 -557h-281l-274 401l-273 -401h-280z" />
<glyph unicode="y" horiz-adv-x="1110" d="M-49 1085h248l348 -833l368 829h244l-647 -1431h-244l166 354z" />
<glyph unicode="z" horiz-adv-x="952" d="M4 145q0 82 74 156l557 559q16 16 16 25q0 16 -20 16h-592v184h768q63 0 102 -37t39 -100q0 -82 -63 -147l-563 -580q-16 -16 -17 -26q0 -10 19 -11h618v-184h-784q-154 0 -154 145z" />
<glyph unicode="{" horiz-adv-x="647" d="M41 518v127q106 6 106 115v227q0 72 7 137q18 203 176 275q102 47 235 43v-172q-92 6 -157 -43q-76 -55 -76 -187v-258q0 -156 -96 -192v-17q96 -37 96 -192v-258q0 -131 76 -186q66 -49 157 -43v-173q-133 -4 -235 43q-158 72 -176 275q-6 66 -7 137v227q0 109 -106 115 z" />
<glyph unicode="|" horiz-adv-x="389" d="M123 -340v1856h143v-1856h-143z" />
<glyph unicode="}" horiz-adv-x="647" d="M82 -106q92 -6 158 43q76 55 75 186v258q0 156 97 192v17q-96 37 -97 192v258q0 131 -75 187q-66 49 -158 43v172q133 4 235 -43q158 -72 177 -275q6 -66 6 -137v-227q0 -109 106 -115v-127q-106 -6 -106 -115v-227q0 -72 -6 -137q-18 -203 -177 -275q-102 -47 -235 -43 v173z" />
<glyph unicode="~" horiz-adv-x="1296" d="M123 721q70 100 153.5 154.5t167.5 54.5q80 0 152 -41l111 -64q63 -37 137 -37q72 0 127 50q41 37 80 102l123 -106q-66 -98 -151 -162t-179 -64q-86 0 -162 45l-94 56q-66 39 -142 39q-59 0 -107 -32t-95 -104z" />
<glyph unicode="&#xa4;" horiz-adv-x="1228" d="M123 334l131 131q-61 100 -61 215t61 215l-131 131l145 145l131 -131q98 59 215 60q117 0 215 -60l132 131l145 -145l-131 -131q61 -100 61 -215t-61 -215l131 -131l-145 -146l-132 131q-98 -59 -215 -59t-215 59l-131 -131zM397 680q0 -90 63.5 -153.5t153.5 -63.5 t153.5 63.5t63.5 153.5t-63 153.5t-154 63.5q-90 0 -153.5 -63.5t-63.5 -153.5z" />
<glyph unicode="&#xa6;" horiz-adv-x="307" d="M82 -129v614h143v-614h-143zM82 901v615h143v-615h-143z" />
<glyph unicode="&#xa7;" horiz-adv-x="1075" d="M123 586q0 147 106 225q68 49 166 57l-143 123q-94 80 -94 205q0 100 70.5 169t213.5 69h406v-209h-369q-94 0 -94 -60q0 -39 61 -90l379 -321q127 -108 127 -262q0 -127 -84 -197q-76 -63 -202 -64l129 -110q121 -104 120 -234q0 -127 -100 -192q-76 -49 -209 -49h-379 v209h328q133 0 133 69q0 37 -74 101l-376 321q-115 98 -115 240zM350 569q0 -70 49 -110l86 -72q68 -4 136 14q104 29 104 125q0 68 -43 101l-104 82q-94 4 -142 -15q-86 -35 -86 -125z" />
<glyph unicode="&#xa8;" horiz-adv-x="1353" d="M123 213v1016q0 94 49 149.5t172 55.5h920v-215h-775q-51 0 -73.5 -20.5t-22.5 -70.5v-288h850v-215h-850v-336q0 -39 19.5 -56.5t93.5 -17.5h766v-215h-932q-117 0 -164 45q-53 51 -53 168zM352 1575v197h230v-197h-230zM823 1575v197h230v-197h-230z" />
<glyph unicode="&#xa9;" horiz-adv-x="1767" d="M123 719q0 465 256 629q160 102 506 102q340 0 504 -102q143 -90 204 -258q52 -142 52 -371q0 -231 -52 -373q-61 -166 -204 -258q-164 -104 -504 -104q-344 0 -506 104q-256 166 -256 631zM315 719q0 -373 177 -496q129 -90 393 -90q262 0 391 90q176 123 176 496 q0 356 -176 473q-133 88 -391 88q-260 0 -393 -88q-176 -117 -177 -473zM489 719q0 197 72 289q84 106 256 106h338v-164h-266q-121 0 -160 -63q-31 -61 -31 -182q0 -106 29 -152q37 -57 150 -57h305v-164h-379q-166 0 -244 106q-70 94 -70 281z" />
<glyph unicode="&#xab;" horiz-adv-x="1099" d="M123 575q0 66 43 125l280 392l164 -123l-231 -332q-25 -35 -25 -62t25 -61l231 -332l-164 -123l-280 392q-43 59 -43 124zM545 575q0 49 43 105l225 289l164 -123l-170 -221q-25 -33 -25 -50q0 -14 25 -49l170 -245l-164 -123l-225 313q-43 59 -43 104z" />
<glyph unicode="&#xac;" horiz-adv-x="1093" d="M123 561v174h848v-465h-185v291h-663z" />
<glyph unicode="&#xad;" horiz-adv-x="894" d="M82 446v211h731v-211h-731z" />
<glyph unicode="&#xae;" horiz-adv-x="1165" d="M123 995q0 262 92 363q98 109 371 108q244 0 340 -86q116 -104 116 -366q0 -268 -103 -369.5t-368 -101.5q-264 0 -366 127q-82 100 -82 325zM246 1014q0 -184 45 -250q76 -111 278 -111q178 0 256 62q95 75 95 284q0 195 -60 269q-70 88 -270 88q-197 0 -270.5 -74 t-73.5 -268zM350 778v408q0 35 15 51q20 25 86 25h213q74 0 106 -29q43 -39 43 -141q0 -147 -102 -148h-43l153 -166h-153l-123 142q-14 16 -15 51q0 53 45 53h46q43 0 53 9t10 30v47q0 20 -14.5 34.5t-48.5 14.5h-105q-27 0 -34 -6t-7 -37v-338h-125z" />
<glyph unicode="&#xb0;" horiz-adv-x="696" d="M123 1358q0 92 66.5 158.5t158.5 66.5t158.5 -66.5t66.5 -158.5t-66.5 -158.5t-158.5 -66.5t-158.5 66.5t-66.5 158.5zM225 1358q0 -51 36 -87t87 -36t87 36t36 87t-36 87t-87 36t-87 -36t-36 -87z" />
<glyph unicode="&#xb1;" horiz-adv-x="1187" d="M123 137v174h942v-174h-942zM123 782v174h379v377h186v-377h377v-174h-377v-376h-186v376h-379z" />
<glyph unicode="&#xb5;" horiz-adv-x="1245" d="M123 -365v1450h239v-669q0 -102 68 -174t188 -72q111 0 183 70q82 80 82 170v675h239v-1085h-231v147q-88 -160 -275 -159q-180 0 -264 145v-498h-229z" />
<glyph unicode="&#xb6;" horiz-adv-x="1488" d="M123 1001q0 252 133 359q92 74 274 74h877v-211h-141v-1571h-222v1571h-137v-1571h-221v940h-194q-201 0 -293 125q-76 102 -76 284zM350 1014q0 -92 27 -137q43 -74 158 -74h151v420h-151q-100 0 -142.5 -52.5t-42.5 -156.5z" />
<glyph unicode="&#xb7;" horiz-adv-x="495" d="M123 512v264h250v-264h-250z" />
<glyph unicode="&#xb8;" horiz-adv-x="1153" d="M53 532q0 178 21 265q27 121 108 190q119 102 406 103q248 0 358 -70q154 -96 154 -352q0 -113 -51 -164q-41 -41 -117 -41h-631q0 -94 14 -150q33 -129 220 -129h530v-184h-602q-236 0 -332 137q-78 111 -78 395zM244 1247v201h221v-201h-221zM301 647h498q53 1 53 64 q0 92 -67.5 143t-206.5 51q-164 0 -228 -71q-45 -51 -49 -187zM684 1247v201h221v-201h-221z" />
<glyph unicode="&#xb9;" horiz-adv-x="2187" d="M123 0v1255q0 195 203 195q150 0 213 -113l534 -960q18 -35 29 -35q14 0 14 35v1057h246v-1248q0 -203 -195 -202q-156 0 -223 120l-528 955q-18 35 -27 35q-20 0 -20 -41v-1053h-246zM1513 580v127h551v-127h-551zM1513 1051v161q0 133 55.5 184.5t219.5 51.5 q166 0 221 -51t55 -185v-161q0 -133 -55 -184.5t-221 -51.5q-164 0 -219.5 51.5t-55.5 184.5zM1681 1081q0 -72 26 -97.5t81 -25.5q57 0 82.5 25.5t25.5 97.5v105q0 72 -25.5 97.5t-82.5 25.5q-55 0 -81 -26t-26 -97v-105z" />
<glyph unicode="&#xbb;" horiz-adv-x="1099" d="M123 281l170 245q25 35 24 49q0 16 -24 50l-170 221l164 123l225 -289q43 -56 43 -105q0 -45 -43 -104l-225 -313zM489 182l232 332q25 35 24 61q0 27 -24 62l-232 332l164 123l281 -392q43 -59 43 -125t-43 -124l-281 -392z" />
<glyph unicode="&#xc0;" horiz-adv-x="1429" d="M-61 0l540 1288q39 92 89 127t147 35q92 0 144 -36t91 -126l541 -1288h-285l-147 362h-690l-146 -362h-284zM438 555h551l-233 584q-25 59 -41 59t-41 -59z" />
<glyph unicode="&#xc1;" horiz-adv-x="1484" d="M123 190v1035q0 104 50 156.5t144 52.5h1012v-215h-840q-55 0 -75.5 -16.5t-20.5 -72.5v-296h682q172 0 254 -107q74 -94 74 -311q0 -233 -78 -322q-82 -94 -246 -94h-774q-94 0 -143 57q-39 45 -39 133zM393 322q0 -66 10 -80q18 -27 103 -27h434q100 0 142 42t42 167 q0 113 -43 153.5t-141 40.5h-547v-296z" />
<glyph unicode="&#xc2;" horiz-adv-x="1478" d="M123 203v1024q0 94 47 150.5t149 56.5h705q176 0 260 -86q90 -92 90 -308q0 -154 -67 -233q-57 -68 -136 -74v-8q96 -8 158 -76q68 -74 68 -256q0 -209 -82 -301q-55 -61 -129 -80q-43 -12 -133 -12h-686q-82 0 -103 4q-55 10 -92 53q-49 55 -49 146zM393 322 q0 -66 18.5 -86.5t86.5 -20.5h426q115 0 157 51q37 46 37 146q0 102 -31 145q-41 59 -145 59h-549v-294zM393 831h525q109 0 147 52q31 41 31 145q0 109 -47 154q-39 37 -134 37h-442q-47 0 -63.5 -18.5t-16.5 -61.5v-308z" />
<glyph unicode="&#xc3;" horiz-adv-x="1251" d="M123 0v1227q0 102 52 154.5t138 52.5h959v-215h-772q-78 0 -92.5 -18.5t-14.5 -76.5v-1124h-270z" />
<glyph unicode="&#xc4;" horiz-adv-x="1624" d="M-20 0v215h120l484 1083q33 74 73 107q57 45 156 45q92 0 143.5 -36t85.5 -116l482 -1083h121v-215h-1665zM377 215h870l-401 930q-18 45 -33 45q-16 0 -35 -45z" />
<glyph unicode="&#xc5;" horiz-adv-x="1333" d="M123 213v1016q0 94 49 149.5t172 55.5h920v-215h-775q-51 0 -73.5 -20.5t-22.5 -70.5v-288h850v-215h-850v-336q0 -39 19.5 -56.5t93.5 -17.5h766v-215h-932q-117 0 -164 45q-53 51 -53 168z" />
<glyph unicode="&#xc6;" horiz-adv-x="2187" d="M-41 0l584 604q76 78 75 135q0 41 -59 107l-526 588h327l451 -533q74 -88 74 -164q0 -84 -94 -190l-488 -547h-344zM958 0v1434h271v-1434h-271zM1303 737q0 76 73 164l451 533h327l-526 -588q-59 -66 -59 -107q0 -57 76 -135l583 -604h-344l-487 547q-94 106 -94 190z " />
<glyph unicode="&#xc7;" horiz-adv-x="1361" d="M102 0v215h660q123 0 170 27q70 39 69 174q0 117 -51 162q-45 39 -164 38h-655v215h621q145 0 188 46q35 37 35 149q0 123 -47 162q-37 31 -125 31h-692v215h753q102 0 152 -11q90 -18 149 -77q88 -90 88 -299q0 -174 -82 -252q-51 -47 -120 -64v-8q131 -6 188 -107 q41 -71 41 -233q0 -246 -129 -326q-92 -57 -307 -57h-742z" />
<glyph unicode="&#xc8;" horiz-adv-x="1609" d="M123 229v1205h270l-6 -1069q0 -66 25 -66q12 0 39 45l577 946q55 92 113 127q51 33 127 33q219 0 219 -258v-1192h-270l8 1090q0 47 -21 47q-12 0 -53 -66l-590 -952q-41 -66 -74 -92q-57 -43 -153 -43q-211 0 -211 245z" />
<glyph unicode="&#xc9;" horiz-adv-x="1609" d="M123 229v1205h270l-6 -1069q0 -66 25 -66q12 0 39 45l577 946q55 92 113 127q51 33 127 33q219 0 219 -258v-1192h-270l8 1090q0 47 -21 47q-12 0 -53 -66l-590 -952q-41 -66 -74 -92q-57 -43 -153 -43q-211 0 -211 245zM397 1759h195q16 -53 57 -90q49 -43 150 -43 q102 0 151 43q41 37 58 90h194q-45 -156 -153 -225q-94 -59 -250 -59q-168 0 -264.5 70.5t-137.5 213.5z" />
<glyph unicode="&#xca;" horiz-adv-x="1433" d="M123 0v1434h270v-1434h-270zM465 735q0 84 78 162l542 537h334l-618 -588q-76 -72 -76 -111q0 -49 92 -131l678 -604h-342l-590 551q-98 92 -98 184z" />
<glyph unicode="&#xcb;" horiz-adv-x="1423" d="M-61 0l555 1315q57 135 219 135t219 -135l553 -1315h-287l-453 1145q-16 41 -32 41q-18 0 -35 -41l-453 -1145h-286z" />
<glyph unicode="&#xcc;" horiz-adv-x="2031" d="M123 0v1262q0 188 231 188q90 0 142 -33q68 -41 110 -151l371 -957q20 -53 39 -53q18 0 39 53l370 957q43 111 111 151q51 33 141 33q231 0 232 -188v-1262h-271l9 1116q0 43 -25 43q-16 0 -35 -47l-366 -956q-39 -100 -76 -136q-43 -37 -129 -36q-82 0 -124 34.5 t-81 137.5l-367 956q-18 47 -34 47q-23 0 -23 -43l6 -1116h-270z" />
<glyph unicode="&#xcd;" horiz-adv-x="1531" d="M123 0v1434h270v-588h746v588h270v-1434h-270v631h-746v-631h-270z" />
<glyph unicode="&#xce;" horiz-adv-x="1634" d="M82 717q0 195 24 309q37 174 141.5 273.5t280.5 132.5q100 18 291 18q188 0 289 -18q180 -33 283 -134q161 -157 161 -581q0 -422 -161 -582q-100 -98 -283 -133q-102 -18 -289 -18q-188 0 -291 18q-176 33 -282.5 135.5t-143.5 288.5q-20 104 -20 291zM360 717 q0 -276 93 -395q61 -78 165 -105q68 -18 199 -18q270 0 367 123q90 114 90 395q0 283 -90 397q-96 121 -367 121q-127 0 -194 -16q-106 -27 -170 -105q-92 -115 -93 -397z" />
<glyph unicode="&#xcf;" horiz-adv-x="1521" d="M123 0v1239q0 92 53 143.5t162 51.5h848q111 0 162 -51.5t51 -143.5v-1239h-271v1133q0 51 -17 68.5t-64 17.5h-570q-49 0 -66.5 -19.5t-17.5 -66.5v-1133h-270z" />
<glyph unicode="&#xd0;" horiz-adv-x="1490" d="M123 0v1219q0 111 52 163t159 52h682q197 0 284 -86q109 -105 109 -377q0 -291 -125 -393q-86 -70 -219 -70h-672v-508h-270zM393 723h514q129 0 176 53.5t47 196.5t-49 194.5t-170 51.5h-436q-45 0 -63.5 -18.5t-18.5 -67.5v-410z" />
<glyph unicode="&#xd1;" d="M82 696q0 393 139 557q154 180 469 181h576v-215h-449q-143 0 -217 -21q-104 -29 -160 -113q-80 -119 -80 -385q0 -244 68 -348q90 -137 375 -137h485v-215h-604q-307 0 -454.5 166t-147.5 530z" />
<glyph unicode="&#xd2;" d="M-20 1219v215h1390v-215h-561v-1219h-270v1219h-559z" />
<glyph unicode="&#xd3;" horiz-adv-x="1400" d="M-41 1434h299l453 -869l436 869h295l-752 -1434h-293l174 317z" />
<glyph unicode="&#xd4;" horiz-adv-x="1908" d="M82 735q0 289 96 426q63 92 170 127q92 29 266 29h205v117h271v-117h202q176 0 269 -29q106 -35 170 -127q96 -137 96 -426q0 -293 -82 -426q-104 -170 -402 -170h-253v-139h-271v139h-254q-297 0 -401 170q-82 133 -82 426zM360 735q0 -178 31 -248q37 -86 135 -114 q59 -18 172 -19h121v748h-160q-203 0 -262 -119q-37 -72 -37 -248zM1090 354h120q113 0 172 19q96 29 136 114q30 70 30 248q0 172 -39 248q-61 119 -260 119h-159v-748z" />
<glyph unicode="&#xd5;" horiz-adv-x="1323" d="M-41 0l549 727l-533 707h320l367 -516l366 516h320l-533 -707l549 -727h-320l-382 537l-383 -537h-320z" />
<glyph unicode="&#xd6;" horiz-adv-x="1574" d="M123 209v1225h270v-1106q0 -76 13 -90q18 -23 79 -23h643v1219h271v-1219h196v-215h-1243q-119 0 -168 41q-61 51 -61 168z" />
<glyph unicode="&#xd7;" horiz-adv-x="1466" d="M102 967v467h271v-418q0 -111 37 -148q43 -43 153 -43h510v609h270v-1434h-270v610h-657q-168 0 -256 125q-57 80 -58 232z" />
<glyph unicode="&#xd8;" horiz-adv-x="2138" d="M123 182v1252h270v-1129q0 -51 13 -67q16 -23 63 -23h465v1219h270v-1219h467q45 0 62 23q12 16 12 67v1129h270v-1252q0 -90 -46 -136t-140 -46h-1520q-90 0 -138 46t-48 136z" />
<glyph unicode="&#xd9;" horiz-adv-x="2191" d="M123 182v1252h270v-1129q0 -51 13 -67q16 -23 61 -23h467v1219h270v-1219h541v1219h270v-1219h197v-215h-1903q-92 0 -139 47t-47 135z" />
<glyph unicode="&#xda;" horiz-adv-x="1622" d="M-20 1219v215h352q96 0 145 -53.5t49 -153.5v-381h680q205 0 281 -137q53 -97 53 -285q0 -209 -65 -299q-90 -125 -283 -125h-762q-80 0 -127 55.5t-47 161.5v903q0 55 -17.5 77t-60.5 22h-198zM526 303q0 -49 13 -65q16 -23 77 -23h437q113 0 161 41t48 176 q0 129 -58 172q-37 27 -137 27h-541v-328z" />
<glyph unicode="&#xdb;" horiz-adv-x="1955" d="M123 217v1217h270v-588h680q205 0 281 -137q53 -97 53 -285q0 -209 -66 -299q-90 -125 -282 -125h-762q-80 0 -127 55.5t-47 161.5zM393 303q0 -49 13 -65q16 -23 77 -23h437q113 0 160.5 41t47.5 176q0 129 -57 172q-37 27 -137 27h-541v-328zM1563 0v1434h270v-1434 h-270z" />
<glyph unicode="&#xdc;" horiz-adv-x="1488" d="M123 217v1217h270v-588h680q205 0 281 -137q53 -97 53 -285q0 -209 -66 -299q-90 -125 -282 -125h-762q-80 0 -127 55.5t-47 161.5zM393 303q0 -49 13 -65q16 -23 77 -23h437q113 0 160.5 41t47.5 176q0 129 -57 172q-37 27 -137 27h-541v-328z" />
<glyph unicode="&#xdd;" horiz-adv-x="1363" d="M82 0v215h502q180 0 282 70q78 53 109 135q27 74 29 201h-873v215h873q-12 193 -107 284q-100 98 -287 99h-508v215h594q279 0 428 -148q158 -156 158 -557q0 -229 -35 -360q-43 -154 -145 -242q-147 -127 -406 -127h-614z" />
<glyph unicode="&#xde;" horiz-adv-x="2125" d="M123 0v1434h270v-594h180q-2 129 39 247q43 133 125 211q104 100 281 134q102 18 291 18q190 0 290 -18q174 -33 281 -134q96 -90 133 -245q31 -127 31 -336q0 -193 -25 -307q-37 -176 -140 -275.5t-280 -132.5q-102 -18 -290 -18t-291 18q-176 33 -281 133 q-84 82 -129 227q-39 129 -35 263h-180v-625h-270zM852 717q0 -276 90 -395q59 -76 160 -105q72 -18 207 -18q129 0 198 18q104 27 166 105q92 119 92 395q0 283 -92 397q-63 78 -170 105q-68 16 -194 16q-125 0 -195 -16q-111 -27 -172 -105q-90 -115 -90 -397z" />
<glyph unicode="&#xdf;" horiz-adv-x="1513" d="M61 0l541 492v8h-186q-168 0 -250 141q-63 109 -64 340q0 217 68 322q84 131 303 131h703q96 0 155.5 -55.5t59.5 -170.5v-1208h-271v1124q0 45 -26.5 70t-73.5 25h-451q-94 0 -141 -49.5t-47 -196.5q0 -139 29 -187q43 -72 135 -71h282q123 0 123 -88v-33 q0 -66 -61 -125l-479 -469h-349z" />
<glyph unicode="&#xe0;" horiz-adv-x="1136" d="M53 348q0 184 92 264q72 63 199 64h471v76q0 63 -31 102q-39 47 -116 47h-535v184h617q305 0 305 -340v-563q0 -96 -43 -139t-150 -43h-518q-135 0 -197 53q-94 82 -94 295zM301 338q0 -86 32 -120t79 -34h333q39 0 54.5 12.5t15.5 45.5v250h-399q-59 0 -87 -36t-28 -118 z" />
<glyph unicode="&#xe1;" horiz-adv-x="1175" d="M82 444v566q0 158 59 258q98 166 334 166h584v-185h-473q-150 0 -209.5 -55t-54.5 -154h364q258 0 365 -159q71 -109 71 -349q0 -264 -75 -380q-70 -106 -205 -144q-80 -20 -246 -20t-248 22q-143 37 -211 152q-55 94 -55 282zM322 422q0 -109 55 -172q68 -78 215 -78 q139 0 210.5 67.5t71.5 276.5q0 188 -55 260q-61 80 -186 80h-311v-434z" />
<glyph unicode="&#xe2;" horiz-adv-x="1128" d="M82 160v755q0 84 49 127t145 43h492q178 0 246 -77q57 -66 57 -201q0 -125 -48 -179.5t-130 -64.5v-4q86 -10 134 -70.5t48 -181.5q0 -166 -70.5 -236.5t-222.5 -70.5h-516q-100 0 -142 38t-42 122zM322 250q0 -31 13 -48.5t50 -17.5h299q78 0 110.5 33t32.5 115 q0 72 -30.5 104.5t-100.5 32.5h-374v-219zM322 653h370q68 0 99.5 32t31.5 91q0 70 -31.5 97.5t-95.5 27.5h-315q-31 0 -45 -12t-14 -41v-195z" />
<glyph unicode="&#xe3;" horiz-adv-x="948" d="M82 0v907q0 86 22 121q37 57 129 57h756v-184h-602q-29 0 -47 -18.5t-18 -67.5v-815h-240z" />
<glyph unicode="&#xe4;" horiz-adv-x="1181" d="M-20 0v184h98l338 807q45 106 176 107q129 0 174 -107l340 -807h96v-184h-1222zM311 184h561l-260 674q-10 29 -20 29q-12 0 -23 -29z" />
<glyph unicode="&#xe5;" horiz-adv-x="1153" d="M53 532q0 178 21 265q27 121 108 190q119 102 406 103q248 0 358 -70q154 -96 154 -352q0 -113 -51 -164q-41 -41 -117 -41h-631q0 -94 14 -150q33 -129 220 -129h530v-184h-602q-236 0 -332 137q-78 111 -78 395zM301 647h498q53 1 53 64q0 92 -67.5 143t-206.5 51 q-164 0 -228 -71q-45 -51 -49 -187z" />
<glyph unicode="&#xe6;" horiz-adv-x="1648" d="M-41 0l410 477q45 53 45 84q0 27 -45 80l-373 444h278l310 -385q75 -94 75 -147q0 -45 -63 -123l-354 -430h-283zM709 0v1085h231v-1085h-231zM989 553q0 53 76 147l307 385h279l-371 -444q-45 -53 -45 -80q0 -31 45 -84l410 -477h-283l-354 430q-63 78 -64 123z" />
<glyph unicode="&#xe7;" horiz-adv-x="1085" d="M82 0v184h545q100 0 129 54q20 37 20 94q0 76 -45 108q-37 27 -102 27h-516v184h524q68 0 100.5 31t32.5 94q0 66 -36 95.5t-103 29.5h-529v184h619q156 0 226.5 -68.5t70.5 -207.5q0 -123 -47 -180.5t-125 -65.5v-6q74 -8 123 -63q55 -64 55 -191q0 -164 -84 -240 q-70 -63 -217 -63h-641z" />
<glyph unicode="&#xe8;" horiz-adv-x="1226" d="M82 141v944h240l-11 -772q0 -29 17 -28q8 0 28 28l484 711q49 74 147 74q158 0 158 -166v-932h-240l8 772q0 29 -12 29q-8 0 -29 -29l-477 -698q-59 -86 -155 -86q-158 0 -158 153z" />
<glyph unicode="&#xe9;" horiz-adv-x="1226" d="M82 141v944h240l-11 -772q0 -29 17 -28q8 0 28 28l484 711q49 74 147 74q158 0 158 -166v-932h-240l8 772q0 29 -12 29q-8 0 -29 -29l-477 -698q-59 -86 -155 -86q-158 0 -158 153zM238 1419h186q16 -53 51 -88q49 -49 141 -49t142 49q35 35 51 88h186 q-41 -139 -116 -207q-90 -80 -263 -79q-172 0 -262 79q-76 68 -116 207z" />
<glyph unicode="&#xea;" horiz-adv-x="1052" d="M82 0v1085h240v-1085h-240zM369 559q0 57 75 141l347 385h284l-411 -438q-51 -55 -52 -88q0 -35 39 -76l463 -483h-289l-395 432q-61 68 -61 127z" />
<glyph unicode="&#xeb;" horiz-adv-x="1159" d="M-20 0l440 1008q39 90 160 90t159 -90l441 -1008h-246l-334 838q-12 31 -20 30q-8 0 -21 -30l-334 -838h-245z" />
<glyph unicode="&#xec;" horiz-adv-x="1515" d="M82 0v942q0 76 57 119q49 37 129 37q137 0 185 -117l274 -690q16 -43 31 -43q14 0 30 43l275 690q47 117 184 117q80 0 131 -37q55 -43 56 -119v-942h-240l10 786q0 20 -12 21q-6 0 -18 -25l-277 -704q-35 -90 -139 -90t-140 90l-278 704q-8 23 -16 23q-12 0 -13 -19 l11 -786h-240z" />
<glyph unicode="&#xed;" horiz-adv-x="1161" d="M82 0v1085h240v-434h518v434h239v-1085h-239v467h-518v-467h-240z" />
<glyph unicode="&#xee;" horiz-adv-x="1261" d="M53 539q0 315 140 444q123 115 438 115t438 -115q139 -129 139 -436q0 -311 -139 -443q-125 -117 -438 -116q-311 0 -438 116q-139 127 -140 435zM301 541q0 -199 70 -279q78 -90 260 -90q178 0 258 90q72 80 72 279q0 209 -70 286q-78 86 -260 86q-188 0 -262 -86 q-68 -78 -68 -286z" />
<glyph unicode="&#xef;" horiz-adv-x="1163" d="M82 0v905q0 84 37 127q47 53 147 53h631q104 0 150 -53q35 -41 34 -127v-905h-239v838q0 39 -14.5 51t-43.5 12h-405q-57 0 -57 -63v-838h-240z" />
<glyph unicode="&#xf0;" horiz-adv-x="1144" d="M82 -348v1266q0 86 61 133q45 35 136 34h378q205 0 320 -118.5t115 -401.5q0 -287 -86 -409q-109 -156 -381 -156h-303v-348h-240zM322 184h272q139 0 205 101q45 70 45 260q0 168 -29 233q-53 123 -209 123h-235q-14 0 -31.5 -15.5t-17.5 -35.5v-666z" />
<glyph unicode="&#xf1;" horiz-adv-x="1050" d="M53 528q0 315 123 441q115 117 332 116h465v-184h-387q-217 0 -267 -172q-18 -63 -18 -205q0 -156 35 -225q57 -115 272 -115h389v-184h-522q-211 0 -323 133q-98 117 -99 395z" />
<glyph unicode="&#xf2;" horiz-adv-x="1054" d="M0 901v184h1055v-184h-408v-901h-239v901h-408z" />
<glyph unicode="&#xf3;" horiz-adv-x="1169" d="M-20 1085h253l347 -823l366 823h244l-649 -1433h-244l166 352z" />
<glyph unicode="&#xf4;" horiz-adv-x="1648" d="M53 530q0 260 76 385q104 170 354 170h222v349h239v-349h221q248 0 355 -170q75 -121 75 -385q0 -258 -90 -383q-106 -147 -348 -147h-213v-348h-239v348h-213q-242 0 -349 147q-90 125 -90 383zM301 528q0 -174 43 -247q57 -96 242 -97h119v717h-123q-166 0 -230 -86 q-51 -70 -51 -287zM944 184h119q184 0 242 97q43 73 43 247q0 215 -52 287q-61 86 -229 86h-123v-717z" />
<glyph unicode="&#xf5;" horiz-adv-x="1069" d="M-20 0l417 557l-391 528h275l254 -372l253 372h275l-389 -528l416 -557h-283l-272 401l-273 -401h-282z" />
<glyph unicode="&#xf6;" horiz-adv-x="1210" d="M82 152v933h240v-823q0 -45 16 -61.5t65 -16.5h435v901h239v-901h154v-184h-985q-78 0 -121 37t-43 115z" />
<glyph unicode="&#xf7;" horiz-adv-x="1136" d="M61 762v323h240v-272q0 -90 21 -121q35 -53 131 -53h362v446h240v-1085h-240v455h-479q-156 0 -223 90q-51 68 -52 217z" />
<glyph unicode="&#xf8;" horiz-adv-x="1677" d="M82 164v921h240v-829q0 -39 12 -55.5t45 -16.5h340v901h239v-901h342q31 0 43.5 16.5t12.5 55.5v829h239v-921q0 -86 -39 -123q-45 -41 -151 -41h-1133q-111 0 -150.5 40t-39.5 124z" />
<glyph unicode="&#xf9;" horiz-adv-x="1751" d="M82 164v921h240v-829q0 -41 8 -53q12 -18 47 -19h342v901h239v-901h398v901h239v-901h156v-184h-1479q-113 0 -151.5 39t-38.5 125z" />
<glyph unicode="&#xfa;" horiz-adv-x="1257" d="M0 901v184h303q57 0 97 -34.5t40 -118.5v-258h490q131 0 202.5 -82t71.5 -266q0 -195 -82 -269q-63 -57 -209 -57h-551q-80 0 -120.5 39t-40.5 127v665q0 37 -11.5 53.5t-50.5 16.5h-139zM440 260q0 -45 15.5 -60.5t52.5 -15.5h313q76 0 105.5 34t29.5 122 q0 84 -29.5 116.5t-97.5 32.5h-389v-229z" />
<glyph unicode="&#xfb;" horiz-adv-x="1536" d="M82 166v919h240v-411h489q131 0 202.5 -82t71.5 -266q0 -195 -81 -269q-63 -57 -209 -57h-551q-80 0 -121 39t-41 127zM322 260q0 -45 15 -60.5t52 -15.5h313q76 0 106 34t30 122q0 84 -30 116.5t-97 32.5h-389v-229zM1214 0v1085h240v-1085h-240z" />
<glyph unicode="&#xfc;" horiz-adv-x="1138" d="M82 166v919h240v-411h489q131 0 202.5 -82t71.5 -266q0 -195 -81 -269q-63 -57 -209 -57h-551q-80 0 -121 39t-41 127zM322 260q0 -45 15 -60.5t52 -15.5h313q76 0 106 34t30 122q0 84 -30 116.5t-97 32.5h-389v-229z" />
<glyph unicode="&#xfd;" horiz-adv-x="1069" d="M53 0v184h426q199 0 258 115q33 63 33 176h-688v184h686q4 100 -49 164q-66 78 -236 78h-415v184h536q205 0 308.5 -117.5t103.5 -404.5q0 -303 -96 -428q-104 -135 -377 -135h-490z" />
<glyph unicode="&#xfe;" horiz-adv-x="1673" d="M82 0v1085h240v-434h159q12 225 136 336t432 111q317 0 436 -113q135 -127 135 -432q0 -317 -135 -449q-121 -117 -436 -116q-305 0 -435 116q-143 129 -133 363h-159v-467h-240zM729 530q0 -188 59 -266q70 -92 261 -92q190 0 262 92q61 78 61 283q0 203 -59 278 q-70 88 -264 88q-195 0 -263 -88q-57 -76 -57 -295z" />
<glyph unicode="&#xff;" horiz-adv-x="1163" d="M41 0l356 375q14 14 15 24q0 12 -21 13h-57q-127 0 -197 92q-61 82 -61 258q0 174 80 254q70 70 186 69h553q92 0 135 -38q51 -47 51 -160v-887h-239v817q0 51 -16.5 67.5t-69.5 16.5h-314q-61 0 -89.5 -33.5t-28.5 -117.5q0 -90 22 -123q27 -39 105 -39h145 q104 0 104 -92q0 -63 -41 -111l-337 -385h-281z" />
<glyph unicode="&#x401;" horiz-adv-x="1353" d="M123 213v1016q0 94 49 149.5t172 55.5h920v-215h-775q-51 0 -73.5 -20.5t-22.5 -70.5v-288h850v-215h-850v-336q0 -39 19.5 -56.5t93.5 -17.5h766v-215h-932q-117 0 -164 45q-53 51 -53 168zM352 1575v197h230v-197h-230zM823 1575v197h230v-197h-230z" />
<glyph unicode="&#x402;" horiz-adv-x="1693" d="M-20 1219v215h1222v-215h-602v-390h694q174 0 252 -108q66 -90 66 -289q0 -246 -72 -339t-233 -93h-365v215h217q111 0 146 43q29 35 28 160q0 135 -35.5 177t-113.5 42h-584v-637h-270v1219h-350z" />
<glyph unicode="&#x403;" horiz-adv-x="1148" d="M0 0v1227q0 102 52 154.5t138 52.5h959v-215h-772q-78 0 -92.5 -18.5t-14.5 -76.5v-1124h-270zM326 1667l329 272l123 -153l-332 -270z" />
<glyph unicode="&#x404;" horiz-adv-x="1361" d="M82 729q0 188 22 295q35 168 136 264q150 145 426 146h596v-215h-510q-188 0 -287 -95q-47 -45 -76 -128t-29 -165h873v-200h-873q-10 -250 138 -350q96 -66 282 -66h500v-215h-614q-254 0 -404 127q-104 88 -145 240q-35 129 -35 362z" />
<glyph unicode="&#x405;" d="M61 1087q0 180 93 267q86 80 235 80h825v-215h-733q-78 0 -113.5 -34t-35.5 -110q0 -119 133 -162l524 -165q145 -47 205 -103q94 -90 94 -276q0 -174 -71 -267q-80 -102 -256 -102h-881v215h794q135 0 136 156q0 119 -140 161l-565 179q-111 35 -170 106q-74 88 -74 270 z" />
<glyph unicode="&#x406;" horiz-adv-x="516" d="M123 0v1434h270v-1434h-270z" />
<glyph unicode="&#x407;" horiz-adv-x="909" d="M123 1556v226h237v-226h-237zM319 0v1434h271v-1434h-271zM549 1556v226h237v-226h-237z" />
<glyph unicode="&#x408;" horiz-adv-x="911" d="M-41 0v215h236q150 0 231 72q92 80 92 286v861h270v-932q0 -244 -120 -367q-133 -135 -342 -135h-367z" />
<glyph unicode="&#x409;" horiz-adv-x="2422" d="M-20 0l839 1337q72 113 248 113q260 0 260 -188v-431h686q199 0 275 -122q53 -86 53 -291t-66 -293q-92 -125 -282 -125h-762q-78 0 -126 55.5t-48 161.5v969q0 37 -29 37q-16 0 -33 -23l-710 -1200h-305zM1327 303q0 -47 13.5 -67.5t76.5 -20.5h436q115 0 162 40t47 171 q0 145 -55 184q-33 23 -123 23h-557v-330z" />
<glyph unicode="&#x40a;" horiz-adv-x="2471" d="M123 0v1434h270v-588h725v588h271v-588h673q199 0 275 -139q53 -99 53 -287q0 -205 -66 -295q-90 -125 -282 -125h-752q-76 0 -124 55.5t-48 161.5v414h-725v-631h-270zM1389 303q0 -45 13 -66.5t77 -21.5h422q115 0 162.5 40t47.5 171q0 145 -55 184q-29 20 -125 21 h-542v-328z" />
<glyph unicode="&#x40b;" horiz-adv-x="1667" d="M-20 1219v215h1222v-215h-602v-390h688q137 0 207 -55q90 -72 90 -229v-545h-270v506q0 70 -37 100.5t-111 30.5h-567v-637h-270v1219h-350z" />
<glyph unicode="&#x40c;" horiz-adv-x="1372" d="M0 0v1434h270v-1434h-270zM342 735q0 84 78 162l543 537h333l-618 -588q-76 -72 -76 -111q0 -49 92 -131l678 -604h-342l-590 551q-98 92 -98 184zM367 1667l329 272l123 -153l-332 -270z" />
<glyph unicode="&#x40e;" horiz-adv-x="1482" d="M0 1434h299l453 -869l436 869h295l-752 -1434h-293l174 317zM338 1780h194q14 -53 60 -90q51 -43 149 -43q100 0 150 43q41 37 57 90h197q-39 -143 -139.5 -214t-264.5 -71q-170 0 -266 70.5t-137 214.5z" />
<glyph unicode="&#x40f;" horiz-adv-x="1523" d="M123 172v1262h270v-1143q0 -37 10 -53q12 -23 56 -23h606q41 0 55 23q10 14 10 53v1143h271v-1262q0 -90 -45 -131t-137 -41h-322v-346h-270v346h-322q-92 0 -137 41t-45 131z" />
<glyph unicode="&#x410;" horiz-adv-x="1429" d="M-61 0l540 1288q39 92 89 127t147 35q92 0 144 -36t91 -126l541 -1288h-285l-147 362h-690l-146 -362h-284zM438 555h551l-233 584q-25 59 -41 59t-41 -59z" />
<glyph unicode="&#x411;" horiz-adv-x="1484" d="M123 190v1035q0 104 50 156.5t144 52.5h1012v-215h-840q-55 0 -75.5 -16.5t-20.5 -72.5v-296h682q172 0 254 -107q74 -94 74 -311q0 -233 -78 -322q-82 -94 -246 -94h-774q-94 0 -143 57q-39 45 -39 133zM393 322q0 -66 10 -80q18 -27 103 -27h434q100 0 142 42t42 167 q0 113 -43 153.5t-141 40.5h-547v-296z" />
<glyph unicode="&#x412;" horiz-adv-x="1478" d="M123 203v1024q0 94 47 150.5t149 56.5h705q176 0 260 -86q90 -92 90 -308q0 -154 -67 -233q-57 -68 -136 -74v-8q96 -8 158 -76q68 -74 68 -256q0 -209 -82 -301q-55 -61 -129 -80q-43 -12 -133 -12h-686q-82 0 -103 4q-55 10 -92 53q-49 55 -49 146zM393 322 q0 -66 18.5 -86.5t86.5 -20.5h426q115 0 157 51q37 46 37 146q0 102 -31 145q-41 59 -145 59h-549v-294zM393 831h525q109 0 147 52q31 41 31 145q0 109 -47 154q-39 37 -134 37h-442q-47 0 -63.5 -18.5t-16.5 -61.5v-308z" />
<glyph unicode="&#x413;" horiz-adv-x="1251" d="M123 0v1227q0 102 52 154.5t138 52.5h959v-215h-772q-78 0 -92.5 -18.5t-14.5 -76.5v-1124h-270z" />
<glyph unicode="&#x414;" horiz-adv-x="1624" d="M-20 0v215h120l484 1083q33 74 73 107q57 45 156 45q92 0 143.5 -36t85.5 -116l482 -1083h121v-215h-1665zM377 215h870l-401 930q-18 45 -33 45q-16 0 -35 -45z" />
<glyph unicode="&#x415;" horiz-adv-x="1333" d="M123 213v1016q0 94 49 149.5t172 55.5h920v-215h-775q-51 0 -73.5 -20.5t-22.5 -70.5v-288h850v-215h-850v-336q0 -39 19.5 -56.5t93.5 -17.5h766v-215h-932q-117 0 -164 45q-53 51 -53 168z" />
<glyph unicode="&#x416;" horiz-adv-x="2187" d="M-41 0l584 604q76 78 75 135q0 41 -59 107l-526 588h327l451 -533q74 -88 74 -164q0 -84 -94 -190l-488 -547h-344zM958 0v1434h271v-1434h-271zM1303 737q0 76 73 164l451 533h327l-526 -588q-59 -66 -59 -107q0 -57 76 -135l583 -604h-344l-487 547q-94 106 -94 190z " />
<glyph unicode="&#x417;" horiz-adv-x="1361" d="M102 0v215h660q123 0 170 27q70 39 69 174q0 117 -51 162q-45 39 -164 38h-655v215h621q145 0 188 46q35 37 35 149q0 123 -47 162q-37 31 -125 31h-692v215h753q102 0 152 -11q90 -18 149 -77q88 -90 88 -299q0 -174 -82 -252q-51 -47 -120 -64v-8q131 -6 188 -107 q41 -71 41 -233q0 -246 -129 -326q-92 -57 -307 -57h-742z" />
<glyph unicode="&#x418;" horiz-adv-x="1609" d="M123 229v1205h270l-6 -1069q0 -66 25 -66q12 0 39 45l577 946q55 92 113 127q51 33 127 33q219 0 219 -258v-1192h-270l8 1090q0 47 -21 47q-12 0 -53 -66l-590 -952q-41 -66 -74 -92q-57 -43 -153 -43q-211 0 -211 245z" />
<glyph unicode="&#x419;" horiz-adv-x="1609" d="M123 229v1205h270l-6 -1069q0 -66 25 -66q12 0 39 45l577 946q55 92 113 127q51 33 127 33q219 0 219 -258v-1192h-270l8 1090q0 47 -21 47q-12 0 -53 -66l-590 -952q-41 -66 -74 -92q-57 -43 -153 -43q-211 0 -211 245zM397 1759h195q16 -53 57 -90q49 -43 150 -43 q102 0 151 43q41 37 58 90h194q-45 -156 -153 -225q-94 -59 -250 -59q-168 0 -264.5 70.5t-137.5 213.5z" />
<glyph unicode="&#x41a;" horiz-adv-x="1433" d="M123 0v1434h270v-1434h-270zM465 735q0 84 78 162l542 537h334l-618 -588q-76 -72 -76 -111q0 -49 92 -131l678 -604h-342l-590 551q-98 92 -98 184z" />
<glyph unicode="&#x41b;" horiz-adv-x="1423" d="M-61 0l555 1315q57 135 219 135t219 -135l553 -1315h-287l-453 1145q-16 41 -32 41q-18 0 -35 -41l-453 -1145h-286z" />
<glyph unicode="&#x41c;" horiz-adv-x="2031" d="M123 0v1262q0 188 231 188q90 0 142 -33q68 -41 110 -151l371 -957q20 -53 39 -53q18 0 39 53l370 957q43 111 111 151q51 33 141 33q231 0 232 -188v-1262h-271l9 1116q0 43 -25 43q-16 0 -35 -47l-366 -956q-39 -100 -76 -136q-43 -37 -129 -36q-82 0 -124 34.5 t-81 137.5l-367 956q-18 47 -34 47q-23 0 -23 -43l6 -1116h-270z" />
<glyph unicode="&#x41d;" horiz-adv-x="1531" d="M123 0v1434h270v-588h746v588h270v-1434h-270v631h-746v-631h-270z" />
<glyph unicode="&#x41e;" horiz-adv-x="1634" d="M82 717q0 195 24 309q37 174 141.5 273.5t280.5 132.5q100 18 291 18q188 0 289 -18q180 -33 283 -134q161 -157 161 -581q0 -422 -161 -582q-100 -98 -283 -133q-102 -18 -289 -18q-188 0 -291 18q-176 33 -282.5 135.5t-143.5 288.5q-20 104 -20 291zM360 717 q0 -276 93 -395q61 -78 165 -105q68 -18 199 -18q270 0 367 123q90 114 90 395q0 283 -90 397q-96 121 -367 121q-127 0 -194 -16q-106 -27 -170 -105q-92 -115 -93 -397z" />
<glyph unicode="&#x41f;" horiz-adv-x="1521" d="M123 0v1239q0 92 53 143.5t162 51.5h848q111 0 162 -51.5t51 -143.5v-1239h-271v1133q0 51 -17 68.5t-64 17.5h-570q-49 0 -66.5 -19.5t-17.5 -66.5v-1133h-270z" />
<glyph unicode="&#x420;" horiz-adv-x="1490" d="M123 0v1219q0 111 52 163t159 52h682q197 0 284 -86q109 -105 109 -377q0 -291 -125 -393q-86 -70 -219 -70h-672v-508h-270zM393 723h514q129 0 176 53.5t47 196.5t-49 194.5t-170 51.5h-436q-45 0 -63.5 -18.5t-18.5 -67.5v-410z" />
<glyph unicode="&#x421;" d="M82 696q0 393 139 557q154 180 469 181h576v-215h-449q-143 0 -217 -21q-104 -29 -160 -113q-80 -119 -80 -385q0 -244 68 -348q90 -137 375 -137h485v-215h-604q-307 0 -454.5 166t-147.5 530z" />
<glyph unicode="&#x422;" d="M-20 1219v215h1390v-215h-561v-1219h-270v1219h-559z" />
<glyph unicode="&#x423;" horiz-adv-x="1400" d="M-41 1434h299l453 -869l436 869h295l-752 -1434h-293l174 317z" />
<glyph unicode="&#x424;" horiz-adv-x="1908" d="M82 735q0 289 96 426q63 92 170 127q92 29 266 29h205v117h271v-117h202q176 0 269 -29q106 -35 170 -127q96 -137 96 -426q0 -293 -82 -426q-104 -170 -402 -170h-253v-139h-271v139h-254q-297 0 -401 170q-82 133 -82 426zM360 735q0 -178 31 -248q37 -86 135 -114 q59 -18 172 -19h121v748h-160q-203 0 -262 -119q-37 -72 -37 -248zM1090 354h120q113 0 172 19q96 29 136 114q30 70 30 248q0 172 -39 248q-61 119 -260 119h-159v-748z" />
<glyph unicode="&#x425;" horiz-adv-x="1323" d="M-41 0l549 727l-533 707h320l367 -516l366 516h320l-533 -707l549 -727h-320l-382 537l-383 -537h-320z" />
<glyph unicode="&#x426;" horiz-adv-x="1574" d="M123 209v1225h270v-1106q0 -76 13 -90q18 -23 79 -23h643v1219h271v-1219h196v-215h-1243q-119 0 -168 41q-61 51 -61 168z" />
<glyph unicode="&#x427;" horiz-adv-x="1466" d="M102 967v467h271v-418q0 -111 37 -148q43 -43 153 -43h510v609h270v-1434h-270v610h-657q-168 0 -256 125q-57 80 -58 232z" />
<glyph unicode="&#x428;" horiz-adv-x="2138" d="M123 182v1252h270v-1129q0 -51 13 -67q16 -23 63 -23h465v1219h270v-1219h467q45 0 62 23q12 16 12 67v1129h270v-1252q0 -90 -46 -136t-140 -46h-1520q-90 0 -138 46t-48 136z" />
<glyph unicode="&#x429;" horiz-adv-x="2191" d="M123 182v1252h270v-1129q0 -51 13 -67q16 -23 61 -23h467v1219h270v-1219h541v1219h270v-1219h197v-215h-1903q-92 0 -139 47t-47 135z" />
<glyph unicode="&#x42a;" horiz-adv-x="1622" d="M-20 1219v215h352q96 0 145 -53.5t49 -153.5v-381h680q205 0 281 -137q53 -97 53 -285q0 -209 -65 -299q-90 -125 -283 -125h-762q-80 0 -127 55.5t-47 161.5v903q0 55 -17.5 77t-60.5 22h-198zM526 303q0 -49 13 -65q16 -23 77 -23h437q113 0 161 41t48 176 q0 129 -58 172q-37 27 -137 27h-541v-328z" />
<glyph unicode="&#x42b;" horiz-adv-x="1955" d="M123 217v1217h270v-588h680q205 0 281 -137q53 -97 53 -285q0 -209 -66 -299q-90 -125 -282 -125h-762q-80 0 -127 55.5t-47 161.5zM393 303q0 -49 13 -65q16 -23 77 -23h437q113 0 160.5 41t47.5 176q0 129 -57 172q-37 27 -137 27h-541v-328zM1563 0v1434h270v-1434 h-270z" />
<glyph unicode="&#x42c;" horiz-adv-x="1488" d="M123 217v1217h270v-588h680q205 0 281 -137q53 -97 53 -285q0 -209 -66 -299q-90 -125 -282 -125h-762q-80 0 -127 55.5t-47 161.5zM393 303q0 -49 13 -65q16 -23 77 -23h437q113 0 160.5 41t47.5 176q0 129 -57 172q-37 27 -137 27h-541v-328z" />
<glyph unicode="&#x42d;" horiz-adv-x="1363" d="M82 0v215h502q180 0 282 70q78 53 109 135q27 74 29 201h-873v215h873q-12 193 -107 284q-100 98 -287 99h-508v215h594q279 0 428 -148q158 -156 158 -557q0 -229 -35 -360q-43 -154 -145 -242q-147 -127 -406 -127h-614z" />
<glyph unicode="&#x42e;" horiz-adv-x="2125" d="M123 0v1434h270v-594h180q-2 129 39 247q43 133 125 211q104 100 281 134q102 18 291 18q190 0 290 -18q174 -33 281 -134q96 -90 133 -245q31 -127 31 -336q0 -193 -25 -307q-37 -176 -140 -275.5t-280 -132.5q-102 -18 -290 -18t-291 18q-176 33 -281 133 q-84 82 -129 227q-39 129 -35 263h-180v-625h-270zM852 717q0 -276 90 -395q59 -76 160 -105q72 -18 207 -18q129 0 198 18q104 27 166 105q92 119 92 395q0 283 -92 397q-63 78 -170 105q-68 16 -194 16q-125 0 -195 -16q-111 -27 -172 -105q-90 -115 -90 -397z" />
<glyph unicode="&#x42f;" horiz-adv-x="1513" d="M61 0l541 492v8h-186q-168 0 -250 141q-63 109 -64 340q0 217 68 322q84 131 303 131h703q96 0 155.5 -55.5t59.5 -170.5v-1208h-271v1124q0 45 -26.5 70t-73.5 25h-451q-94 0 -141 -49.5t-47 -196.5q0 -139 29 -187q43 -72 135 -71h282q123 0 123 -88v-33 q0 -66 -61 -125l-479 -469h-349z" />
<glyph unicode="&#x430;" horiz-adv-x="1136" d="M53 348q0 184 92 264q72 63 199 64h471v76q0 63 -31 102q-39 47 -116 47h-535v184h617q305 0 305 -340v-563q0 -96 -43 -139t-150 -43h-518q-135 0 -197 53q-94 82 -94 295zM301 338q0 -86 32 -120t79 -34h333q39 0 54.5 12.5t15.5 45.5v250h-399q-59 0 -87 -36t-28 -118 z" />
<glyph unicode="&#x431;" horiz-adv-x="1175" d="M82 444v566q0 158 59 258q98 166 334 166h584v-185h-473q-150 0 -209.5 -55t-54.5 -154h364q258 0 365 -159q71 -109 71 -349q0 -264 -75 -380q-70 -106 -205 -144q-80 -20 -246 -20t-248 22q-143 37 -211 152q-55 94 -55 282zM322 422q0 -109 55 -172q68 -78 215 -78 q139 0 210.5 67.5t71.5 276.5q0 188 -55 260q-61 80 -186 80h-311v-434z" />
<glyph unicode="&#x432;" horiz-adv-x="1128" d="M82 160v755q0 84 49 127t145 43h492q178 0 246 -77q57 -66 57 -201q0 -125 -48 -179.5t-130 -64.5v-4q86 -10 134 -70.5t48 -181.5q0 -166 -70.5 -236.5t-222.5 -70.5h-516q-100 0 -142 38t-42 122zM322 250q0 -31 13 -48.5t50 -17.5h299q78 0 110.5 33t32.5 115 q0 72 -30.5 104.5t-100.5 32.5h-374v-219zM322 653h370q68 0 99.5 32t31.5 91q0 70 -31.5 97.5t-95.5 27.5h-315q-31 0 -45 -12t-14 -41v-195z" />
<glyph unicode="&#x433;" horiz-adv-x="948" d="M82 0v907q0 86 22 121q37 57 129 57h756v-184h-602q-29 0 -47 -18.5t-18 -67.5v-815h-240z" />
<glyph unicode="&#x434;" horiz-adv-x="1181" d="M-20 0v184h98l338 807q45 106 176 107q129 0 174 -107l340 -807h96v-184h-1222zM311 184h561l-260 674q-10 29 -20 29q-12 0 -23 -29z" />
<glyph unicode="&#x435;" horiz-adv-x="1153" d="M53 532q0 178 21 265q27 121 108 190q119 102 406 103q248 0 358 -70q154 -96 154 -352q0 -113 -51 -164q-41 -41 -117 -41h-631q0 -94 14 -150q33 -129 220 -129h530v-184h-602q-236 0 -332 137q-78 111 -78 395zM301 647h498q53 1 53 64q0 92 -67.5 143t-206.5 51 q-164 0 -228 -71q-45 -51 -49 -187z" />
<glyph unicode="&#x436;" horiz-adv-x="1648" d="M-41 0l410 477q45 53 45 84q0 27 -45 80l-373 444h278l310 -385q75 -94 75 -147q0 -45 -63 -123l-354 -430h-283zM709 0v1085h231v-1085h-231zM989 553q0 53 76 147l307 385h279l-371 -444q-45 -53 -45 -80q0 -31 45 -84l410 -477h-283l-354 430q-63 78 -64 123z" />
<glyph unicode="&#x437;" horiz-adv-x="1085" d="M82 0v184h545q100 0 129 54q20 37 20 94q0 76 -45 108q-37 27 -102 27h-516v184h524q68 0 100.5 31t32.5 94q0 66 -36 95.5t-103 29.5h-529v184h619q156 0 226.5 -68.5t70.5 -207.5q0 -123 -47 -180.5t-125 -65.5v-6q74 -8 123 -63q55 -64 55 -191q0 -164 -84 -240 q-70 -63 -217 -63h-641z" />
<glyph unicode="&#x438;" horiz-adv-x="1226" d="M82 141v944h240l-11 -772q0 -29 17 -28q8 0 28 28l484 711q49 74 147 74q158 0 158 -166v-932h-240l8 772q0 29 -12 29q-8 0 -29 -29l-477 -698q-59 -86 -155 -86q-158 0 -158 153z" />
<glyph unicode="&#x439;" horiz-adv-x="1226" d="M82 141v944h240l-11 -772q0 -29 17 -28q8 0 28 28l484 711q49 74 147 74q158 0 158 -166v-932h-240l8 772q0 29 -12 29q-8 0 -29 -29l-477 -698q-59 -86 -155 -86q-158 0 -158 153zM238 1419h186q16 -53 51 -88q49 -49 141 -49t142 49q35 35 51 88h186 q-41 -139 -116 -207q-90 -80 -263 -79q-172 0 -262 79q-76 68 -116 207z" />
<glyph unicode="&#x43a;" horiz-adv-x="1052" d="M82 0v1085h240v-1085h-240zM369 559q0 57 75 141l347 385h284l-411 -438q-51 -55 -52 -88q0 -35 39 -76l463 -483h-289l-395 432q-61 68 -61 127z" />
<glyph unicode="&#x43b;" horiz-adv-x="1159" d="M-20 0l440 1008q39 90 160 90t159 -90l441 -1008h-246l-334 838q-12 31 -20 30q-8 0 -21 -30l-334 -838h-245z" />
<glyph unicode="&#x43c;" horiz-adv-x="1515" d="M82 0v942q0 76 57 119q49 37 129 37q137 0 185 -117l274 -690q16 -43 31 -43q14 0 30 43l275 690q47 117 184 117q80 0 131 -37q55 -43 56 -119v-942h-240l10 786q0 20 -12 21q-6 0 -18 -25l-277 -704q-35 -90 -139 -90t-140 90l-278 704q-8 23 -16 23q-12 0 -13 -19 l11 -786h-240z" />
<glyph unicode="&#x43d;" horiz-adv-x="1161" d="M82 0v1085h240v-434h518v434h239v-1085h-239v467h-518v-467h-240z" />
<glyph unicode="&#x43e;" horiz-adv-x="1261" d="M53 539q0 315 140 444q123 115 438 115t438 -115q139 -129 139 -436q0 -311 -139 -443q-125 -117 -438 -116q-311 0 -438 116q-139 127 -140 435zM301 541q0 -199 70 -279q78 -90 260 -90q178 0 258 90q72 80 72 279q0 209 -70 286q-78 86 -260 86q-188 0 -262 -86 q-68 -78 -68 -286z" />
<glyph unicode="&#x43f;" horiz-adv-x="1163" d="M82 0v905q0 84 37 127q47 53 147 53h631q104 0 150 -53q35 -41 34 -127v-905h-239v838q0 39 -14.5 51t-43.5 12h-405q-57 0 -57 -63v-838h-240z" />
<glyph unicode="&#x440;" horiz-adv-x="1144" d="M82 -348v1266q0 86 61 133q45 35 136 34h378q205 0 320 -118.5t115 -401.5q0 -287 -86 -409q-109 -156 -381 -156h-303v-348h-240zM322 184h272q139 0 205 101q45 70 45 260q0 168 -29 233q-53 123 -209 123h-235q-14 0 -31.5 -15.5t-17.5 -35.5v-666z" />
<glyph unicode="&#x441;" horiz-adv-x="1050" d="M53 528q0 315 123 441q115 117 332 116h465v-184h-387q-217 0 -267 -172q-18 -63 -18 -205q0 -156 35 -225q57 -115 272 -115h389v-184h-522q-211 0 -323 133q-98 117 -99 395z" />
<glyph unicode="&#x442;" horiz-adv-x="1054" d="M0 901v184h1055v-184h-408v-901h-239v901h-408z" />
<glyph unicode="&#x443;" horiz-adv-x="1169" d="M-20 1085h253l347 -823l366 823h244l-649 -1433h-244l166 352z" />
<glyph unicode="&#x444;" horiz-adv-x="1648" d="M53 530q0 260 76 385q104 170 354 170h222v349h239v-349h221q248 0 355 -170q75 -121 75 -385q0 -258 -90 -383q-106 -147 -348 -147h-213v-348h-239v348h-213q-242 0 -349 147q-90 125 -90 383zM301 528q0 -174 43 -247q57 -96 242 -97h119v717h-123q-166 0 -230 -86 q-51 -70 -51 -287zM944 184h119q184 0 242 97q43 73 43 247q0 215 -52 287q-61 86 -229 86h-123v-717z" />
<glyph unicode="&#x445;" horiz-adv-x="1069" d="M-20 0l417 557l-391 528h275l254 -372l253 372h275l-389 -528l416 -557h-283l-272 401l-273 -401h-282z" />
<glyph unicode="&#x446;" horiz-adv-x="1210" d="M82 152v933h240v-823q0 -45 16 -61.5t65 -16.5h435v901h239v-901h154v-184h-985q-78 0 -121 37t-43 115z" />
<glyph unicode="&#x447;" horiz-adv-x="1136" d="M61 762v323h240v-272q0 -90 21 -121q35 -53 131 -53h362v446h240v-1085h-240v455h-479q-156 0 -223 90q-51 68 -52 217z" />
<glyph unicode="&#x448;" horiz-adv-x="1677" d="M82 164v921h240v-829q0 -39 12 -55.5t45 -16.5h340v901h239v-901h342q31 0 43.5 16.5t12.5 55.5v829h239v-921q0 -86 -39 -123q-45 -41 -151 -41h-1133q-111 0 -150.5 40t-39.5 124z" />
<glyph unicode="&#x449;" horiz-adv-x="1751" d="M82 164v921h240v-829q0 -41 8 -53q12 -18 47 -19h342v901h239v-901h398v901h239v-901h156v-184h-1479q-113 0 -151.5 39t-38.5 125z" />
<glyph unicode="&#x44a;" horiz-adv-x="1257" d="M0 901v184h303q57 0 97 -34.5t40 -118.5v-258h490q131 0 202.5 -82t71.5 -266q0 -195 -82 -269q-63 -57 -209 -57h-551q-80 0 -120.5 39t-40.5 127v665q0 37 -11.5 53.5t-50.5 16.5h-139zM440 260q0 -45 15.5 -60.5t52.5 -15.5h313q76 0 105.5 34t29.5 122 q0 84 -29.5 116.5t-97.5 32.5h-389v-229z" />
<glyph unicode="&#x44b;" horiz-adv-x="1536" d="M82 166v919h240v-411h489q131 0 202.5 -82t71.5 -266q0 -195 -81 -269q-63 -57 -209 -57h-551q-80 0 -121 39t-41 127zM322 260q0 -45 15 -60.5t52 -15.5h313q76 0 106 34t30 122q0 84 -30 116.5t-97 32.5h-389v-229zM1214 0v1085h240v-1085h-240z" />
<glyph unicode="&#x44c;" horiz-adv-x="1138" d="M82 166v919h240v-411h489q131 0 202.5 -82t71.5 -266q0 -195 -81 -269q-63 -57 -209 -57h-551q-80 0 -121 39t-41 127zM322 260q0 -45 15 -60.5t52 -15.5h313q76 0 106 34t30 122q0 84 -30 116.5t-97 32.5h-389v-229z" />
<glyph unicode="&#x44d;" horiz-adv-x="1069" d="M53 0v184h426q199 0 258 115q33 63 33 176h-688v184h686q4 100 -49 164q-66 78 -236 78h-415v184h536q205 0 308.5 -117.5t103.5 -404.5q0 -303 -96 -428q-104 -135 -377 -135h-490z" />
<glyph unicode="&#x44e;" horiz-adv-x="1673" d="M82 0v1085h240v-434h159q12 225 136 336t432 111q317 0 436 -113q135 -127 135 -432q0 -317 -135 -449q-121 -117 -436 -116q-305 0 -435 116q-143 129 -133 363h-159v-467h-240zM729 530q0 -188 59 -266q70 -92 261 -92q190 0 262 92q61 78 61 283q0 203 -59 278 q-70 88 -264 88q-195 0 -263 -88q-57 -76 -57 -295z" />
<glyph unicode="&#x44f;" horiz-adv-x="1163" d="M41 0l356 375q14 14 15 24q0 12 -21 13h-57q-127 0 -197 92q-61 82 -61 258q0 174 80 254q70 70 186 69h553q92 0 135 -38q51 -47 51 -160v-887h-239v817q0 51 -16.5 67.5t-69.5 16.5h-314q-61 0 -89.5 -33.5t-28.5 -117.5q0 -90 22 -123q27 -39 105 -39h145 q104 0 104 -92q0 -63 -41 -111l-337 -385h-281z" />
<glyph unicode="&#x451;" horiz-adv-x="1153" d="M53 532q0 178 21 265q27 121 108 190q119 102 406 103q248 0 358 -70q154 -96 154 -352q0 -113 -51 -164q-41 -41 -117 -41h-631q0 -94 14 -150q33 -129 220 -129h530v-184h-602q-236 0 -332 137q-78 111 -78 395zM244 1247v201h221v-201h-221zM301 647h498q53 1 53 64 q0 92 -67.5 143t-206.5 51q-164 0 -228 -71q-45 -51 -49 -187zM684 1247v201h221v-201h-221z" />
<glyph unicode="&#x452;" horiz-adv-x="1228" d="M0 1208v135h160v91h239v-91h318v-135h-318v-123h355q178 0 270 -75q76 -63 104 -152q18 -63 19 -176v-377q0 -98 -28.5 -220t-87 -235.5t-124.5 -197.5h-266q106 139 166 254q100 193 100 409v351q0 109 -54 172t-173 63h-281v-901h-239v1208h-160z" />
<glyph unicode="&#x453;" horiz-adv-x="907" d="M0 0v907q0 86 23 121q37 57 129 57h755v-184h-602q-29 0 -47 -18.5t-18 -67.5v-815h-240zM205 1313l330 272l122 -153l-331 -271z" />
<glyph unicode="&#x454;" horiz-adv-x="1071" d="M53 567q0 276 106.5 397t309.5 121h535v-176h-459q-147 0 -203 -90q-41 -66 -41 -168h688v-172h-688q-4 -113 35 -190q51 -104 215 -105h467v-184h-490q-123 0 -192 18q-117 31 -184 119q-98 131 -99 430z" />
<glyph unicode="&#x455;" horiz-adv-x="1079" d="M53 807q0 113 51 184q68 94 261 94h612v-184h-576q-57 0 -85.5 -22.5t-28.5 -75.5q0 -55 33.5 -83t136.5 -56l233 -66q211 -59 271 -123q65 -70 65 -199q0 -162 -90 -231q-59 -45 -174 -45h-694v184h610q53 0 80 31q20 23 20 68q0 53 -30 82q-25 23 -197 69l-209 58 q-178 49 -238 131q-51 72 -51 184z" />
<glyph unicode="&#x456;" horiz-adv-x="403" d="M82 0v1085h240v-1085h-240zM82 1243v191h240v-191h-240z" />
<glyph unicode="&#x457;" horiz-adv-x="518" d="M-41 1229v221h205v-221h-205zM139 0v1085h240v-1085h-240zM354 1229v221h205v-221h-205z" />
<glyph unicode="&#x458;" horiz-adv-x="563" d="M-82 -180q170 -2 240 47q84 61 84 209v1009h239v-1058q0 -209 -139 -312q-125 -92 -424 -80v185zM242 1243v191h239v-191h-239z" />
<glyph unicode="&#x459;" horiz-adv-x="1857" d="M-20 0l583 991q63 106 230 107q135 0 191 -38t56 -122v-287h500q119 0 184 -63q80 -76 80 -256q0 -195 -82 -275q-59 -57 -198 -57h-561q-86 0 -124 40t-38 126v698q0 51 -31 51q-20 0 -37 -28l-487 -887h-266zM1040 260q0 -41 13.5 -58.5t54.5 -17.5h322q66 0 96 35 t30 117q0 80 -29.5 111.5t-96.5 31.5h-390v-219z" />
<glyph unicode="&#x45a;" horiz-adv-x="1896" d="M82 0v1085h240v-430h518v430h239v-430h500q115 0 184 -69q80 -80 80 -260q0 -190 -82 -269q-61 -57 -198 -57h-562q-86 0 -123.5 40t-37.5 126v305h-518v-471h-240zM1079 260q0 -41 13.5 -58.5t52.5 -17.5h321q68 0 98.5 35t30.5 117q0 76 -27.5 105.5t-101.5 29.5h-387 v-211z" />
<glyph unicode="&#x45b;" horiz-adv-x="1228" d="M0 1208v135h160v91h239v-91h318v-135h-318v-123h326q209 0 303 -77q119 -98 119 -293v-715h-240v647q0 127 -55 190.5t-172 63.5h-281v-901h-239v1208h-160z" />
<glyph unicode="&#x45c;" horiz-adv-x="1052" d="M82 0v1085h240v-1085h-240zM365 1300l329 273l123 -154l-332 -270zM369 559q0 57 75 141l347 385h284l-411 -438q-51 -55 -52 -88q0 -35 39 -76l463 -483h-289l-395 432q-61 68 -61 127z" />
<glyph unicode="&#x45e;" horiz-adv-x="1169" d="M-20 1085h253l347 -823l366 823h244l-649 -1433h-244l166 352zM205 1419h186q12 -51 51 -88q51 -49 142 -49q90 0 141 49q39 37 51 88h187q-33 -133 -117 -207q-90 -80 -262 -79q-174 0 -261 78.5t-118 207.5z" />
<glyph unicode="&#x45f;" horiz-adv-x="1161" d="M82 143v942h240v-839q0 -41 10 -51.5t41 -10.5h418q29 0 39 10.5t10 51.5v839h239v-942q0 -68 -33.5 -105.5t-115.5 -37.5h-225v-360h-246v360h-226q-84 0 -117.5 38t-33.5 105z" />
<glyph unicode="&#x490;" horiz-adv-x="1249" d="M143 0v1235q0 94 47.5 146.5t147.5 52.5h608q47 0 60.5 16t13.5 63v177h270v-326q0 -63 -28 -98q-37 -45 -123 -45h-668q-37 0 -47 -18.5t-10 -72.5v-1130h-271z" />
<glyph unicode="&#x491;" horiz-adv-x="937" d="M82 0v934q0 76 36 113.5t105 37.5h459q33 0 51 17q12 12 12 41v205h234v-295q0 -78 -34 -110t-118 -32h-446q-39 0 -49 -10t-10 -55v-846h-240z" />
<glyph unicode="&#x2000;" horiz-adv-x="969" />
<glyph unicode="&#x2001;" horiz-adv-x="1939" />
<glyph unicode="&#x2002;" horiz-adv-x="969" />
<glyph unicode="&#x2003;" horiz-adv-x="1939" />
<glyph unicode="&#x2004;" horiz-adv-x="646" />
<glyph unicode="&#x2005;" horiz-adv-x="484" />
<glyph unicode="&#x2006;" horiz-adv-x="323" />
<glyph unicode="&#x2007;" horiz-adv-x="323" />
<glyph unicode="&#x2008;" horiz-adv-x="242" />
<glyph unicode="&#x2009;" horiz-adv-x="387" />
<glyph unicode="&#x200a;" horiz-adv-x="107" />
<glyph unicode="&#x2010;" horiz-adv-x="894" d="M82 446v211h731v-211h-731z" />
<glyph unicode="&#x2011;" horiz-adv-x="894" d="M82 446v211h731v-211h-731z" />
<glyph unicode="&#x2012;" horiz-adv-x="894" d="M82 446v211h731v-211h-731z" />
<glyph unicode="&#x2013;" horiz-adv-x="1171" d="M82 446v211h1008v-211h-1008z" />
<glyph unicode="&#x2014;" horiz-adv-x="2226" d="M123 446v211h1980v-211h-1980z" />
<glyph unicode="&#x2018;" horiz-adv-x="595" d="M123 1403l178 108l274 -401l-194 -119z" />
<glyph unicode="&#x2019;" horiz-adv-x="534" d="M0 1100l258 411l195 -118l-275 -402z" />
<glyph unicode="&#x201a;" horiz-adv-x="575" d="M0 -129l260 412l193 -119l-275 -402z" />
<glyph unicode="&#x201c;" horiz-adv-x="1013" d="M20 1403l179 108l272 -401l-192 -119zM438 1403l178 108l275 -401l-193 -119z" />
<glyph unicode="&#x201d;" horiz-adv-x="1013" d="M20 1100l261 411l192 -118l-274 -402zM440 1100l258 411l193 -118l-275 -402z" />
<glyph unicode="&#x201e;" horiz-adv-x="993" d="M0 -129l258 412l193 -119l-273 -402zM418 -129l260 412l192 -119l-274 -402z" />
<glyph unicode="&#x2020;" horiz-adv-x="1009" d="M82 852v174h330v408h186v-408h330v-174h-330v-1200h-186v1200h-330z" />
<glyph unicode="&#x2021;" horiz-adv-x="1009" d="M82 47v174h330v633h-330v174h330v406h186v-406h330v-174h-330v-633h330v-174h-330v-395h-186v395h-330z" />
<glyph unicode="&#x2022;" horiz-adv-x="1009" d="M123 715q0 158 111.5 269.5t271.5 111.5q158 0 269.5 -111.5t111.5 -269.5q0 -156 -112.5 -269.5t-268.5 -113.5q-158 0 -270.5 113.5t-112.5 269.5z" />
<glyph unicode="&#x2026;" horiz-adv-x="1359" d="M123 0v264h250v-264h-250zM555 0v264h250v-264h-250zM987 0v264h250v-264h-250z" />
<glyph unicode="&#x202f;" horiz-adv-x="387" />
<glyph unicode="&#x2030;" horiz-adv-x="2404" d="M123 1102q0 197 80 274q72 70 237 70q164 0 236 -70q82 -79 82 -274t-82 -275q-72 -70 -236 -69q-166 0 -237 69q-80 78 -80 275zM291 1102q0 -121 34.5 -164t114.5 -43q76 0 113 43t37 164t-37 164t-113 43q-80 0 -114.5 -43t-34.5 -164zM385 0l731 1434h180l-731 -1434 h-180zM915 332q0 197 80 274q72 70 238 70q164 0 235 -70q82 -79 82 -274t-82 -275q-72 -70 -235 -69q-166 0 -238 69q-80 78 -80 275zM1083 332q0 -121 35 -164t115 -43q76 0 112.5 43t36.5 164t-36.5 164t-112.5 43q-80 0 -115 -43t-35 -164zM1647 332q0 197 79 274 q72 70 238 70q164 0 236 -70q81 -79 81 -274t-81 -275q-72 -70 -236 -69q-166 0 -238 69q-80 78 -79 275zM1815 332q0 -121 34.5 -164t114.5 -43q76 0 113 43t37 164t-37 164t-113 43q-80 0 -114.5 -43t-34.5 -164z" />
<glyph unicode="&#x2039;" horiz-adv-x="733" d="M123 575q0 66 43 125l280 392l164 -123l-231 -332q-25 -35 -25 -62t25 -61l231 -332l-164 -121l-280 390q-43 59 -43 124z" />
<glyph unicode="&#x203a;" horiz-adv-x="733" d="M123 182l231 332q25 35 25 61q0 27 -25 62l-231 332l164 123l280 -392q43 -59 43 -125t-43 -124l-280 -390z" />
<glyph unicode="&#x203e;" horiz-adv-x="894" d="M82 446v211h731v-211h-731z" />
<glyph unicode="&#x2044;" horiz-adv-x="1038" d="M0 -340l897 1856h141l-897 -1856h-141z" />
<glyph unicode="&#x205f;" horiz-adv-x="484" />
<glyph unicode="&#x2122;" horiz-adv-x="2127" d="M0 1272v164h805v-164h-311v-662h-183v662h-311zM913 610v738q0 98 154 98q135 0 168 -86l203 -545q14 -27 20 -27q8 0 21 27l202 545q33 86 168 86q156 0 156 -98v-738h-174v615q0 23 -16 22q-12 0 -23 -24l-201 -529q-35 -92 -133 -92t-133 92l-199 529q-10 25 -22 24 q-16 0 -17 -22v-615h-174z" />
<glyph unicode="&#x25fc;" horiz-adv-x="1085" d="M0 0v1085h1085v-1085h-1085z" />
</font>
</defs>
</svg>
